<ttFont>
    <TTGlyph name=".ttfautohint" xMin="0" yMin="0" xMax="0" yMax="0">
      <contour>
        <pt x="0" y="0" on="1"/>
      </contour>
    </TTGlyph>
    <TTGlyph name="A" xMin="32" yMin="-68" xMax="2231" yMax="1560">
      <contour>
        <pt x="1388" y="762" on="1"/>
        <pt x="1239" y="834" on="0"/>
        <pt x="1121" y="871" on="1"/>
        <pt x="866" y="563" on="0"/>
        <pt x="820" y="274" on="1"/>
        <pt x="813" y="227" on="0"/>
        <pt x="813" y="132" on="0"/>
        <pt x="822" y="84" on="1"/>
        <pt x="722" y="10" on="0"/>
        <pt x="616" y="-26" on="1"/>
        <pt x="579" y="-39" on="0"/>
        <pt x="533" y="-39" on="0"/>
        <pt x="484" y="-15" on="0"/>
        <pt x="464" y="10" on="1"/>
        <pt x="416" y="66" on="0"/>
        <pt x="416" y="252" on="0"/>
        <pt x="483" y="442" on="0"/>
        <pt x="542" y="539" on="1"/>
        <pt x="653" y="722" on="0"/>
        <pt x="862" y="920" on="1"/>
        <pt x="780" y="925" on="0"/>
        <pt x="618" y="925" on="0"/>
        <pt x="530" y="904" on="1"/>
        <pt x="344" y="860" on="0"/>
        <pt x="308" y="736" on="1"/>
        <pt x="301" y="714" on="0"/>
        <pt x="301" y="643" on="0"/>
        <pt x="325" y="587" on="1"/>
        <pt x="305" y="550" on="0"/>
        <pt x="232" y="557" on="1"/>
        <pt x="156" y="564" on="0"/>
        <pt x="113" y="598" on="1"/>
        <pt x="32" y="662" on="0"/>
        <pt x="32" y="739" on="1"/>
        <pt x="32" y="889" on="0"/>
        <pt x="242" y="980" on="1"/>
        <pt x="437" y="1065" on="0"/>
        <pt x="717" y="1065" on="1"/>
        <pt x="842" y="1065" on="0"/>
        <pt x="991" y="1033" on="1"/>
        <pt x="1366" y="1345" on="0"/>
        <pt x="1760" y="1490" on="1"/>
        <pt x="1950" y="1560" on="0"/>
        <pt x="2096" y="1560" on="1"/>
        <pt x="2164" y="1560" on="0"/>
        <pt x="2231" y="1499" on="0"/>
        <pt x="2231" y="1406" on="0"/>
        <pt x="2182" y="1268" on="0"/>
        <pt x="2108" y="1099" on="0"/>
        <pt x="2023" y="905" on="0"/>
        <pt x="1986" y="804" on="1"/>
        <pt x="1900" y="569" on="0"/>
        <pt x="1900" y="406" on="1"/>
        <pt x="1900" y="287" on="0"/>
        <pt x="2005" y="287" on="1"/>
        <pt x="2035" y="287" on="0"/>
        <pt x="2071" y="302" on="1"/>
        <pt x="2090" y="289" on="0"/>
        <pt x="2114" y="246" on="0"/>
        <pt x="2114" y="214" on="0"/>
        <pt x="2089" y="154" on="0"/>
        <pt x="2043" y="93" on="0"/>
        <pt x="1978" y="37" on="0"/>
        <pt x="1939" y="15" on="1"/>
        <pt x="1793" y="-68" on="0"/>
        <pt x="1623" y="-10" on="1"/>
        <pt x="1482" y="37" on="0"/>
        <pt x="1422" y="184" on="1"/>
        <pt x="1392" y="260" on="0"/>
        <pt x="1392" y="454" on="0"/>
        <pt x="1452" y="625" on="0"/>
        <pt x="1549" y="790" on="0"/>
        <pt x="1674" y="944" on="0"/>
        <pt x="1805" y="1085" on="0"/>
        <pt x="1930" y="1209" on="0"/>
        <pt x="1978" y="1262" on="1"/>
        <pt x="2087" y="1379" on="0"/>
        <pt x="2087" y="1423" on="1"/>
        <pt x="2087" y="1446" on="0"/>
        <pt x="2045" y="1446" on="1"/>
        <pt x="1863" y="1446" on="0"/>
        <pt x="1630" y="1310" on="1"/>
        <pt x="1405" y="1178" on="0"/>
        <pt x="1208" y="969" on="1"/>
        <pt x="1367" y="912" on="0"/>
        <pt x="1401" y="866" on="1"/>
        <pt x="1440" y="814" on="0"/>
      </contour>
    </TTGlyph>
    <TTGlyph name="AE" xMin="32" yMin="-39" xMax="2964" yMax="1564">
      <contour>
        <pt x="1388" y="762" on="1"/>
        <pt x="1224" y="840" on="0"/>
        <pt x="1105" y="876" on="1"/>
        <pt x="848" y="567" on="0"/>
        <pt x="801" y="276" on="1"/>
        <pt x="793" y="227" on="0"/>
        <pt x="793" y="131" on="0"/>
        <pt x="802" y="84" on="1"/>
        <pt x="774" y="52" on="0"/>
        <pt x="706" y="20" on="1"/>
        <pt x="580" y="-39" on="0"/>
        <pt x="513" y="-39" on="0"/>
        <pt x="464" y="-15" on="0"/>
        <pt x="444" y="10" on="1"/>
        <pt x="396" y="66" on="0"/>
        <pt x="396" y="253" on="0"/>
        <pt x="463" y="443" on="0"/>
        <pt x="522" y="540" on="1"/>
        <pt x="635" y="726" on="0"/>
        <pt x="843" y="921" on="1"/>
        <pt x="785" y="925" on="0"/>
        <pt x="618" y="925" on="0"/>
        <pt x="530" y="904" on="1"/>
        <pt x="344" y="860" on="0"/>
        <pt x="308" y="736" on="1"/>
        <pt x="301" y="714" on="0"/>
        <pt x="301" y="643" on="0"/>
        <pt x="325" y="587" on="1"/>
        <pt x="305" y="550" on="0"/>
        <pt x="232" y="557" on="1"/>
        <pt x="156" y="564" on="0"/>
        <pt x="113" y="598" on="1"/>
        <pt x="32" y="662" on="0"/>
        <pt x="32" y="739" on="1"/>
        <pt x="32" y="889" on="0"/>
        <pt x="242" y="980" on="1"/>
        <pt x="437" y="1065" on="0"/>
        <pt x="717" y="1065" on="1"/>
        <pt x="844" y="1065" on="0"/>
        <pt x="975" y="1037" on="1"/>
        <pt x="1358" y="1352" on="0"/>
        <pt x="1740" y="1490" on="1"/>
        <pt x="1932" y="1560" on="0"/>
        <pt x="2076" y="1560" on="1"/>
        <pt x="2140" y="1560" on="0"/>
        <pt x="2207" y="1505" on="0"/>
        <pt x="2210" y="1461" on="1"/>
        <pt x="2446" y="1564" on="0"/>
        <pt x="2711" y="1564" on="1"/>
        <pt x="2886" y="1564" on="0"/>
        <pt x="2944" y="1462" on="1"/>
        <pt x="2964" y="1428" on="0"/>
        <pt x="2964" y="1350" on="0"/>
        <pt x="2943" y="1281" on="0"/>
        <pt x="2924" y="1253" on="1"/>
        <pt x="2883" y="1190" on="0"/>
        <pt x="2827" y="1190" on="1"/>
        <pt x="2792" y="1190" on="0"/>
        <pt x="2744" y="1230" on="1"/>
        <pt x="2732" y="1240" on="0"/>
        <pt x="2726" y="1247" on="1"/>
        <pt x="2770" y="1299" on="0"/>
        <pt x="2770" y="1371" on="1"/>
        <pt x="2770" y="1454" on="0"/>
        <pt x="2658" y="1454" on="1"/>
        <pt x="2533" y="1454" on="0"/>
        <pt x="2377" y="1406" on="1"/>
        <pt x="2267" y="1372" on="0"/>
        <pt x="2218" y="1320" on="1"/>
        <pt x="2192" y="1294" on="0"/>
        <pt x="2192" y="1224" on="0"/>
        <pt x="2232" y="1155" on="0"/>
        <pt x="2299" y="1096" on="0"/>
        <pt x="2389" y="1046" on="0"/>
        <pt x="2438" y="1026" on="1"/>
        <pt x="2534" y="989" on="0"/>
        <pt x="2639" y="967" on="1"/>
        <pt x="2622" y="887" on="0"/>
        <pt x="2585" y="832" on="1"/>
        <pt x="2573" y="814" on="0"/>
        <pt x="2563" y="816" on="1"/>
        <pt x="2438" y="844" on="0"/>
        <pt x="2250" y="844" on="0"/>
        <pt x="2178" y="834" on="1"/>
        <pt x="2030" y="811" on="0"/>
        <pt x="1926" y="731" on="1"/>
        <pt x="1879" y="590" on="0"/>
        <pt x="1879" y="440" on="0"/>
        <pt x="1933" y="360" on="0"/>
        <pt x="1972" y="338" on="1"/>
        <pt x="2037" y="299" on="0"/>
        <pt x="2121" y="299" on="1"/>
        <pt x="2313" y="299" on="0"/>
        <pt x="2499" y="435" on="1"/>
        <pt x="2522" y="419" on="0"/>
        <pt x="2548" y="380" on="0"/>
        <pt x="2548" y="343" on="0"/>
        <pt x="2503" y="261" on="0"/>
        <pt x="2423" y="172" on="0"/>
        <pt x="2314" y="85" on="0"/>
        <pt x="2249" y="50" on="1"/>
        <pt x="2103" y="-27" on="0"/>
        <pt x="1834" y="-27" on="0"/>
        <pt x="1633" y="45" on="0"/>
        <pt x="1564" y="106" on="1"/>
        <pt x="1425" y="232" on="0"/>
        <pt x="1425" y="420" on="1"/>
        <pt x="1425" y="632" on="0"/>
        <pt x="1628" y="888" on="1"/>
        <pt x="1733" y="1020" on="0"/>
        <pt x="1922" y="1214" on="0"/>
        <pt x="1967" y="1264" on="1"/>
        <pt x="2067" y="1377" on="0"/>
        <pt x="2067" y="1423" on="1"/>
        <pt x="2067" y="1446" on="0"/>
        <pt x="2025" y="1446" on="1"/>
        <pt x="1845" y="1446" on="0"/>
        <pt x="1613" y="1312" on="1"/>
        <pt x="1392" y="1184" on="0"/>
        <pt x="1193" y="975" on="1"/>
        <pt x="1370" y="908" on="0"/>
        <pt x="1401" y="866" on="1"/>
        <pt x="1440" y="814" on="0"/>
      </contour>
      <contour>
        <pt x="2024" y="970" on="1"/>
        <pt x="2100" y="985" on="0"/>
        <pt x="2179" y="988" on="1"/>
        <pt x="2115" y="1025" on="0"/>
        <pt x="2072" y="1073" on="1"/>
      </contour>
    </TTGlyph>
    <TTGlyph name="Aacute" xMin="32" yMin="-68" xMax="2321" yMax="1852">
      <component glyphName=".ttfautohint" x="32" y="0" flags="0x0"/>
      <component glyphName="A" x="0" y="0" flags="0x1204"/>
      <component glyphName="acute.cap" x="1018" y="0" flags="0x1004"/>
    </TTGlyph>
    <TTGlyph name="Acircumflex" xMin="32" yMin="-68" xMax="2391" yMax="1851">
      <component glyphName=".ttfautohint" x="32" y="0" flags="0x0"/>
      <component glyphName="A" x="0" y="0" flags="0x1204"/>
      <component glyphName="circumflex.cap" x="904" y="0" flags="0x1004"/>
    </TTGlyph>
    <TTGlyph name="Adieresis" xMin="32" yMin="-68" xMax="2448" yMax="1822">
      <component glyphName=".ttfautohint" x="32" y="0" flags="0x0"/>
      <component glyphName="A" x="0" y="0" flags="0x1204"/>
      <component glyphName="dieresis.cap" x="921" y="0" flags="0x1004"/>
    </TTGlyph>
    <TTGlyph name="Agrave" xMin="32" yMin="-68" xMax="2259" yMax="1852">
      <component glyphName=".ttfautohint" x="32" y="0" flags="0x0"/>
      <component glyphName="A" x="0" y="0" flags="0x1204"/>
      <component glyphName="grave.cap" x="976" y="0" flags="0x1004"/>
    </TTGlyph>
    <TTGlyph name="Aring" xMin="32" yMin="-68" xMax="2315" yMax="1852">
      <component glyphName=".ttfautohint" x="32" y="0" flags="0x0"/>
      <component glyphName="A" x="0" y="0" flags="0x1204"/>
      <component glyphName="ring.cap" x="876" y="0" flags="0x1004"/>
    </TTGlyph>
    <TTGlyph name="Atilde" xMin="32" yMin="-68" xMax="2464" yMax="1852">
      <component glyphName=".ttfautohint" x="32" y="0" flags="0x0"/>
      <component glyphName="A" x="0" y="0" flags="0x1204"/>
      <component glyphName="tilde.cap" x="1062" y="0" flags="0x1004"/>
    </TTGlyph>
    <TTGlyph name="B" xMin="79" yMin="-27" xMax="1779" yMax="1581">
      <contour>
        <pt x="1448" y="805" on="1"/>
        <pt x="1696" y="689" on="0"/>
        <pt x="1696" y="470" on="1"/>
        <pt x="1696" y="274" on="0"/>
        <pt x="1542" y="145" on="1"/>
        <pt x="1337" y="-27" on="0"/>
        <pt x="983" y="-27" on="1"/>
        <pt x="720" y="-27" on="0"/>
        <pt x="496" y="73" on="1"/>
        <pt x="277" y="171" on="0"/>
        <pt x="162" y="346" on="1"/>
        <pt x="79" y="473" on="0"/>
        <pt x="79" y="554" on="1"/>
        <pt x="79" y="585" on="0"/>
        <pt x="159" y="607" on="1"/>
        <pt x="240" y="493" on="0"/>
        <pt x="447" y="412" on="1"/>
        <pt x="510" y="496" on="0"/>
        <pt x="724" y="806" on="0"/>
        <pt x="844" y="979" on="0"/>
        <pt x="904" y="1059" on="1"/>
        <pt x="1037" y="1236" on="0"/>
        <pt x="1135" y="1327" on="1"/>
        <pt x="1165" y="1357" on="0"/>
        <pt x="1226" y="1329" on="1"/>
        <pt x="1242" y="1322" on="0"/>
        <pt x="1252" y="1313" on="1"/>
        <pt x="1169" y="1229" on="0"/>
        <pt x="1028" y="979" on="1"/>
        <pt x="1120" y="957" on="0"/>
        <pt x="1258" y="957" on="0"/>
        <pt x="1394" y="988" on="0"/>
        <pt x="1450" y="1018" on="1"/>
        <pt x="1579" y="1085" on="0"/>
        <pt x="1579" y="1183" on="1"/>
        <pt x="1579" y="1374" on="0"/>
        <pt x="1288" y="1446" on="1"/>
        <pt x="1174" y="1475" on="0"/>
        <pt x="947" y="1475" on="0"/>
        <pt x="747" y="1444" on="0"/>
        <pt x="669" y="1411" on="1"/>
        <pt x="497" y="1338" on="0"/>
        <pt x="497" y="1204" on="1"/>
        <pt x="497" y="1091" on="0"/>
        <pt x="581" y="1014" on="1"/>
        <pt x="490" y="917" on="0"/>
        <pt x="436" y="917" on="1"/>
        <pt x="374" y="917" on="0"/>
        <pt x="320" y="984" on="1"/>
        <pt x="265" y="1053" on="0"/>
        <pt x="265" y="1217" on="0"/>
        <pt x="334" y="1341" on="0"/>
        <pt x="452" y="1438" on="0"/>
        <pt x="607" y="1510" on="0"/>
        <pt x="694" y="1534" on="1"/>
        <pt x="863" y="1581" on="0"/>
        <pt x="1133" y="1581" on="0"/>
        <pt x="1314" y="1558" on="0"/>
        <pt x="1478" y="1510" on="0"/>
        <pt x="1618" y="1438" on="0"/>
        <pt x="1670" y="1389" on="1"/>
        <pt x="1779" y="1285" on="0"/>
        <pt x="1779" y="1140" on="1"/>
        <pt x="1779" y="1024" on="0"/>
        <pt x="1682" y="932" on="1"/>
        <pt x="1595" y="847" on="0"/>
      </contour>
      <contour>
        <pt x="678" y="345" on="1"/>
        <pt x="795" y="322" on="0"/>
        <pt x="939" y="322" on="0"/>
        <pt x="1039" y="329" on="0"/>
        <pt x="1156" y="361" on="0"/>
        <pt x="1198" y="390" on="1"/>
        <pt x="1290" y="452" on="0"/>
        <pt x="1290" y="560" on="1"/>
        <pt x="1290" y="665" on="0"/>
        <pt x="1183" y="732" on="1"/>
        <pt x="1085" y="793" on="0"/>
        <pt x="930" y="799" on="1"/>
        <pt x="897" y="737" on="0"/>
        <pt x="831" y="613" on="0"/>
        <pt x="799" y="554" on="1"/>
        <pt x="731" y="430" on="0"/>
      </contour>
    </TTGlyph>
    <TTGlyph name="C" xMin="105" yMin="-54" xMax="1585" yMax="1572">
      <contour>
        <pt x="1286" y="1264" on="1"/>
        <pt x="1340" y="1329" on="0"/>
        <pt x="1340" y="1384" on="1"/>
        <pt x="1340" y="1425" on="0"/>
        <pt x="1283" y="1462" on="0"/>
        <pt x="1155" y="1462" on="0"/>
        <pt x="971" y="1397" on="0"/>
        <pt x="802" y="1285" on="0"/>
        <pt x="655" y="1134" on="0"/>
        <pt x="601" y="1047" on="1"/>
        <pt x="485" y="860" on="0"/>
        <pt x="485" y="682" on="1"/>
        <pt x="485" y="503" on="0"/>
        <pt x="610" y="386" on="1"/>
        <pt x="755" y="250" on="0"/>
        <pt x="989" y="250" on="1"/>
        <pt x="1229" y="250" on="0"/>
        <pt x="1412" y="394" on="1"/>
        <pt x="1486" y="453" on="0"/>
        <pt x="1540" y="536" on="1"/>
        <pt x="1585" y="539" on="0"/>
        <pt x="1585" y="499" on="1"/>
        <pt x="1585" y="483" on="0"/>
        <pt x="1575" y="460" on="1"/>
        <pt x="1495" y="271" on="0"/>
        <pt x="1318" y="140" on="1"/>
        <pt x="1055" y="-54" on="0"/>
        <pt x="729" y="-54" on="1"/>
        <pt x="527" y="-54" on="0"/>
        <pt x="372" y="33" on="1"/>
        <pt x="205" y="126" on="0"/>
        <pt x="139" y="312" on="1"/>
        <pt x="105" y="408" on="0"/>
        <pt x="105" y="628" on="0"/>
        <pt x="163" y="822" on="0"/>
        <pt x="268" y="1006" on="0"/>
        <pt x="412" y="1174" on="0"/>
        <pt x="585" y="1321" on="0"/>
        <pt x="778" y="1440" on="0"/>
        <pt x="880" y="1482" on="1"/>
        <pt x="1093" y="1572" on="0"/>
        <pt x="1285" y="1572" on="1"/>
        <pt x="1480" y="1572" on="0"/>
        <pt x="1550" y="1462" on="1"/>
        <pt x="1575" y="1424" on="0"/>
        <pt x="1575" y="1328" on="0"/>
        <pt x="1545" y="1259" on="0"/>
        <pt x="1522" y="1234" on="1"/>
        <pt x="1474" y="1182" on="0"/>
        <pt x="1431" y="1182" on="1"/>
        <pt x="1391" y="1182" on="0"/>
        <pt x="1310" y="1243" on="1"/>
        <pt x="1292" y="1257" on="0"/>
      </contour>
    </TTGlyph>
    <TTGlyph name="Ccedilla" xMin="105" yMin="-549" xMax="1585" yMax="1572">
      <contour>
        <pt x="1286" y="1264" on="1"/>
        <pt x="1340" y="1329" on="0"/>
        <pt x="1340" y="1384" on="1"/>
        <pt x="1340" y="1425" on="0"/>
        <pt x="1283" y="1462" on="0"/>
        <pt x="1155" y="1462" on="0"/>
        <pt x="971" y="1397" on="0"/>
        <pt x="802" y="1285" on="0"/>
        <pt x="655" y="1134" on="0"/>
        <pt x="601" y="1047" on="1"/>
        <pt x="485" y="860" on="0"/>
        <pt x="485" y="682" on="1"/>
        <pt x="485" y="503" on="0"/>
        <pt x="610" y="386" on="1"/>
        <pt x="755" y="250" on="0"/>
        <pt x="989" y="250" on="1"/>
        <pt x="1229" y="250" on="0"/>
        <pt x="1412" y="394" on="1"/>
        <pt x="1486" y="453" on="0"/>
        <pt x="1540" y="536" on="1"/>
        <pt x="1585" y="539" on="0"/>
        <pt x="1585" y="499" on="1"/>
        <pt x="1585" y="483" on="0"/>
        <pt x="1575" y="460" on="1"/>
        <pt x="1488" y="254" on="0"/>
        <pt x="1284" y="116" on="1"/>
        <pt x="1093" y="-12" on="0"/>
        <pt x="860" y="-44" on="1"/>
        <pt x="751" y="-84" on="0"/>
        <pt x="692" y="-133" on="1"/>
        <pt x="674" y="-148" on="0"/>
        <pt x="674" y="-158" on="1"/>
        <pt x="674" y="-168" on="0"/>
        <pt x="712" y="-198" on="0"/>
        <pt x="735" y="-221" on="1"/>
        <pt x="796" y="-282" on="0"/>
        <pt x="796" y="-406" on="0"/>
        <pt x="744" y="-479" on="0"/>
        <pt x="704" y="-502" on="1"/>
        <pt x="625" y="-549" on="0"/>
        <pt x="526" y="-549" on="1"/>
        <pt x="461" y="-549" on="0"/>
        <pt x="418" y="-522" on="1"/>
        <pt x="343" y="-474" on="0"/>
        <pt x="327" y="-416" on="1"/>
        <pt x="321" y="-399" on="0"/>
        <pt x="340" y="-373" on="1"/>
        <pt x="372" y="-327" on="0"/>
        <pt x="392" y="-320" on="1"/>
        <pt x="438" y="-353" on="0"/>
        <pt x="480" y="-349" on="1"/>
        <pt x="557" y="-342" on="0"/>
        <pt x="557" y="-298" on="1"/>
        <pt x="557" y="-259" on="0"/>
        <pt x="512" y="-196" on="1"/>
        <pt x="504" y="-184" on="0"/>
        <pt x="504" y="-157" on="0"/>
        <pt x="528" y="-123" on="0"/>
        <pt x="548" y="-107" on="1"/>
        <pt x="587" y="-76" on="0"/>
        <pt x="647" y="-50" on="1"/>
        <pt x="410" y="-29" on="0"/>
        <pt x="265" y="112" on="1"/>
        <pt x="105" y="266" on="0"/>
        <pt x="105" y="530" on="1"/>
        <pt x="105" y="816" on="0"/>
        <pt x="340" y="1090" on="1"/>
        <pt x="563" y="1350" on="0"/>
        <pt x="880" y="1482" on="1"/>
        <pt x="1093" y="1572" on="0"/>
        <pt x="1285" y="1572" on="1"/>
        <pt x="1480" y="1572" on="0"/>
        <pt x="1550" y="1462" on="1"/>
        <pt x="1575" y="1424" on="0"/>
        <pt x="1575" y="1328" on="0"/>
        <pt x="1545" y="1259" on="0"/>
        <pt x="1522" y="1234" on="1"/>
        <pt x="1474" y="1182" on="0"/>
        <pt x="1431" y="1182" on="1"/>
        <pt x="1391" y="1182" on="0"/>
        <pt x="1310" y="1243" on="1"/>
        <pt x="1292" y="1257" on="0"/>
      </contour>
    </TTGlyph>
    <TTGlyph name="D" xMin="56" yMin="-28" xMax="1920" yMax="1588">
      <contour>
        <pt x="1091" y="1588" on="1"/>
        <pt x="1920" y="1588" on="0"/>
        <pt x="1920" y="981" on="1"/>
        <pt x="1920" y="745" on="0"/>
        <pt x="1782" y="514" on="1"/>
        <pt x="1639" y="276" on="0"/>
        <pt x="1399" y="131" on="1"/>
        <pt x="1137" y="-28" on="0"/>
        <pt x="821" y="-28" on="1"/>
        <pt x="545" y="-28" on="0"/>
        <pt x="334" y="104" on="1"/>
        <pt x="103" y="248" on="0"/>
        <pt x="57" y="503" on="1"/>
        <pt x="56" y="510" on="0"/>
        <pt x="56" y="528" on="0"/>
        <pt x="64" y="550" on="0"/>
        <pt x="75" y="560" on="1"/>
        <pt x="94" y="576" on="0"/>
        <pt x="133" y="585" on="1"/>
        <pt x="232" y="449" on="0"/>
        <pt x="414" y="381" on="1"/>
        <pt x="481" y="467" on="0"/>
        <pt x="703" y="784" on="0"/>
        <pt x="831" y="964" on="0"/>
        <pt x="894" y="1048" on="1"/>
        <pt x="1034" y="1234" on="0"/>
        <pt x="1135" y="1327" on="1"/>
        <pt x="1165" y="1357" on="0"/>
        <pt x="1226" y="1329" on="1"/>
        <pt x="1242" y="1322" on="0"/>
        <pt x="1252" y="1313" on="1"/>
        <pt x="1176" y="1235" on="0"/>
        <pt x="1013" y="950" on="0"/>
        <pt x="910" y="756" on="0"/>
        <pt x="860" y="661" on="1"/>
        <pt x="735" y="423" on="0"/>
        <pt x="673" y="326" on="1"/>
        <pt x="721" y="322" on="0"/>
        <pt x="882" y="322" on="0"/>
        <pt x="1102" y="390" on="0"/>
        <pt x="1302" y="507" on="0"/>
        <pt x="1474" y="663" on="0"/>
        <pt x="1537" y="752" on="1"/>
        <pt x="1672" y="941" on="0"/>
        <pt x="1672" y="1119" on="1"/>
        <pt x="1672" y="1482" on="0"/>
        <pt x="1068" y="1482" on="1"/>
        <pt x="868" y="1482" on="0"/>
        <pt x="698" y="1414" on="1"/>
        <pt x="502" y="1335" on="0"/>
        <pt x="502" y="1214" on="1"/>
        <pt x="502" y="1101" on="0"/>
        <pt x="586" y="1024" on="1"/>
        <pt x="495" y="927" on="0"/>
        <pt x="441" y="927" on="1"/>
        <pt x="381" y="927" on="0"/>
        <pt x="334" y="1004" on="1"/>
        <pt x="288" y="1080" on="0"/>
        <pt x="288" y="1249" on="0"/>
        <pt x="362" y="1370" on="0"/>
        <pt x="487" y="1463" on="0"/>
        <pt x="650" y="1528" on="0"/>
        <pt x="739" y="1548" on="1"/>
        <pt x="910" y="1588" on="0"/>
      </contour>
    </TTGlyph>
    <TTGlyph name="E" xMin="140" yMin="-27" xMax="1671" yMax="1559">
      <contour>
        <pt x="1224" y="435" on="1"/>
        <pt x="1273" y="390" on="0"/>
        <pt x="1273" y="372" on="1"/>
        <pt x="1273" y="290" on="0"/>
        <pt x="1185" y="196" on="1"/>
        <pt x="1044" y="44" on="0"/>
        <pt x="832" y="-9" on="1"/>
        <pt x="760" y="-27" on="0"/>
        <pt x="559" y="-27" on="0"/>
        <pt x="355" y="31" on="0"/>
        <pt x="284" y="84" on="1"/>
        <pt x="140" y="193" on="0"/>
        <pt x="140" y="374" on="1"/>
        <pt x="140" y="647" on="0"/>
        <pt x="376" y="822" on="1"/>
        <pt x="595" y="984" on="0"/>
        <pt x="890" y="994" on="1"/>
        <pt x="725" y="1099" on="0"/>
        <pt x="725" y="1241" on="1"/>
        <pt x="725" y="1380" on="0"/>
        <pt x="962" y="1474" on="1"/>
        <pt x="1179" y="1559" on="0"/>
        <pt x="1418" y="1559" on="1"/>
        <pt x="1593" y="1559" on="0"/>
        <pt x="1652" y="1457" on="1"/>
        <pt x="1671" y="1423" on="0"/>
        <pt x="1671" y="1345" on="0"/>
        <pt x="1650" y="1276" on="0"/>
        <pt x="1632" y="1248" on="1"/>
        <pt x="1590" y="1185" on="0"/>
        <pt x="1534" y="1185" on="1"/>
        <pt x="1499" y="1185" on="0"/>
        <pt x="1451" y="1225" on="1"/>
        <pt x="1439" y="1235" on="0"/>
        <pt x="1433" y="1242" on="1"/>
        <pt x="1477" y="1294" on="0"/>
        <pt x="1477" y="1366" on="1"/>
        <pt x="1477" y="1449" on="0"/>
        <pt x="1365" y="1449" on="1"/>
        <pt x="1237" y="1449" on="0"/>
        <pt x="1093" y="1404" on="1"/>
        <pt x="917" y="1348" on="0"/>
        <pt x="917" y="1263" on="1"/>
        <pt x="917" y="1129" on="0"/>
        <pt x="1164" y="1034" on="1"/>
        <pt x="1250" y="1001" on="0"/>
        <pt x="1364" y="977" on="1"/>
        <pt x="1326" y="832" on="0"/>
        <pt x="1302" y="803" on="0"/>
        <pt x="1297" y="805" on="1"/>
        <pt x="1154" y="854" on="0"/>
        <pt x="1010" y="854" on="1"/>
        <pt x="781" y="854" on="0"/>
        <pt x="642" y="740" on="1"/>
        <pt x="528" y="648" on="0"/>
        <pt x="528" y="515" on="1"/>
        <pt x="528" y="420" on="0"/>
        <pt x="614" y="360" on="1"/>
        <pt x="702" y="299" on="0"/>
        <pt x="846" y="299" on="1"/>
        <pt x="1038" y="299" on="0"/>
      </contour>
    </TTGlyph>
    <TTGlyph name="Eacute" xMin="140" yMin="-27" xMax="1720" yMax="1852">
      <component glyphName=".ttfautohint" x="140" y="0" flags="0x0"/>
      <component glyphName="E" x="0" y="0" flags="0x1004"/>
      <component glyphName="acute.cap" x="417" y="0" flags="0x1004"/>
    </TTGlyph>
    <TTGlyph name="Ecircumflex" xMin="140" yMin="-27" xMax="1754" yMax="1851">
      <component glyphName=".ttfautohint" x="140" y="0" flags="0x0"/>
      <component glyphName="E" x="0" y="0" flags="0x1004"/>
      <component glyphName="circumflex.cap" x="267" y="0" flags="0x1004"/>
    </TTGlyph>
    <TTGlyph name="Edieresis" xMin="140" yMin="-27" xMax="1831" yMax="1822">
      <component glyphName=".ttfautohint" x="140" y="0" flags="0x0"/>
      <component glyphName="E" x="0" y="0" flags="0x1004"/>
      <component glyphName="dieresis.cap" x="304" y="0" flags="0x1004"/>
    </TTGlyph>
    <TTGlyph name="Egrave" xMin="140" yMin="-27" xMax="1685" yMax="1852">
      <component glyphName=".ttfautohint" x="140" y="0" flags="0x0"/>
      <component glyphName="E" x="0" y="0" flags="0x1004"/>
      <component glyphName="grave.cap" x="402" y="0" flags="0x1004"/>
    </TTGlyph>
    <TTGlyph name="Eth" xMin="56" yMin="-28" xMax="1920" yMax="1588">
      <contour>
        <pt x="1091" y="1588" on="1"/>
        <pt x="1920" y="1588" on="0"/>
        <pt x="1920" y="981" on="1"/>
        <pt x="1920" y="745" on="0"/>
        <pt x="1782" y="514" on="1"/>
        <pt x="1639" y="276" on="0"/>
        <pt x="1399" y="131" on="1"/>
        <pt x="1137" y="-28" on="0"/>
        <pt x="821" y="-28" on="1"/>
        <pt x="545" y="-28" on="0"/>
        <pt x="334" y="104" on="1"/>
        <pt x="103" y="248" on="0"/>
        <pt x="57" y="503" on="1"/>
        <pt x="56" y="510" on="0"/>
        <pt x="56" y="528" on="0"/>
        <pt x="64" y="550" on="0"/>
        <pt x="75" y="560" on="1"/>
        <pt x="94" y="576" on="0"/>
        <pt x="133" y="585" on="1"/>
        <pt x="232" y="449" on="0"/>
        <pt x="414" y="381" on="1"/>
        <pt x="489" y="477" on="0"/>
        <pt x="594" y="627" on="1"/>
        <pt x="487" y="654" on="0"/>
        <pt x="487" y="760" on="1"/>
        <pt x="487" y="812" on="0"/>
        <pt x="514" y="858" on="1"/>
        <pt x="603" y="842" on="0"/>
        <pt x="740" y="836" on="1"/>
        <pt x="928" y="1101" on="0"/>
        <pt x="1090" y="1285" on="0"/>
        <pt x="1145" y="1337" on="0"/>
        <pt x="1177" y="1342" on="0"/>
        <pt x="1194" y="1339" on="1"/>
        <pt x="1230" y="1333" on="0"/>
        <pt x="1252" y="1313" on="1"/>
        <pt x="1141" y="1199" on="0"/>
        <pt x="950" y="831" on="1"/>
        <pt x="1129" y="833" on="0"/>
        <pt x="1252" y="853" on="0"/>
        <pt x="1267" y="839" on="0"/>
        <pt x="1267" y="805" on="0"/>
        <pt x="1232" y="765" on="0"/>
        <pt x="1171" y="729" on="0"/>
        <pt x="1090" y="697" on="0"/>
        <pt x="1044" y="683" on="1"/>
        <pt x="957" y="657" on="0"/>
        <pt x="849" y="639" on="1"/>
        <pt x="721" y="401" on="0"/>
        <pt x="673" y="326" on="1"/>
        <pt x="721" y="322" on="0"/>
        <pt x="882" y="322" on="0"/>
        <pt x="1102" y="390" on="0"/>
        <pt x="1302" y="507" on="0"/>
        <pt x="1474" y="663" on="0"/>
        <pt x="1537" y="752" on="1"/>
        <pt x="1672" y="941" on="0"/>
        <pt x="1672" y="1119" on="1"/>
        <pt x="1672" y="1482" on="0"/>
        <pt x="1068" y="1482" on="1"/>
        <pt x="868" y="1482" on="0"/>
        <pt x="698" y="1414" on="1"/>
        <pt x="502" y="1335" on="0"/>
        <pt x="502" y="1214" on="1"/>
        <pt x="502" y="1101" on="0"/>
        <pt x="586" y="1024" on="1"/>
        <pt x="495" y="927" on="0"/>
        <pt x="441" y="927" on="1"/>
        <pt x="381" y="927" on="0"/>
        <pt x="334" y="1004" on="1"/>
        <pt x="288" y="1080" on="0"/>
        <pt x="288" y="1249" on="0"/>
        <pt x="362" y="1370" on="0"/>
        <pt x="487" y="1463" on="0"/>
        <pt x="650" y="1528" on="0"/>
        <pt x="739" y="1548" on="1"/>
        <pt x="910" y="1588" on="0"/>
      </contour>
    </TTGlyph>
    <TTGlyph name="Euro" xMin="129" yMin="-6" xMax="1493" yMax="1378">
      <contour>
        <pt x="1097" y="437" on="1"/>
        <pt x="1138" y="396" on="0"/>
        <pt x="1138" y="344" on="1"/>
        <pt x="1138" y="283" on="0"/>
        <pt x="1040" y="181" on="1"/>
        <pt x="932" y="67" on="0"/>
        <pt x="782" y="18" on="1"/>
        <pt x="706" y="-6" on="0"/>
        <pt x="628" y="-6" on="1"/>
        <pt x="427" y="-6" on="0"/>
        <pt x="228" y="201" on="0"/>
        <pt x="228" y="387" on="1"/>
        <pt x="228" y="450" on="0"/>
        <pt x="249" y="524" on="1"/>
        <pt x="129" y="540" on="0"/>
        <pt x="129" y="635" on="1"/>
        <pt x="129" y="669" on="0"/>
        <pt x="143" y="716" on="1"/>
        <pt x="185" y="703" on="0"/>
        <pt x="316" y="694" on="1"/>
        <pt x="326" y="714" on="0"/>
        <pt x="348" y="754" on="0"/>
        <pt x="359" y="774" on="1"/>
        <pt x="211" y="782" on="0"/>
        <pt x="214" y="881" on="1"/>
        <pt x="215" y="914" on="0"/>
        <pt x="227" y="957" on="1"/>
        <pt x="288" y="939" on="0"/>
        <pt x="467" y="932" on="1"/>
        <pt x="705" y="1238" on="0"/>
        <pt x="990" y="1342" on="1"/>
        <pt x="1088" y="1378" on="0"/>
        <pt x="1256" y="1378" on="0"/>
        <pt x="1369" y="1344" on="0"/>
        <pt x="1409" y="1318" on="1"/>
        <pt x="1493" y="1263" on="0"/>
        <pt x="1493" y="1199" on="1"/>
        <pt x="1493" y="1138" on="0"/>
        <pt x="1439" y="1100" on="1"/>
        <pt x="1415" y="1083" on="0"/>
        <pt x="1385" y="1074" on="1"/>
        <pt x="1310" y="1267" on="0"/>
        <pt x="1164" y="1267" on="1"/>
        <pt x="1032" y="1267" on="0"/>
        <pt x="898" y="1167" on="1"/>
        <pt x="778" y="1077" on="0"/>
        <pt x="686" y="929" on="1"/>
        <pt x="969" y="934" on="0"/>
        <pt x="1100" y="955" on="1"/>
        <pt x="1104" y="939" on="0"/>
        <pt x="1104" y="921" on="1"/>
        <pt x="1104" y="871" on="0"/>
        <pt x="1050" y="847" on="1"/>
        <pt x="940" y="799" on="0"/>
        <pt x="608" y="779" on="1"/>
        <pt x="583" y="716" on="0"/>
        <pt x="576" y="688" on="1"/>
        <pt x="847" y="688" on="0"/>
        <pt x="1016" y="714" on="1"/>
        <pt x="1020" y="697" on="0"/>
        <pt x="1020" y="660" on="0"/>
        <pt x="998" y="605" on="0"/>
        <pt x="966" y="594" on="1"/>
        <pt x="820" y="542" on="0"/>
        <pt x="550" y="526" on="1"/>
        <pt x="550" y="523" on="1"/>
        <pt x="550" y="317" on="0"/>
        <pt x="767" y="317" on="1"/>
        <pt x="901" y="317" on="0"/>
        <pt x="1029" y="390" on="1"/>
        <pt x="1067" y="411" on="0"/>
      </contour>
    </TTGlyph>
    <TTGlyph name="F" xMin="56" yMin="-59" xMax="1634" yMax="1570">
      <contour>
        <pt x="1396" y="1417" on="0"/>
        <pt x="1442" y="1327" on="0"/>
        <pt x="1442" y="1170" on="0"/>
        <pt x="1397" y="1023" on="1"/>
        <pt x="1511" y="1006" on="0"/>
        <pt x="1605" y="975" on="1"/>
        <pt x="1634" y="965" on="0"/>
        <pt x="1634" y="909" on="1"/>
        <pt x="1634" y="897" on="0"/>
        <pt x="1632" y="883" on="1"/>
        <pt x="1499" y="906" on="0"/>
        <pt x="1357" y="909" on="1"/>
        <pt x="1221" y="550" on="0"/>
        <pt x="984" y="266" on="1"/>
        <pt x="814" y="64" on="0"/>
        <pt x="635" y="-17" on="1"/>
        <pt x="542" y="-59" on="0"/>
        <pt x="387" y="-59" on="0"/>
        <pt x="299" y="-10" on="0"/>
        <pt x="270" y="30" on="1"/>
        <pt x="215" y="109" on="0"/>
        <pt x="215" y="300" on="0"/>
        <pt x="255" y="438" on="0"/>
        <pt x="283" y="496" on="1"/>
        <pt x="336" y="605" on="0"/>
        <pt x="395" y="659" on="1"/>
        <pt x="431" y="692" on="0"/>
        <pt x="497" y="651" on="1"/>
        <pt x="471" y="580" on="0"/>
        <pt x="471" y="523" on="1"/>
        <pt x="471" y="358" on="0"/>
        <pt x="567" y="358" on="1"/>
        <pt x="736" y="358" on="0"/>
        <pt x="964" y="645" on="1"/>
        <pt x="1053" y="758" on="0"/>
        <pt x="1135" y="902" on="1"/>
        <pt x="915" y="883" on="0"/>
        <pt x="812" y="828" on="1"/>
        <pt x="779" y="810" on="0"/>
        <pt x="765" y="789" on="1"/>
        <pt x="702" y="835" on="0"/>
        <pt x="702" y="925" on="0"/>
        <pt x="753" y="960" on="1"/>
        <pt x="870" y="1041" on="0"/>
        <pt x="1171" y="1041" on="1"/>
        <pt x="1188" y="1041" on="1"/>
        <pt x="1197" y="1041" on="0"/>
        <pt x="1205" y="1040" on="1"/>
        <pt x="1277" y="1195" on="0"/>
        <pt x="1277" y="1322" on="0"/>
        <pt x="1206" y="1391" on="0"/>
        <pt x="1148" y="1414" on="1"/>
        <pt x="1036" y="1457" on="0"/>
        <pt x="871" y="1457" on="1"/>
        <pt x="687" y="1457" on="0"/>
        <pt x="506" y="1406" on="1"/>
        <pt x="296" y="1347" on="0"/>
        <pt x="296" y="1252" on="1"/>
        <pt x="296" y="1198" on="0"/>
        <pt x="335" y="1127" on="1"/>
        <pt x="275" y="1064" on="0"/>
        <pt x="184" y="1064" on="1"/>
        <pt x="139" y="1064" on="0"/>
        <pt x="96" y="1136" on="1"/>
        <pt x="56" y="1203" on="0"/>
        <pt x="56" y="1310" on="0"/>
        <pt x="135" y="1404" on="0"/>
        <pt x="265" y="1475" on="0"/>
        <pt x="434" y="1525" on="0"/>
        <pt x="525" y="1540" on="1"/>
        <pt x="698" y="1570" on="0"/>
        <pt x="940" y="1570" on="0"/>
        <pt x="1079" y="1557" on="0"/>
        <pt x="1206" y="1529" on="0"/>
        <pt x="1315" y="1483" on="0"/>
      </contour>
    </TTGlyph>
    <TTGlyph name="G" xMin="128" yMin="-35" xMax="1780" yMax="1584">
      <contour>
        <pt x="1658" y="897" on="1"/>
        <pt x="1668" y="845" on="0"/>
        <pt x="1668" y="686" on="0"/>
        <pt x="1593" y="487" on="0"/>
        <pt x="1460" y="304" on="0"/>
        <pt x="1279" y="147" on="0"/>
        <pt x="1174" y="89" on="1"/>
        <pt x="948" y="-35" on="0"/>
        <pt x="718" y="-35" on="1"/>
        <pt x="296" y="-35" on="0"/>
        <pt x="170" y="261" on="1"/>
        <pt x="128" y="360" on="0"/>
        <pt x="128" y="588" on="0"/>
        <pt x="189" y="785" on="0"/>
        <pt x="300" y="974" on="0"/>
        <pt x="452" y="1152" on="0"/>
        <pt x="635" y="1309" on="0"/>
        <pt x="842" y="1439" on="0"/>
        <pt x="951" y="1486" on="1"/>
        <pt x="1182" y="1584" on="0"/>
        <pt x="1391" y="1584" on="1"/>
        <pt x="1773" y="1584" on="0"/>
        <pt x="1773" y="1405" on="1"/>
        <pt x="1773" y="1354" on="0"/>
        <pt x="1697" y="1296" on="1"/>
        <pt x="1613" y="1412" on="0"/>
        <pt x="1464" y="1458" on="1"/>
        <pt x="1413" y="1473" on="0"/>
        <pt x="1265" y="1473" on="0"/>
        <pt x="1071" y="1413" on="0"/>
        <pt x="889" y="1307" on="0"/>
        <pt x="729" y="1160" on="0"/>
        <pt x="670" y="1072" on="1"/>
        <pt x="541" y="884" on="0"/>
        <pt x="541" y="502" on="0"/>
        <pt x="730" y="309" on="0"/>
        <pt x="906" y="309" on="1"/>
        <pt x="1032" y="309" on="0"/>
        <pt x="1170" y="372" on="1"/>
        <pt x="1397" y="477" on="0"/>
        <pt x="1482" y="667" on="1"/>
        <pt x="1512" y="733" on="0"/>
        <pt x="1516" y="807" on="1"/>
        <pt x="1297" y="692" on="0"/>
        <pt x="1105" y="692" on="1"/>
        <pt x="914" y="692" on="0"/>
        <pt x="846" y="786" on="1"/>
        <pt x="822" y="819" on="0"/>
        <pt x="822" y="899" on="0"/>
        <pt x="879" y="963" on="0"/>
        <pt x="974" y="1017" on="0"/>
        <pt x="1094" y="1059" on="0"/>
        <pt x="1158" y="1074" on="1"/>
        <pt x="1289" y="1105" on="0"/>
        <pt x="1392" y="1105" on="1"/>
        <pt x="1554" y="1105" on="0"/>
        <pt x="1620" y="998" on="1"/>
        <pt x="1675" y="1036" on="0"/>
        <pt x="1734" y="1089" on="1"/>
        <pt x="1780" y="1050" on="0"/>
        <pt x="1780" y="1020" on="1"/>
        <pt x="1780" y="1010" on="0"/>
        <pt x="1723" y="945" on="0"/>
      </contour>
      <contour>
        <pt x="1503" y="925" on="1"/>
        <pt x="1475" y="996" on="0"/>
        <pt x="1380" y="996" on="1"/>
        <pt x="1232" y="996" on="0"/>
        <pt x="1105" y="946" on="1"/>
        <pt x="1043" y="922" on="0"/>
        <pt x="1043" y="895" on="1"/>
        <pt x="1043" y="837" on="0"/>
        <pt x="1181" y="837" on="1"/>
        <pt x="1334" y="837" on="0"/>
      </contour>
    </TTGlyph>
    <TTGlyph name="H" xMin="51" yMin="-86" xMax="2136" yMax="1590">
      <contour>
        <pt x="1354" y="202" on="1"/>
        <pt x="1355" y="415" on="0"/>
        <pt x="1504" y="760" on="1"/>
        <pt x="1404" y="787" on="0"/>
        <pt x="1215" y="853" on="0"/>
        <pt x="1122" y="881" on="1"/>
        <pt x="918" y="308" on="0"/>
        <pt x="654" y="62" on="1"/>
        <pt x="495" y="-86" on="0"/>
        <pt x="332" y="-86" on="1"/>
        <pt x="121" y="-86" on="0"/>
        <pt x="68" y="128" on="1"/>
        <pt x="51" y="193" on="0"/>
        <pt x="51" y="356" on="0"/>
        <pt x="98" y="538" on="0"/>
        <pt x="187" y="711" on="0"/>
        <pt x="316" y="867" on="0"/>
        <pt x="398" y="926" on="1"/>
        <pt x="578" y="1053" on="0"/>
        <pt x="793" y="1053" on="1"/>
        <pt x="888" y="1053" on="0"/>
        <pt x="1013" y="1025" on="1"/>
        <pt x="1163" y="1357" on="0"/>
        <pt x="1183" y="1581" on="1"/>
        <pt x="1243" y="1581" on="0"/>
        <pt x="1272" y="1553" on="1"/>
        <pt x="1295" y="1531" on="0"/>
        <pt x="1244" y="1302" on="1"/>
        <pt x="1214" y="1164" on="0"/>
        <pt x="1158" y="988" on="1"/>
        <pt x="1454" y="907" on="0"/>
        <pt x="1562" y="887" on="1"/>
        <pt x="1712" y="1199" on="0"/>
        <pt x="1886" y="1452" on="1"/>
        <pt x="1936" y="1525" on="0"/>
        <pt x="1976" y="1575" on="1"/>
        <pt x="1989" y="1590" on="0"/>
        <pt x="2022" y="1590" on="0"/>
        <pt x="2037" y="1584" on="1"/>
        <pt x="2063" y="1575" on="0"/>
        <pt x="2093" y="1551" on="1"/>
        <pt x="1986" y="1417" on="0"/>
        <pt x="1842" y="1064" on="1"/>
        <pt x="1799" y="961" on="0"/>
        <pt x="1765" y="862" on="1"/>
        <pt x="1803" y="860" on="0"/>
        <pt x="1879" y="860" on="0"/>
        <pt x="1918" y="863" on="1"/>
        <pt x="1912" y="782" on="0"/>
        <pt x="1876" y="736" on="1"/>
        <pt x="1857" y="713" on="0"/>
        <pt x="1770" y="713" on="0"/>
        <pt x="1719" y="719" on="1"/>
        <pt x="1677" y="574" on="0"/>
        <pt x="1677" y="465" on="0"/>
        <pt x="1684" y="400" on="0"/>
        <pt x="1696" y="374" on="1"/>
        <pt x="1721" y="317" on="0"/>
        <pt x="1783" y="317" on="1"/>
        <pt x="1896" y="317" on="0"/>
        <pt x="2020" y="448" on="1"/>
        <pt x="2059" y="488" on="0"/>
        <pt x="2091" y="536" on="1"/>
        <pt x="2136" y="539" on="0"/>
        <pt x="2136" y="499" on="1"/>
        <pt x="2136" y="458" on="0"/>
        <pt x="2037" y="302" on="0"/>
        <pt x="1947" y="190" on="0"/>
        <pt x="1843" y="86" on="0"/>
        <pt x="1789" y="46" on="1"/>
        <pt x="1671" y="-43" on="0"/>
        <pt x="1586" y="-43" on="1"/>
        <pt x="1354" y="-43" on="0"/>
      </contour>
      <contour>
        <pt x="319" y="530" on="1"/>
        <pt x="319" y="331" on="0"/>
        <pt x="452" y="331" on="1"/>
        <pt x="590" y="331" on="0"/>
        <pt x="794" y="628" on="1"/>
        <pt x="885" y="761" on="0"/>
        <pt x="964" y="921" on="1"/>
        <pt x="888" y="937" on="0"/>
        <pt x="685" y="937" on="0"/>
        <pt x="499" y="862" on="0"/>
        <pt x="438" y="804" on="1"/>
        <pt x="319" y="689" on="0"/>
      </contour>
    </TTGlyph>
    <TTGlyph name="I" xMin="61" yMin="-50" xMax="1288" yMax="1557">
      <contour>
        <pt x="604" y="1334" on="0"/>
        <pt x="569" y="1278" on="0"/>
        <pt x="569" y="1199" on="0"/>
        <pt x="608" y="1121" on="1"/>
        <pt x="575" y="1084" on="0"/>
        <pt x="492" y="1060" on="1"/>
        <pt x="470" y="1054" on="0"/>
        <pt x="429" y="1054" on="0"/>
        <pt x="383" y="1096" on="0"/>
        <pt x="365" y="1126" on="1"/>
        <pt x="325" y="1193" on="0"/>
        <pt x="325" y="1288" on="0"/>
        <pt x="388" y="1373" on="0"/>
        <pt x="493" y="1444" on="0"/>
        <pt x="628" y="1499" on="0"/>
        <pt x="700" y="1518" on="1"/>
        <pt x="849" y="1557" on="0"/>
        <pt x="992" y="1557" on="1"/>
        <pt x="1288" y="1557" on="0"/>
        <pt x="1288" y="1260" on="1"/>
        <pt x="1288" y="1007" on="0"/>
        <pt x="1122" y="656" on="1"/>
        <pt x="949" y="290" on="0"/>
        <pt x="720" y="94" on="1"/>
        <pt x="551" y="-50" on="0"/>
        <pt x="392" y="-50" on="1"/>
        <pt x="232" y="-50" on="0"/>
        <pt x="143" y="54" on="1"/>
        <pt x="61" y="150" on="0"/>
        <pt x="61" y="307" on="1"/>
        <pt x="61" y="445" on="0"/>
        <pt x="174" y="592" on="1"/>
        <pt x="240" y="678" on="0"/>
        <pt x="319" y="690" on="0"/>
        <pt x="350" y="681" on="1"/>
        <pt x="324" y="610" on="0"/>
        <pt x="324" y="521" on="0"/>
        <pt x="346" y="450" on="0"/>
        <pt x="368" y="424" on="1"/>
        <pt x="416" y="367" on="0"/>
        <pt x="576" y="367" on="0"/>
        <pt x="719" y="462" on="0"/>
        <pt x="859" y="617" on="0"/>
        <pt x="987" y="813" on="0"/>
        <pt x="1036" y="914" on="1"/>
        <pt x="1143" y="1135" on="0"/>
        <pt x="1143" y="1276" on="1"/>
        <pt x="1143" y="1406" on="0"/>
        <pt x="1019" y="1428" on="1"/>
        <pt x="980" y="1435" on="0"/>
        <pt x="897" y="1435" on="0"/>
        <pt x="817" y="1426" on="0"/>
        <pt x="736" y="1406" on="0"/>
        <pt x="661" y="1376" on="0"/>
      </contour>
    </TTGlyph>
    <TTGlyph name="IJ" xMin="61" yMin="-439" xMax="2477" yMax="1557">
      <component glyphName=".ttfautohint" x="61" y="0" flags="0x0"/>
      <component glyphName="I" x="0" y="0" flags="0x1004"/>
      <component glyphName="J" x="1189" y="0" flags="0x1004"/>
    </TTGlyph>
    <TTGlyph name="Iacute" xMin="61" yMin="-50" xMax="1288" yMax="1852">
      <component glyphName=".ttfautohint" x="61" y="0" flags="0x0"/>
      <component glyphName="I" x="0" y="0" flags="0x1004"/>
      <component glyphName="acute.cap" x="-41" y="0" flags="0x1004"/>
    </TTGlyph>
    <TTGlyph name="Icircumflex" xMin="61" yMin="-50" xMax="1325" yMax="1851">
      <component glyphName=".ttfautohint" x="61" y="0" flags="0x0"/>
      <component glyphName="I" x="0" y="0" flags="0x1004"/>
      <component glyphName="circumflex.cap" x="-162" y="0" flags="0x1004"/>
    </TTGlyph>
    <TTGlyph name="Idieresis" xMin="61" yMin="-50" xMax="1349" yMax="1822">
      <component glyphName=".ttfautohint" x="61" y="0" flags="0x0"/>
      <component glyphName="I" x="0" y="0" flags="0x1004"/>
      <component glyphName="dieresis.cap" x="-178" y="0" flags="0x1004"/>
    </TTGlyph>
    <TTGlyph name="Igrave" xMin="61" yMin="-50" xMax="1288" yMax="1852">
      <component glyphName=".ttfautohint" x="61" y="0" flags="0x0"/>
      <component glyphName="I" x="0" y="0" flags="0x1004"/>
      <component glyphName="grave.cap" x="-42" y="0" flags="0x1004"/>
    </TTGlyph>
    <TTGlyph name="Itilde" xMin="61" yMin="-50" xMax="1373" yMax="1852">
      <component glyphName=".ttfautohint" x="61" y="0" flags="0x0"/>
      <component glyphName="I" x="0" y="0" flags="0x1004"/>
      <component glyphName="tilde.cap" x="-29" y="0" flags="0x1004"/>
    </TTGlyph>
    <TTGlyph name="J" xMin="2" yMin="-439" xMax="1288" yMax="1557">
      <contour>
        <pt x="528" y="1214" on="1"/>
        <pt x="528" y="1170" on="0"/>
        <pt x="567" y="1099" on="1"/>
        <pt x="528" y="1055" on="0"/>
        <pt x="475" y="1055" on="1"/>
        <pt x="429" y="1055" on="0"/>
        <pt x="364" y="1113" on="1"/>
        <pt x="303" y="1169" on="0"/>
        <pt x="303" y="1261" on="0"/>
        <pt x="365" y="1350" on="0"/>
        <pt x="468" y="1427" on="0"/>
        <pt x="605" y="1489" on="0"/>
        <pt x="680" y="1511" on="1"/>
        <pt x="835" y="1557" on="0"/>
        <pt x="1068" y="1557" on="0"/>
        <pt x="1188" y="1521" on="0"/>
        <pt x="1224" y="1484" on="1"/>
        <pt x="1288" y="1415" on="0"/>
        <pt x="1288" y="1123" on="0"/>
        <pt x="1240" y="850" on="0"/>
        <pt x="1154" y="567" on="0"/>
        <pt x="1034" y="287" on="0"/>
        <pt x="889" y="32" on="0"/>
        <pt x="724" y="-187" on="0"/>
        <pt x="636" y="-267" on="1"/>
        <pt x="447" y="-439" on="0"/>
        <pt x="277" y="-439" on="1"/>
        <pt x="158" y="-439" on="0"/>
        <pt x="80" y="-364" on="1"/>
        <pt x="2" y="-291" on="0"/>
        <pt x="2" y="-106" on="0"/>
        <pt x="65" y="48" on="0"/>
        <pt x="178" y="187" on="0"/>
        <pt x="333" y="306" on="0"/>
        <pt x="424" y="351" on="1"/>
        <pt x="618" y="446" on="0"/>
        <pt x="827" y="460" on="1"/>
        <pt x="1039" y="778" on="0"/>
        <pt x="1111" y="1070" on="1"/>
        <pt x="1136" y="1171" on="0"/>
        <pt x="1136" y="1357" on="0"/>
        <pt x="1048" y="1439" on="0"/>
        <pt x="952" y="1439" on="1"/>
        <pt x="825" y="1439" on="0"/>
        <pt x="688" y="1384" on="1"/>
        <pt x="528" y="1318" on="0"/>
      </contour>
      <contour>
        <pt x="346" y="76" on="1"/>
        <pt x="346" y="31" on="0"/>
        <pt x="387" y="31" on="1"/>
        <pt x="474" y="31" on="0"/>
        <pt x="635" y="210" on="1"/>
        <pt x="685" y="265" on="0"/>
        <pt x="736" y="332" on="1"/>
        <pt x="557" y="300" on="0"/>
        <pt x="448" y="222" on="1"/>
        <pt x="346" y="150" on="0"/>
      </contour>
    </TTGlyph>
    <TTGlyph name="Jcircumflex" xMin="2" yMin="-439" xMax="1321" yMax="1851">
      <component glyphName=".ttfautohint" x="2" y="0" flags="0x0"/>
      <component glyphName="J" x="0" y="0" flags="0x1004"/>
      <component glyphName="circumflex.cap" x="-166" y="0" flags="0x1004"/>
    </TTGlyph>
    <TTGlyph name="K" xMin="10" yMin="-32" xMax="1865" yMax="1575">
      <contour>
        <pt x="1693" y="1567" on="1"/>
        <pt x="1832" y="1544" on="0"/>
        <pt x="1832" y="1479" on="1"/>
        <pt x="1832" y="1368" on="0"/>
        <pt x="1430" y="1110" on="1"/>
        <pt x="1268" y="1006" on="0"/>
        <pt x="1080" y="907" on="1"/>
        <pt x="1116" y="871" on="0"/>
        <pt x="1173" y="717" on="0"/>
        <pt x="1206" y="615" on="0"/>
        <pt x="1246" y="515" on="0"/>
        <pt x="1294" y="425" on="0"/>
        <pt x="1326" y="390" on="1"/>
        <pt x="1396" y="315" on="0"/>
        <pt x="1492" y="315" on="1"/>
        <pt x="1567" y="315" on="0"/>
        <pt x="1666" y="383" on="1"/>
        <pt x="1762" y="449" on="0"/>
        <pt x="1820" y="536" on="1"/>
        <pt x="1865" y="539" on="0"/>
        <pt x="1865" y="499" on="1"/>
        <pt x="1865" y="453" on="0"/>
        <pt x="1752" y="275" on="0"/>
        <pt x="1655" y="166" on="0"/>
        <pt x="1542" y="74" on="0"/>
        <pt x="1480" y="40" on="1"/>
        <pt x="1346" y="-31" on="0"/>
        <pt x="1119" y="-31" on="0"/>
        <pt x="986" y="21" on="0"/>
        <pt x="896" y="110" on="0"/>
        <pt x="844" y="227" on="0"/>
        <pt x="814" y="356" on="0"/>
        <pt x="800" y="491" on="0"/>
        <pt x="794" y="552" on="1"/>
        <pt x="778" y="701" on="0"/>
        <pt x="750" y="752" on="1"/>
        <pt x="700" y="732" on="0"/>
        <pt x="663" y="722" on="1"/>
        <pt x="628" y="624" on="0"/>
        <pt x="561" y="436" on="0"/>
        <pt x="497" y="269" on="0"/>
        <pt x="436" y="127" on="0"/>
        <pt x="407" y="76" on="1"/>
        <pt x="346" y="-32" on="0"/>
        <pt x="298" y="-32" on="1"/>
        <pt x="190" y="-32" on="0"/>
        <pt x="60" y="14" on="1"/>
        <pt x="25" y="26" on="0"/>
        <pt x="10" y="38" on="1"/>
        <pt x="74" y="95" on="0"/>
        <pt x="266" y="427" on="0"/>
        <pt x="398" y="671" on="0"/>
        <pt x="532" y="923" on="0"/>
        <pt x="663" y="1167" on="0"/>
        <pt x="720" y="1268" on="1"/>
        <pt x="849" y="1495" on="0"/>
        <pt x="905" y="1546" on="1"/>
        <pt x="937" y="1575" on="0"/>
        <pt x="996" y="1546" on="1"/>
        <pt x="1012" y="1538" on="0"/>
        <pt x="1026" y="1526" on="1"/>
        <pt x="912" y="1371" on="0"/>
        <pt x="753" y="965" on="1"/>
        <pt x="1086" y="1053" on="0"/>
        <pt x="1376" y="1238" on="1"/>
        <pt x="1552" y="1350" on="0"/>
        <pt x="1638" y="1462" on="1"/>
        <pt x="1681" y="1517" on="0"/>
      </contour>
    </TTGlyph>
    <TTGlyph name="Kcommaaccent" xMin="10" yMin="-500" xMax="1865" yMax="1575">
      <component glyphName=".ttfautohint" x="10" y="0" flags="0x0"/>
      <component glyphName="K" x="0" y="0" flags="0x1204"/>
      <component glyphName="commaaccent" x="355" y="0" flags="0x1004"/>
    </TTGlyph>
    <TTGlyph name="L" xMin="-35" yMin="-227" xMax="1651" yMax="1577">
      <contour>
        <pt x="258" y="39" on="1"/>
        <pt x="158" y="14" on="0"/>
        <pt x="79" y="14" on="0"/>
        <pt x="29" y="39" on="0"/>
        <pt x="9" y="60" on="1"/>
        <pt x="-35" y="106" on="0"/>
        <pt x="-35" y="199" on="0"/>
        <pt x="3" y="265" on="0"/>
        <pt x="34" y="290" on="1"/>
        <pt x="103" y="344" on="0"/>
        <pt x="231" y="344" on="0"/>
        <pt x="275" y="338" on="1"/>
        <pt x="402" y="425" on="0"/>
        <pt x="534" y="646" on="1"/>
        <pt x="591" y="743" on="0"/>
        <pt x="701" y="956" on="0"/>
        <pt x="816" y="1163" on="0"/>
        <pt x="940" y="1350" on="0"/>
        <pt x="1012" y="1422" on="1"/>
        <pt x="1169" y="1577" on="0"/>
        <pt x="1356" y="1577" on="1"/>
        <pt x="1504" y="1577" on="0"/>
        <pt x="1582" y="1492" on="1"/>
        <pt x="1651" y="1416" on="0"/>
        <pt x="1651" y="1293" on="1"/>
        <pt x="1651" y="1098" on="0"/>
        <pt x="1500" y="928" on="1"/>
        <pt x="1407" y="825" on="0"/>
        <pt x="1304" y="783" on="1"/>
        <pt x="1251" y="762" on="0"/>
        <pt x="1161" y="762" on="0"/>
        <pt x="1132" y="784" on="1"/>
        <pt x="1067" y="835" on="0"/>
        <pt x="1067" y="925" on="1"/>
        <pt x="1067" y="952" on="0"/>
        <pt x="1076" y="973" on="1"/>
        <pt x="1099" y="970" on="0"/>
        <pt x="1152" y="970" on="0"/>
        <pt x="1234" y="986" on="0"/>
        <pt x="1331" y="1032" on="0"/>
        <pt x="1415" y="1100" on="0"/>
        <pt x="1446" y="1141" on="1"/>
        <pt x="1512" y="1228" on="0"/>
        <pt x="1512" y="1315" on="1"/>
        <pt x="1512" y="1418" on="0"/>
        <pt x="1432" y="1458" on="1"/>
        <pt x="1405" y="1472" on="0"/>
        <pt x="1299" y="1472" on="0"/>
        <pt x="1185" y="1406" on="0"/>
        <pt x="1090" y="1293" on="0"/>
        <pt x="1011" y="1141" on="0"/>
        <pt x="942" y="970" on="0"/>
        <pt x="879" y="788" on="0"/>
        <pt x="818" y="614" on="0"/>
        <pt x="755" y="458" on="0"/>
        <pt x="720" y="398" on="1"/>
        <pt x="642" y="266" on="0"/>
        <pt x="551" y="255" on="1"/>
        <pt x="828" y="163" on="0"/>
        <pt x="1064" y="130" on="1"/>
        <pt x="1114" y="123" on="0"/>
        <pt x="1188" y="123" on="0"/>
        <pt x="1258" y="137" on="0"/>
        <pt x="1288" y="152" on="1"/>
        <pt x="1356" y="185" on="0"/>
        <pt x="1382" y="241" on="1"/>
        <pt x="1452" y="236" on="0"/>
        <pt x="1452" y="137" on="0"/>
        <pt x="1422" y="36" on="0"/>
        <pt x="1369" y="-56" on="0"/>
        <pt x="1296" y="-136" on="0"/>
        <pt x="1252" y="-165" on="1"/>
        <pt x="1160" y="-227" on="0"/>
        <pt x="971" y="-227" on="0"/>
        <pt x="822" y="-191" on="0"/>
        <pt x="691" y="-136" on="0"/>
        <pt x="571" y="-70" on="0"/>
        <pt x="512" y="-40" on="1"/>
        <pt x="371" y="29" on="0"/>
      </contour>
    </TTGlyph>
    <TTGlyph name="Ldot" xMin="-35" yMin="-227" xMax="1780" yMax="1577">
      <component glyphName=".ttfautohint" x="0" y="0" flags="0x0"/>
      <component glyphName="L" x="0" y="0" flags="0x1204"/>
      <component glyphName="periodcentered" x="1023" y="99" flags="0x1004"/>
    </TTGlyph>
    <TTGlyph name="Lslash" xMin="-35" yMin="-227" xMax="1592" yMax="1577">
      <contour>
        <pt x="258" y="19" on="1"/>
        <pt x="158" y="-6" on="0"/>
        <pt x="79" y="-6" on="0"/>
        <pt x="29" y="19" on="0"/>
        <pt x="9" y="40" on="1"/>
        <pt x="-35" y="86" on="0"/>
        <pt x="-35" y="179" on="0"/>
        <pt x="3" y="245" on="0"/>
        <pt x="34" y="270" on="1"/>
        <pt x="103" y="324" on="0"/>
        <pt x="231" y="324" on="0"/>
        <pt x="275" y="318" on="1"/>
        <pt x="356" y="374" on="0"/>
        <pt x="490" y="554" on="0"/>
        <pt x="553" y="663" on="1"/>
        <pt x="406" y="656" on="0"/>
        <pt x="310" y="630" on="0"/>
        <pt x="271" y="596" on="0"/>
        <pt x="271" y="546" on="0"/>
        <pt x="279" y="495" on="1"/>
        <pt x="237" y="460" on="0"/>
        <pt x="177" y="488" on="1"/>
        <pt x="111" y="518" on="0"/>
        <pt x="111" y="601" on="1"/>
        <pt x="111" y="748" on="0"/>
        <pt x="433" y="789" on="1"/>
        <pt x="528" y="801" on="0"/>
        <pt x="633" y="810" on="1"/>
        <pt x="681" y="901" on="0"/>
        <pt x="776" y="1085" on="0"/>
        <pt x="878" y="1255" on="0"/>
        <pt x="991" y="1404" on="0"/>
        <pt x="1056" y="1459" on="1"/>
        <pt x="1194" y="1577" on="0"/>
        <pt x="1356" y="1577" on="1"/>
        <pt x="1533" y="1577" on="0"/>
        <pt x="1578" y="1420" on="1"/>
        <pt x="1592" y="1373" on="0"/>
        <pt x="1592" y="1257" on="0"/>
        <pt x="1552" y="1137" on="0"/>
        <pt x="1520" y="1089" on="1"/>
        <pt x="1450" y="982" on="0"/>
        <pt x="1378" y="982" on="1"/>
        <pt x="1314" y="982" on="0"/>
        <pt x="1259" y="1079" on="1"/>
        <pt x="1403" y="1180" on="0"/>
        <pt x="1422" y="1322" on="1"/>
        <pt x="1425" y="1337" on="0"/>
        <pt x="1425" y="1374" on="0"/>
        <pt x="1410" y="1423" on="0"/>
        <pt x="1367" y="1460" on="0"/>
        <pt x="1279" y="1460" on="0"/>
        <pt x="1187" y="1410" on="0"/>
        <pt x="1107" y="1322" on="0"/>
        <pt x="1039" y="1201" on="0"/>
        <pt x="1008" y="1131" on="1"/>
        <pt x="964" y="1028" on="0"/>
        <pt x="897" y="828" on="1"/>
        <pt x="1156" y="845" on="0"/>
        <pt x="1218" y="875" on="1"/>
        <pt x="1218" y="866" on="0"/>
        <pt x="1225" y="835" on="0"/>
        <pt x="1230" y="797" on="0"/>
        <pt x="1231" y="758" on="0"/>
        <pt x="1226" y="740" on="1"/>
        <pt x="1215" y="701" on="0"/>
        <pt x="1164" y="690" on="1"/>
        <pt x="1084" y="673" on="0"/>
        <pt x="844" y="670" on="1"/>
        <pt x="771" y="464" on="0"/>
        <pt x="681" y="315" on="0"/>
        <pt x="600" y="241" on="0"/>
        <pt x="551" y="235" on="1"/>
        <pt x="777" y="160" on="0"/>
        <pt x="1064" y="128" on="1"/>
        <pt x="1114" y="123" on="0"/>
        <pt x="1188" y="123" on="0"/>
        <pt x="1258" y="137" on="0"/>
        <pt x="1288" y="152" on="1"/>
        <pt x="1356" y="185" on="0"/>
        <pt x="1382" y="241" on="1"/>
        <pt x="1452" y="236" on="0"/>
        <pt x="1452" y="137" on="0"/>
        <pt x="1422" y="36" on="0"/>
        <pt x="1369" y="-56" on="0"/>
        <pt x="1296" y="-136" on="0"/>
        <pt x="1252" y="-165" on="1"/>
        <pt x="1160" y="-227" on="0"/>
        <pt x="971" y="-227" on="0"/>
        <pt x="822" y="-194" on="0"/>
        <pt x="691" y="-143" on="0"/>
        <pt x="571" y="-82" on="0"/>
        <pt x="512" y="-55" on="1"/>
        <pt x="369" y="9" on="0"/>
      </contour>
    </TTGlyph>
    <TTGlyph name="M" xMin="-65" yMin="-41" xMax="2477" yMax="1593">
      <contour>
        <pt x="1152" y="1379" on="1"/>
        <pt x="1078" y="1453" on="0"/>
        <pt x="958" y="1453" on="1"/>
        <pt x="788" y="1453" on="0"/>
        <pt x="658" y="1358" on="1"/>
        <pt x="520" y="1259" on="0"/>
        <pt x="520" y="1118" on="1"/>
        <pt x="520" y="1008" on="0"/>
        <pt x="623" y="910" on="1"/>
        <pt x="585" y="858" on="0"/>
        <pt x="504" y="822" on="1"/>
        <pt x="482" y="812" on="0"/>
        <pt x="436" y="812" on="0"/>
        <pt x="377" y="840" on="0"/>
        <pt x="354" y="866" on="1"/>
        <pt x="302" y="925" on="0"/>
        <pt x="302" y="1089" on="0"/>
        <pt x="360" y="1229" on="0"/>
        <pt x="460" y="1350" on="0"/>
        <pt x="593" y="1448" on="0"/>
        <pt x="668" y="1484" on="1"/>
        <pt x="825" y="1557" on="0"/>
        <pt x="1124" y="1557" on="0"/>
        <pt x="1224" y="1503" on="1"/>
        <pt x="1456" y="1378" on="0"/>
        <pt x="1456" y="939" on="1"/>
        <pt x="1456" y="806" on="0"/>
        <pt x="1435" y="643" on="1"/>
        <pt x="1605" y="836" on="0"/>
        <pt x="2094" y="1238" on="1"/>
        <pt x="2161" y="1292" on="0"/>
        <pt x="2219" y="1342" on="1"/>
        <pt x="2273" y="1479" on="0"/>
        <pt x="2308" y="1522" on="1"/>
        <pt x="2365" y="1593" on="0"/>
        <pt x="2447" y="1593" on="0"/>
        <pt x="2477" y="1552" on="0"/>
        <pt x="2477" y="1515" on="0"/>
        <pt x="2456" y="1475" on="0"/>
        <pt x="2440" y="1452" on="1"/>
        <pt x="2407" y="1406" on="0"/>
        <pt x="2368" y="1363" on="1"/>
        <pt x="2269" y="826" on="0"/>
        <pt x="2269" y="280" on="1"/>
        <pt x="2269" y="85" on="0"/>
        <pt x="2108" y="14" on="1"/>
        <pt x="2035" y="-18" on="0"/>
        <pt x="1950" y="-18" on="1"/>
        <pt x="1822" y="-18" on="0"/>
        <pt x="1730" y="43" on="1"/>
        <pt x="1694" y="67" on="0"/>
        <pt x="1674" y="98" on="1"/>
        <pt x="1783" y="189" on="0"/>
        <pt x="1993" y="712" on="1"/>
        <pt x="2077" y="922" on="0"/>
        <pt x="2148" y="1140" on="1"/>
        <pt x="1951" y="943" on="1"/>
        <pt x="1576" y="568" on="0"/>
        <pt x="1408" y="339" on="1"/>
        <pt x="1393" y="221" on="0"/>
        <pt x="1324" y="90" on="1"/>
        <pt x="1281" y="11" on="0"/>
        <pt x="1226" y="-41" on="0"/>
        <pt x="1212" y="-41" on="1"/>
        <pt x="1118" y="-41" on="0"/>
        <pt x="908" y="71" on="0"/>
        <pt x="908" y="120" on="1"/>
        <pt x="908" y="186" on="0"/>
        <pt x="1032" y="329" on="1"/>
        <pt x="1066" y="369" on="0"/>
        <pt x="1101" y="404" on="1"/>
        <pt x="1255" y="741" on="0"/>
        <pt x="1255" y="1044" on="1"/>
        <pt x="1255" y="1080" on="0"/>
        <pt x="1244" y="1222" on="0"/>
        <pt x="1207" y="1300" on="1"/>
        <pt x="1067" y="840" on="0"/>
        <pt x="806" y="448" on="1"/>
        <pt x="622" y="173" on="0"/>
        <pt x="429" y="59" on="1"/>
        <pt x="329" y="0" on="0"/>
        <pt x="129" y="0" on="0"/>
        <pt x="66" y="31" on="1"/>
        <pt x="-65" y="96" on="0"/>
        <pt x="-65" y="250" on="1"/>
        <pt x="-65" y="350" on="0"/>
        <pt x="-14" y="433" on="1"/>
        <pt x="14" y="478" on="0"/>
        <pt x="49" y="499" on="1"/>
        <pt x="184" y="403" on="0"/>
        <pt x="321" y="403" on="1"/>
        <pt x="523" y="403" on="0"/>
        <pt x="722" y="624" on="1"/>
        <pt x="897" y="819" on="0"/>
        <pt x="1068" y="1191" on="1"/>
        <pt x="1114" y="1291" on="0"/>
      </contour>
    </TTGlyph>
    <TTGlyph name="N" xMin="107" yMin="-68" xMax="1755" yMax="1613">
      <contour>
        <pt x="1551" y="294" on="1"/>
        <pt x="1574" y="287" on="0"/>
        <pt x="1631" y="287" on="0"/>
        <pt x="1667" y="302" on="1"/>
        <pt x="1686" y="289" on="0"/>
        <pt x="1710" y="246" on="0"/>
        <pt x="1710" y="214" on="0"/>
        <pt x="1685" y="154" on="0"/>
        <pt x="1639" y="93" on="0"/>
        <pt x="1574" y="37" on="0"/>
        <pt x="1535" y="15" on="1"/>
        <pt x="1389" y="-68" on="0"/>
        <pt x="1219" y="-10" on="1"/>
        <pt x="1078" y="37" on="0"/>
        <pt x="1018" y="184" on="1"/>
        <pt x="988" y="260" on="0"/>
        <pt x="988" y="435" on="0"/>
        <pt x="1041" y="567" on="0"/>
        <pt x="1127" y="694" on="0"/>
        <pt x="1237" y="815" on="0"/>
        <pt x="1351" y="931" on="0"/>
        <pt x="1461" y="1041" on="0"/>
        <pt x="1504" y="1094" on="1"/>
        <pt x="1600" y="1211" on="0"/>
        <pt x="1600" y="1293" on="1"/>
        <pt x="1600" y="1397" on="0"/>
        <pt x="1508" y="1426" on="1"/>
        <pt x="1481" y="1434" on="0"/>
        <pt x="1371" y="1434" on="0"/>
        <pt x="1206" y="1358" on="0"/>
        <pt x="1043" y="1226" on="0"/>
        <pt x="887" y="1048" on="0"/>
        <pt x="748" y="842" on="0"/>
        <pt x="691" y="731" on="1"/>
        <pt x="523" y="403" on="0"/>
        <pt x="523" y="158" on="1"/>
        <pt x="523" y="130" on="0"/>
        <pt x="525" y="104" on="1"/>
        <pt x="496" y="71" on="0"/>
        <pt x="424" y="36" on="1"/>
        <pt x="291" y="-27" on="0"/>
        <pt x="222" y="-27" on="0"/>
        <pt x="174" y="0" on="0"/>
        <pt x="154" y="27" on="1"/>
        <pt x="107" y="88" on="0"/>
        <pt x="107" y="277" on="0"/>
        <pt x="168" y="481" on="0"/>
        <pt x="260" y="695" on="0"/>
        <pt x="366" y="910" on="0"/>
        <pt x="412" y="1010" on="1"/>
        <pt x="519" y="1243" on="0"/>
        <pt x="519" y="1354" on="1"/>
        <pt x="519" y="1451" on="0"/>
        <pt x="506" y="1484" on="1"/>
        <pt x="481" y="1544" on="0"/>
        <pt x="434" y="1546" on="1"/>
        <pt x="437" y="1613" on="0"/>
        <pt x="506" y="1613" on="1"/>
        <pt x="575" y="1613" on="0"/>
        <pt x="623" y="1562" on="1"/>
        <pt x="696" y="1486" on="0"/>
        <pt x="696" y="1330" on="1"/>
        <pt x="696" y="1149" on="0"/>
        <pt x="601" y="930" on="1"/>
        <pt x="838" y="1229" on="0"/>
        <pt x="1032" y="1378" on="1"/>
        <pt x="1266" y="1558" on="0"/>
        <pt x="1475" y="1558" on="1"/>
        <pt x="1675" y="1558" on="0"/>
        <pt x="1735" y="1400" on="1"/>
        <pt x="1755" y="1347" on="0"/>
        <pt x="1755" y="1200" on="0"/>
        <pt x="1714" y="1064" on="0"/>
        <pt x="1651" y="935" on="0"/>
        <pt x="1579" y="807" on="0"/>
        <pt x="1548" y="737" on="1"/>
        <pt x="1475" y="576" on="0"/>
        <pt x="1475" y="415" on="1"/>
        <pt x="1475" y="319" on="0"/>
      </contour>
    </TTGlyph>
    <TTGlyph name="Nacute" xMin="107" yMin="-68" xMax="1755" yMax="1852">
      <component glyphName=".ttfautohint" x="107" y="0" flags="0x0"/>
      <component glyphName="N" x="0" y="0" flags="0x1204"/>
      <component glyphName="acute.cap" x="94" y="0" flags="0x1004"/>
    </TTGlyph>
    <TTGlyph name="Ntilde" xMin="107" yMin="-68" xMax="1710" yMax="1852">
      <contour>
        <pt x="1084" y="1735" on="1"/>
        <pt x="1011" y="1735" on="0"/>
        <pt x="916" y="1662" on="1"/>
        <pt x="864" y="1688" on="0"/>
        <pt x="885" y="1740" on="0"/>
        <pt x="938" y="1792" on="0"/>
        <pt x="972" y="1811" on="1"/>
        <pt x="1047" y="1852" on="0"/>
        <pt x="1179" y="1852" on="0"/>
        <pt x="1262" y="1828" on="0"/>
        <pt x="1298" y="1813" on="1"/>
        <pt x="1392" y="1774" on="0"/>
        <pt x="1507" y="1774" on="0"/>
        <pt x="1590" y="1846" on="1"/>
        <pt x="1635" y="1818" on="0"/>
        <pt x="1626" y="1775" on="0"/>
        <pt x="1587" y="1721" on="0"/>
        <pt x="1556" y="1698" on="1"/>
        <pt x="1487" y="1647" on="0"/>
        <pt x="1344" y="1647" on="0"/>
        <pt x="1263" y="1674" on="0"/>
        <pt x="1192" y="1707" on="0"/>
        <pt x="1125" y="1735" on="0"/>
      </contour>
      <contour>
        <pt x="1551" y="294" on="1"/>
        <pt x="1574" y="287" on="0"/>
        <pt x="1631" y="287" on="0"/>
        <pt x="1667" y="302" on="1"/>
        <pt x="1686" y="289" on="0"/>
        <pt x="1710" y="246" on="0"/>
        <pt x="1710" y="214" on="0"/>
        <pt x="1685" y="154" on="0"/>
        <pt x="1639" y="93" on="0"/>
        <pt x="1574" y="37" on="0"/>
        <pt x="1535" y="15" on="1"/>
        <pt x="1389" y="-68" on="0"/>
        <pt x="1219" y="-10" on="1"/>
        <pt x="1078" y="37" on="0"/>
        <pt x="1018" y="184" on="1"/>
        <pt x="988" y="260" on="0"/>
        <pt x="988" y="434" on="0"/>
        <pt x="1036" y="566" on="0"/>
        <pt x="1115" y="694" on="0"/>
        <pt x="1215" y="815" on="0"/>
        <pt x="1320" y="930" on="0"/>
        <pt x="1421" y="1038" on="0"/>
        <pt x="1460" y="1088" on="1"/>
        <pt x="1548" y="1200" on="0"/>
        <pt x="1548" y="1272" on="1"/>
        <pt x="1548" y="1376" on="0"/>
        <pt x="1456" y="1404" on="1"/>
        <pt x="1429" y="1413" on="0"/>
        <pt x="1319" y="1413" on="0"/>
        <pt x="1159" y="1339" on="0"/>
        <pt x="1003" y="1210" on="0"/>
        <pt x="856" y="1035" on="0"/>
        <pt x="727" y="834" on="0"/>
        <pt x="674" y="724" on="1"/>
        <pt x="522" y="407" on="0"/>
        <pt x="522" y="162" on="1"/>
        <pt x="522" y="132" on="0"/>
        <pt x="525" y="104" on="1"/>
        <pt x="496" y="71" on="0"/>
        <pt x="424" y="36" on="1"/>
        <pt x="291" y="-27" on="0"/>
        <pt x="222" y="-27" on="0"/>
        <pt x="174" y="0" on="0"/>
        <pt x="154" y="27" on="1"/>
        <pt x="107" y="88" on="0"/>
        <pt x="107" y="277" on="0"/>
        <pt x="168" y="481" on="0"/>
        <pt x="260" y="695" on="0"/>
        <pt x="366" y="910" on="0"/>
        <pt x="412" y="1010" on="1"/>
        <pt x="519" y="1243" on="0"/>
        <pt x="519" y="1354" on="1"/>
        <pt x="519" y="1451" on="0"/>
        <pt x="506" y="1484" on="1"/>
        <pt x="481" y="1544" on="0"/>
        <pt x="434" y="1546" on="1"/>
        <pt x="437" y="1613" on="0"/>
        <pt x="506" y="1613" on="1"/>
        <pt x="575" y="1613" on="0"/>
        <pt x="623" y="1562" on="1"/>
        <pt x="696" y="1486" on="0"/>
        <pt x="696" y="1330" on="1"/>
        <pt x="696" y="1149" on="0"/>
        <pt x="601" y="930" on="1"/>
        <pt x="844" y="1237" on="0"/>
        <pt x="1006" y="1368" on="1"/>
        <pt x="1217" y="1537" on="0"/>
        <pt x="1423" y="1537" on="1"/>
        <pt x="1623" y="1537" on="0"/>
        <pt x="1683" y="1379" on="1"/>
        <pt x="1703" y="1326" on="0"/>
        <pt x="1703" y="1178" on="0"/>
        <pt x="1669" y="1037" on="0"/>
        <pt x="1619" y="902" on="0"/>
        <pt x="1559" y="770" on="0"/>
        <pt x="1534" y="702" on="1"/>
        <pt x="1475" y="543" on="0"/>
        <pt x="1475" y="415" on="1"/>
        <pt x="1475" y="319" on="0"/>
      </contour>
    </TTGlyph>
    <TTGlyph name="O" xMin="56" yMin="-60" xMax="1645" yMax="1558">
      <contour>
        <pt x="1645" y="1186" on="1"/>
        <pt x="1645" y="1050" on="0"/>
        <pt x="1540" y="936" on="1"/>
        <pt x="1545" y="923" on="0"/>
        <pt x="1545" y="912" on="1"/>
        <pt x="1545" y="672" on="0"/>
        <pt x="1412" y="443" on="1"/>
        <pt x="1284" y="221" on="0"/>
        <pt x="1074" y="84" on="1"/>
        <pt x="855" y="-60" on="0"/>
        <pt x="616" y="-60" on="1"/>
        <pt x="368" y="-60" on="0"/>
        <pt x="215" y="78" on="1"/>
        <pt x="56" y="221" on="0"/>
        <pt x="56" y="470" on="1"/>
        <pt x="56" y="742" on="0"/>
        <pt x="227" y="1001" on="1"/>
        <pt x="388" y="1245" on="0"/>
        <pt x="652" y="1400" on="1"/>
        <pt x="920" y="1558" on="0"/>
        <pt x="1197" y="1558" on="1"/>
        <pt x="1394" y="1558" on="0"/>
        <pt x="1514" y="1466" on="1"/>
        <pt x="1645" y="1365" on="0"/>
      </contour>
      <contour>
        <pt x="1447" y="858" on="1"/>
        <pt x="1340" y="786" on="0"/>
        <pt x="1240" y="786" on="1"/>
        <pt x="1199" y="786" on="0"/>
        <pt x="1176" y="812" on="1"/>
        <pt x="1138" y="852" on="0"/>
        <pt x="1126" y="881" on="1"/>
        <pt x="1313" y="976" on="0"/>
        <pt x="1382" y="1124" on="1"/>
        <pt x="1406" y="1176" on="0"/>
        <pt x="1406" y="1233" on="1"/>
        <pt x="1406" y="1338" on="0"/>
        <pt x="1288" y="1448" on="0"/>
        <pt x="1059" y="1448" on="0"/>
        <pt x="887" y="1386" on="0"/>
        <pt x="736" y="1279" on="0"/>
        <pt x="612" y="1132" on="0"/>
        <pt x="568" y="1046" on="1"/>
        <pt x="474" y="867" on="0"/>
        <pt x="474" y="487" on="0"/>
        <pt x="643" y="297" on="0"/>
        <pt x="799" y="297" on="1"/>
        <pt x="1015" y="297" on="0"/>
        <pt x="1206" y="474" on="1"/>
        <pt x="1384" y="638" on="0"/>
      </contour>
    </TTGlyph>
    <TTGlyph name="OE" xMin="54" yMin="-27" xMax="2387" yMax="1558">
      <contour>
        <pt x="1067" y="143" on="1"/>
        <pt x="846" y="-18" on="0"/>
        <pt x="614" y="-18" on="1"/>
        <pt x="367" y="-18" on="0"/>
        <pt x="213" y="124" on="1"/>
        <pt x="54" y="272" on="0"/>
        <pt x="54" y="522" on="1"/>
        <pt x="54" y="792" on="0"/>
        <pt x="228" y="1040" on="1"/>
        <pt x="391" y="1269" on="0"/>
        <pt x="660" y="1414" on="1"/>
        <pt x="930" y="1558" on="0"/>
        <pt x="1208" y="1558" on="1"/>
        <pt x="1412" y="1558" on="0"/>
        <pt x="1532" y="1424" on="1"/>
        <pt x="1571" y="1382" on="0"/>
        <pt x="1596" y="1329" on="1"/>
        <pt x="1769" y="1482" on="0"/>
        <pt x="1995" y="1538" on="1"/>
        <pt x="2067" y="1555" on="0"/>
        <pt x="2187" y="1555" on="0"/>
        <pt x="2280" y="1532" on="0"/>
        <pt x="2314" y="1510" on="1"/>
        <pt x="2387" y="1461" on="0"/>
        <pt x="2387" y="1374" on="1"/>
        <pt x="2387" y="1304" on="0"/>
        <pt x="2358" y="1260" on="1"/>
        <pt x="2306" y="1181" on="0"/>
        <pt x="2250" y="1181" on="1"/>
        <pt x="2215" y="1181" on="0"/>
        <pt x="2167" y="1221" on="1"/>
        <pt x="2155" y="1231" on="0"/>
        <pt x="2149" y="1238" on="1"/>
        <pt x="2193" y="1290" on="0"/>
        <pt x="2193" y="1362" on="1"/>
        <pt x="2193" y="1445" on="0"/>
        <pt x="2081" y="1445" on="1"/>
        <pt x="1976" y="1445" on="0"/>
        <pt x="1813" y="1350" on="1"/>
        <pt x="1711" y="1290" on="0"/>
        <pt x="1664" y="1224" on="1"/>
        <pt x="1641" y="1191" on="0"/>
        <pt x="1641" y="1110" on="0"/>
        <pt x="1703" y="1013" on="0"/>
        <pt x="1754" y="971" on="1"/>
        <pt x="1860" y="883" on="0"/>
        <pt x="1996" y="845" on="1"/>
        <pt x="1969" y="762" on="0"/>
        <pt x="1916" y="731" on="1"/>
        <pt x="1900" y="722" on="0"/>
        <pt x="1851" y="722" on="0"/>
        <pt x="1756" y="745" on="0"/>
        <pt x="1706" y="767" on="1"/>
        <pt x="1592" y="817" on="0"/>
        <pt x="1522" y="889" on="1"/>
        <pt x="1395" y="809" on="0"/>
        <pt x="1354" y="640" on="1"/>
        <pt x="1342" y="591" on="0"/>
        <pt x="1342" y="500" on="0"/>
        <pt x="1384" y="412" on="0"/>
        <pt x="1424" y="377" on="1"/>
        <pt x="1515" y="299" on="0"/>
        <pt x="1660" y="299" on="1"/>
        <pt x="1852" y="299" on="0"/>
        <pt x="2038" y="435" on="1"/>
        <pt x="2087" y="390" on="0"/>
        <pt x="2087" y="343" on="0"/>
        <pt x="2042" y="261" on="0"/>
        <pt x="1962" y="172" on="0"/>
        <pt x="1853" y="85" on="0"/>
        <pt x="1788" y="50" on="1"/>
        <pt x="1642" y="-27" on="0"/>
        <pt x="1503" y="-27" on="1"/>
        <pt x="1215" y="-27" on="0"/>
      </contour>
      <contour>
        <pt x="966" y="375" on="1"/>
        <pt x="964" y="397" on="0"/>
        <pt x="964" y="510" on="0"/>
        <pt x="1006" y="660" on="0"/>
        <pt x="1075" y="780" on="0"/>
        <pt x="1166" y="873" on="0"/>
        <pt x="1216" y="907" on="1"/>
        <pt x="1308" y="971" on="0"/>
        <pt x="1406" y="998" on="1"/>
        <pt x="1445" y="1126" on="0"/>
        <pt x="1445" y="1263" on="0"/>
        <pt x="1409" y="1351" on="0"/>
        <pt x="1377" y="1382" on="1"/>
        <pt x="1309" y="1448" on="0"/>
        <pt x="1204" y="1448" on="1"/>
        <pt x="868" y="1448" on="0"/>
        <pt x="669" y="1238" on="1"/>
        <pt x="472" y="1031" on="0"/>
        <pt x="472" y="691" on="1"/>
        <pt x="472" y="528" on="0"/>
        <pt x="556" y="434" on="1"/>
        <pt x="642" y="339" on="0"/>
        <pt x="797" y="339" on="1"/>
        <pt x="877" y="339" on="0"/>
      </contour>
    </TTGlyph>
    <TTGlyph name="Oacute" xMin="56" yMin="-60" xMax="1645" yMax="1852">
      <component glyphName=".ttfautohint" x="56" y="0" flags="0x0"/>
      <component glyphName="O" x="0" y="0" flags="0x1004"/>
      <component glyphName="acute.cap" x="167" y="0" flags="0x1004"/>
    </TTGlyph>
    <TTGlyph name="Ocircumflex" xMin="56" yMin="-60" xMax="1645" yMax="1851">
      <component glyphName=".ttfautohint" x="56" y="0" flags="0x0"/>
      <component glyphName="O" x="0" y="0" flags="0x1004"/>
      <component glyphName="circumflex.cap" x="87" y="0" flags="0x1004"/>
    </TTGlyph>
    <TTGlyph name="Odieresis" xMin="56" yMin="-60" xMax="1645" yMax="1822">
      <component glyphName=".ttfautohint" x="56" y="0" flags="0x0"/>
      <component glyphName="O" x="0" y="0" flags="0x1004"/>
      <component glyphName="dieresis.cap" x="56" y="0" flags="0x1004"/>
    </TTGlyph>
    <TTGlyph name="Ograve" xMin="56" yMin="-60" xMax="1645" yMax="1852">
      <component glyphName=".ttfautohint" x="56" y="0" flags="0x0"/>
      <component glyphName="O" x="0" y="0" flags="0x1004"/>
      <component glyphName="grave.cap" x="62" y="0" flags="0x1004"/>
    </TTGlyph>
    <TTGlyph name="Oslash" xMin="53" yMin="-246" xMax="1612" yMax="1670">
      <contour>
        <pt x="456" y="-37" on="1"/>
        <pt x="301" y="-246" on="0"/>
        <pt x="262" y="-246" on="1"/>
        <pt x="208" y="-246" on="0"/>
        <pt x="124" y="-186" on="1"/>
        <pt x="102" y="-171" on="0"/>
        <pt x="93" y="-159" on="1"/>
        <pt x="149" y="-111" on="0"/>
        <pt x="272" y="41" on="1"/>
        <pt x="53" y="189" on="0"/>
        <pt x="53" y="486" on="1"/>
        <pt x="53" y="777" on="0"/>
        <pt x="280" y="1064" on="1"/>
        <pt x="495" y="1337" on="0"/>
        <pt x="798" y="1478" on="1"/>
        <pt x="1003" y="1574" on="0"/>
        <pt x="1189" y="1574" on="1"/>
        <pt x="1273" y="1574" on="0"/>
        <pt x="1344" y="1547" on="1"/>
        <pt x="1382" y="1605" on="0"/>
        <pt x="1420" y="1670" on="1"/>
        <pt x="1497" y="1644" on="0"/>
        <pt x="1497" y="1606" on="0"/>
        <pt x="1439" y="1494" on="1"/>
        <pt x="1612" y="1359" on="0"/>
        <pt x="1612" y="1085" on="1"/>
        <pt x="1612" y="810" on="0"/>
        <pt x="1495" y="540" on="1"/>
        <pt x="1301" y="94" on="0"/>
        <pt x="873" y="-22" on="1"/>
        <pt x="755" y="-54" on="0"/>
        <pt x="532" y="-54" on="0"/>
      </contour>
      <contour>
        <pt x="549" y="405" on="1"/>
        <pt x="908" y="891" on="0"/>
        <pt x="1278" y="1446" on="1"/>
        <pt x="1234" y="1464" on="0"/>
        <pt x="1094" y="1464" on="0"/>
        <pt x="917" y="1405" on="0"/>
        <pt x="759" y="1298" on="0"/>
        <pt x="624" y="1149" on="0"/>
        <pt x="575" y="1060" on="1"/>
        <pt x="471" y="870" on="0"/>
        <pt x="471" y="655" on="1"/>
        <pt x="471" y="497" on="0"/>
      </contour>
      <contour>
        <pt x="704" y="313" on="1"/>
        <pt x="744" y="303" on="0"/>
        <pt x="888" y="303" on="0"/>
        <pt x="1054" y="375" on="0"/>
        <pt x="1195" y="500" on="0"/>
        <pt x="1308" y="667" on="0"/>
        <pt x="1348" y="762" on="1"/>
        <pt x="1431" y="958" on="0"/>
        <pt x="1431" y="1154" on="1"/>
        <pt x="1431" y="1293" on="0"/>
        <pt x="1372" y="1373" on="1"/>
        <pt x="1066" y="844" on="0"/>
      </contour>
    </TTGlyph>
    <TTGlyph name="Otilde" xMin="56" yMin="-60" xMax="1660" yMax="1852">
      <component glyphName=".ttfautohint" x="56" y="0" flags="0x0"/>
      <component glyphName="O" x="0" y="0" flags="0x1004"/>
      <component glyphName="tilde.cap" x="258" y="0" flags="0x1004"/>
    </TTGlyph>
    <TTGlyph name="P" xMin="71" yMin="-39" xMax="1696" yMax="1597">
      <contour>
        <pt x="445" y="1004" on="1"/>
        <pt x="354" y="907" on="0"/>
        <pt x="300" y="907" on="1"/>
        <pt x="240" y="907" on="0"/>
        <pt x="193" y="984" on="1"/>
        <pt x="147" y="1060" on="0"/>
        <pt x="147" y="1230" on="0"/>
        <pt x="228" y="1357" on="0"/>
        <pt x="362" y="1455" on="0"/>
        <pt x="535" y="1527" on="0"/>
        <pt x="628" y="1550" on="1"/>
        <pt x="812" y="1597" on="0"/>
        <pt x="1063" y="1597" on="0"/>
        <pt x="1233" y="1576" on="0"/>
        <pt x="1391" y="1528" on="0"/>
        <pt x="1531" y="1453" on="0"/>
        <pt x="1584" y="1400" on="1"/>
        <pt x="1696" y="1285" on="0"/>
        <pt x="1696" y="1113" on="1"/>
        <pt x="1696" y="935" on="0"/>
        <pt x="1584" y="748" on="1"/>
        <pt x="1476" y="567" on="0"/>
        <pt x="1304" y="448" on="1"/>
        <pt x="1121" y="323" on="0"/>
        <pt x="935" y="323" on="1"/>
        <pt x="844" y="323" on="0"/>
        <pt x="775" y="368" on="1"/>
        <pt x="742" y="391" on="0"/>
        <pt x="740" y="452" on="0"/>
        <pt x="742" y="477" on="1"/>
        <pt x="750" y="580" on="0"/>
        <pt x="787" y="719" on="1"/>
        <pt x="860" y="689" on="0"/>
        <pt x="1026" y="689" on="0"/>
        <pt x="1136" y="724" on="0"/>
        <pt x="1247" y="788" on="0"/>
        <pt x="1350" y="876" on="0"/>
        <pt x="1390" y="930" on="1"/>
        <pt x="1477" y="1048" on="0"/>
        <pt x="1477" y="1260" on="0"/>
        <pt x="1380" y="1383" on="0"/>
        <pt x="1304" y="1420" on="1"/>
        <pt x="1161" y="1491" on="0"/>
        <pt x="951" y="1491" on="1"/>
        <pt x="770" y="1491" on="0"/>
        <pt x="581" y="1418" on="1"/>
        <pt x="449" y="1366" on="0"/>
        <pt x="391" y="1286" on="1"/>
        <pt x="361" y="1244" on="0"/>
        <pt x="361" y="1194" on="1"/>
        <pt x="361" y="1081" on="0"/>
      </contour>
      <contour>
        <pt x="71" y="66" on="1"/>
        <pt x="122" y="120" on="0"/>
        <pt x="260" y="387" on="0"/>
        <pt x="358" y="583" on="0"/>
        <pt x="465" y="789" on="0"/>
        <pt x="578" y="992" on="0"/>
        <pt x="636" y="1082" on="1"/>
        <pt x="765" y="1280" on="0"/>
        <pt x="872" y="1360" on="1"/>
        <pt x="884" y="1370" on="0"/>
        <pt x="913" y="1370" on="0"/>
        <pt x="928" y="1365" on="1"/>
        <pt x="961" y="1354" on="0"/>
        <pt x="986" y="1331" on="1"/>
        <pt x="861" y="1231" on="0"/>
        <pt x="728" y="806" on="1"/>
        <pt x="690" y="687" on="0"/>
        <pt x="618" y="450" on="0"/>
        <pt x="551" y="230" on="0"/>
        <pt x="518" y="146" on="1"/>
        <pt x="447" y="-39" on="0"/>
        <pt x="391" y="-39" on="1"/>
        <pt x="214" y="-39" on="0"/>
        <pt x="114" y="33" on="1"/>
        <pt x="89" y="51" on="0"/>
      </contour>
    </TTGlyph>
    <TTGlyph name="Q" xMin="108" yMin="-483" xMax="1815" yMax="1582">
      <contour>
        <pt x="983" y="-45" on="1"/>
        <pt x="820" y="-114" on="0"/>
        <pt x="547" y="-114" on="0"/>
        <pt x="342" y="-50" on="0"/>
        <pt x="267" y="14" on="1"/>
        <pt x="108" y="148" on="0"/>
        <pt x="108" y="396" on="1"/>
        <pt x="108" y="656" on="0"/>
        <pt x="272" y="934" on="1"/>
        <pt x="437" y="1213" on="0"/>
        <pt x="698" y="1390" on="1"/>
        <pt x="981" y="1582" on="0"/>
        <pt x="1281" y="1582" on="1"/>
        <pt x="1463" y="1582" on="0"/>
        <pt x="1564" y="1500" on="1"/>
        <pt x="1660" y="1422" on="0"/>
        <pt x="1660" y="1299" on="1"/>
        <pt x="1660" y="1020" on="0"/>
        <pt x="1313" y="744" on="1"/>
        <pt x="1174" y="633" on="0"/>
        <pt x="1019" y="562" on="1"/>
        <pt x="1031" y="477" on="0"/>
        <pt x="1109" y="324" on="1"/>
        <pt x="1273" y="410" on="0"/>
        <pt x="1400" y="560" on="1"/>
        <pt x="1525" y="710" on="0"/>
        <pt x="1535" y="838" on="1"/>
        <pt x="1579" y="841" on="0"/>
        <pt x="1603" y="796" on="1"/>
        <pt x="1610" y="782" on="0"/>
        <pt x="1610" y="679" on="0"/>
        <pt x="1554" y="499" on="0"/>
        <pt x="1504" y="414" on="1"/>
        <pt x="1405" y="243" on="0"/>
        <pt x="1237" y="108" on="1"/>
        <pt x="1480" y="-246" on="0"/>
        <pt x="1671" y="-246" on="1"/>
        <pt x="1729" y="-246" on="0"/>
        <pt x="1789" y="-219" on="1"/>
        <pt x="1815" y="-248" on="0"/>
        <pt x="1815" y="-280" on="0"/>
        <pt x="1789" y="-318" on="0"/>
        <pt x="1719" y="-386" on="0"/>
        <pt x="1672" y="-415" on="1"/>
        <pt x="1560" y="-483" on="0"/>
        <pt x="1440" y="-483" on="1"/>
        <pt x="1149" y="-483" on="0"/>
      </contour>
      <contour>
        <pt x="899" y="253" on="1"/>
        <pt x="854" y="464" on="0"/>
        <pt x="854" y="597" on="1"/>
        <pt x="1119" y="703" on="0"/>
        <pt x="1307" y="888" on="1"/>
        <pt x="1505" y="1083" on="0"/>
        <pt x="1505" y="1276" on="1"/>
        <pt x="1505" y="1412" on="0"/>
        <pt x="1372" y="1458" on="1"/>
        <pt x="1329" y="1472" on="0"/>
        <pt x="1167" y="1472" on="0"/>
        <pt x="968" y="1407" on="0"/>
        <pt x="798" y="1289" on="0"/>
        <pt x="661" y="1123" on="0"/>
        <pt x="612" y="1023" on="1"/>
        <pt x="512" y="816" on="0"/>
        <pt x="512" y="571" on="1"/>
        <pt x="512" y="409" on="0"/>
        <pt x="687" y="249" on="0"/>
        <pt x="843" y="249" on="1"/>
        <pt x="871" y="249" on="0"/>
      </contour>
    </TTGlyph>
    <TTGlyph name="R" xMin="75" yMin="-62" xMax="2075" yMax="1572">
      <contour>
        <pt x="75" y="287" on="1"/>
        <pt x="75" y="364" on="0"/>
        <pt x="123" y="565" on="0"/>
        <pt x="216" y="779" on="0"/>
        <pt x="349" y="995" on="0"/>
        <pt x="519" y="1195" on="0"/>
        <pt x="723" y="1369" on="0"/>
        <pt x="839" y="1434" on="1"/>
        <pt x="1088" y="1572" on="0"/>
        <pt x="1356" y="1572" on="1"/>
        <pt x="1604" y="1572" on="0"/>
        <pt x="1752" y="1460" on="1"/>
        <pt x="1909" y="1341" on="0"/>
        <pt x="1909" y="1132" on="1"/>
        <pt x="1909" y="933" on="0"/>
        <pt x="1778" y="762" on="1"/>
        <pt x="1657" y="606" on="0"/>
        <pt x="1468" y="521" on="1"/>
        <pt x="1521" y="393" on="0"/>
        <pt x="1547" y="353" on="1"/>
        <pt x="1600" y="273" on="0"/>
        <pt x="1699" y="273" on="0"/>
        <pt x="1811" y="323" on="0"/>
        <pt x="1862" y="362" on="1"/>
        <pt x="1967" y="441" on="0"/>
        <pt x="2030" y="536" on="1"/>
        <pt x="2075" y="539" on="0"/>
        <pt x="2075" y="499" on="1"/>
        <pt x="2075" y="462" on="0"/>
        <pt x="1973" y="285" on="0"/>
        <pt x="1884" y="169" on="0"/>
        <pt x="1776" y="64" on="0"/>
        <pt x="1714" y="24" on="1"/>
        <pt x="1578" y="-62" on="0"/>
        <pt x="1436" y="-62" on="1"/>
        <pt x="1139" y="-62" on="0"/>
        <pt x="1139" y="344" on="1"/>
        <pt x="1139" y="400" on="0"/>
        <pt x="1143" y="456" on="1"/>
        <pt x="996" y="469" on="0"/>
        <pt x="934" y="597" on="1"/>
        <pt x="912" y="641" on="0"/>
        <pt x="906" y="701" on="1"/>
        <pt x="664" y="248" on="0"/>
        <pt x="497" y="86" on="1"/>
        <pt x="386" y="-22" on="0"/>
        <pt x="296" y="-22" on="1"/>
        <pt x="197" y="-22" on="0"/>
        <pt x="75" y="142" on="0"/>
      </contour>
      <contour>
        <pt x="380" y="432" on="1"/>
        <pt x="380" y="342" on="0"/>
        <pt x="414" y="342" on="1"/>
        <pt x="477" y="342" on="0"/>
        <pt x="824" y="866" on="1"/>
        <pt x="967" y="1082" on="0"/>
        <pt x="1095" y="1300" on="1"/>
        <pt x="1127" y="1355" on="0"/>
        <pt x="1202" y="1315" on="1"/>
        <pt x="1219" y="1306" on="0"/>
        <pt x="1227" y="1300" on="1"/>
        <pt x="1171" y="1213" on="0"/>
        <pt x="1043" y="965" on="1"/>
        <pt x="1124" y="1018" on="0"/>
        <pt x="1201" y="1018" on="0"/>
        <pt x="1258" y="976" on="0"/>
        <pt x="1284" y="940" on="1"/>
        <pt x="1328" y="878" on="0"/>
        <pt x="1378" y="754" on="1"/>
        <pt x="1514" y="811" on="0"/>
        <pt x="1608" y="934" on="1"/>
        <pt x="1705" y="1061" on="0"/>
        <pt x="1705" y="1188" on="1"/>
        <pt x="1705" y="1467" on="0"/>
        <pt x="1325" y="1467" on="1"/>
        <pt x="1044" y="1467" on="0"/>
        <pt x="821" y="1291" on="1"/>
        <pt x="638" y="1147" on="0"/>
        <pt x="516" y="904" on="1"/>
        <pt x="416" y="708" on="0"/>
        <pt x="387" y="518" on="1"/>
        <pt x="380" y="469" on="0"/>
      </contour>
      <contour>
        <pt x="1175" y="822" on="1"/>
        <pt x="1175" y="908" on="0"/>
        <pt x="1103" y="908" on="0"/>
        <pt x="1075" y="865" on="0"/>
        <pt x="1075" y="836" on="0"/>
        <pt x="1079" y="800" on="0"/>
        <pt x="1125" y="740" on="0"/>
        <pt x="1169" y="727" on="1"/>
        <pt x="1175" y="787" on="0"/>
      </contour>
    </TTGlyph>
    <TTGlyph name="Racute" xMin="75" yMin="-62" xMax="2075" yMax="1852">
      <component glyphName=".ttfautohint" x="75" y="0" flags="0x0"/>
      <component glyphName="R" x="0" y="0" flags="0x1204"/>
      <component glyphName="acute.cap" x="318" y="0" flags="0x1004"/>
    </TTGlyph>
    <TTGlyph name="Rcaron" xMin="75" yMin="-62" xMax="2075" yMax="1852">
      <component glyphName=".ttfautohint" x="75" y="0" flags="0x0"/>
      <component glyphName="R" x="0" y="0" flags="0x1204"/>
      <component glyphName="caron.cap" x="290" y="0" flags="0x1004"/>
    </TTGlyph>
    <TTGlyph name="Rcommaaccent" xMin="75" yMin="-500" xMax="2075" yMax="1572">
      <component glyphName=".ttfautohint" x="75" y="0" flags="0x0"/>
      <component glyphName="R" x="0" y="0" flags="0x1204"/>
      <component glyphName="commaaccent" x="432" y="0" flags="0x1004"/>
    </TTGlyph>
    <TTGlyph name="S" xMin="66" yMin="-95" xMax="1577" yMax="1557">
      <contour>
        <pt x="214" y="72" on="1"/>
        <pt x="138" y="153" on="0"/>
        <pt x="66" y="360" on="0"/>
        <pt x="66" y="536" on="0"/>
        <pt x="85" y="558" on="0"/>
        <pt x="97" y="566" on="1"/>
        <pt x="118" y="580" on="0"/>
        <pt x="148" y="588" on="1"/>
        <pt x="230" y="378" on="0"/>
        <pt x="451" y="318" on="1"/>
        <pt x="522" y="298" on="0"/>
        <pt x="667" y="298" on="0"/>
        <pt x="780" y="323" on="0"/>
        <pt x="822" y="350" on="1"/>
        <pt x="913" y="410" on="0"/>
        <pt x="913" y="531" on="1"/>
        <pt x="913" y="623" on="0"/>
        <pt x="840" y="736" on="1"/>
        <pt x="809" y="786" on="0"/>
        <pt x="737" y="885" on="0"/>
        <pt x="706" y="936" on="1"/>
        <pt x="633" y="1053" on="0"/>
        <pt x="633" y="1220" on="0"/>
        <pt x="680" y="1331" on="0"/>
        <pt x="762" y="1420" on="0"/>
        <pt x="873" y="1488" on="0"/>
        <pt x="938" y="1511" on="1"/>
        <pt x="1068" y="1557" on="0"/>
        <pt x="1214" y="1557" on="1"/>
        <pt x="1352" y="1557" on="0"/>
        <pt x="1510" y="1500" on="0"/>
        <pt x="1577" y="1440" on="0"/>
        <pt x="1577" y="1382" on="0"/>
        <pt x="1559" y="1343" on="0"/>
        <pt x="1545" y="1324" on="1"/>
        <pt x="1515" y="1285" on="0"/>
        <pt x="1486" y="1265" on="1"/>
        <pt x="1417" y="1375" on="0"/>
        <pt x="1256" y="1420" on="1"/>
        <pt x="1204" y="1434" on="0"/>
        <pt x="1089" y="1434" on="0"/>
        <pt x="975" y="1406" on="0"/>
        <pt x="932" y="1380" on="1"/>
        <pt x="835" y="1324" on="0"/>
        <pt x="835" y="1234" on="1"/>
        <pt x="835" y="1185" on="0"/>
        <pt x="904" y="1087" on="0"/>
        <pt x="1007" y="981" on="0"/>
        <pt x="1127" y="865" on="0"/>
        <pt x="1178" y="799" on="1"/>
        <pt x="1299" y="645" on="0"/>
        <pt x="1299" y="346" on="0"/>
        <pt x="1187" y="127" on="0"/>
        <pt x="1092" y="54" on="1"/>
        <pt x="902" y="-95" on="0"/>
        <pt x="613" y="-95" on="1"/>
        <pt x="369" y="-95" on="0"/>
      </contour>
    </TTGlyph>
    <TTGlyph name="T" xMin="83" yMin="-63" xMax="1719" yMax="1733">
      <contour>
        <pt x="174" y="244" on="1"/>
        <pt x="174" y="298" on="0"/>
        <pt x="237" y="395" on="0"/>
        <pt x="341" y="490" on="0"/>
        <pt x="476" y="588" on="0"/>
        <pt x="620" y="702" on="0"/>
        <pt x="763" y="835" on="0"/>
        <pt x="822" y="918" on="1"/>
        <pt x="956" y="1104" on="0"/>
        <pt x="983" y="1331" on="1"/>
        <pt x="673" y="1303" on="0"/>
        <pt x="465" y="1246" on="0"/>
        <pt x="360" y="1170" on="0"/>
        <pt x="360" y="1076" on="0"/>
        <pt x="375" y="1017" on="0"/>
        <pt x="393" y="969" on="0"/>
        <pt x="408" y="931" on="0"/>
        <pt x="408" y="916" on="1"/>
        <pt x="408" y="889" on="0"/>
        <pt x="340" y="857" on="1"/>
        <pt x="278" y="828" on="0"/>
        <pt x="221" y="828" on="0"/>
        <pt x="169" y="869" on="0"/>
        <pt x="144" y="902" on="1"/>
        <pt x="83" y="983" on="0"/>
        <pt x="83" y="1135" on="0"/>
        <pt x="159" y="1241" on="0"/>
        <pt x="288" y="1319" on="0"/>
        <pt x="462" y="1371" on="0"/>
        <pt x="658" y="1407" on="0"/>
        <pt x="865" y="1429" on="0"/>
        <pt x="1063" y="1446" on="0"/>
        <pt x="1240" y="1462" on="0"/>
        <pt x="1308" y="1473" on="1"/>
        <pt x="1455" y="1497" on="0"/>
        <pt x="1471" y="1577" on="0"/>
        <pt x="1499" y="1646" on="0"/>
        <pt x="1518" y="1673" on="1"/>
        <pt x="1560" y="1733" on="0"/>
        <pt x="1658" y="1733" on="0"/>
        <pt x="1689" y="1684" on="1"/>
        <pt x="1719" y="1637" on="0"/>
        <pt x="1719" y="1532" on="0"/>
        <pt x="1671" y="1470" on="0"/>
        <pt x="1586" y="1423" on="0"/>
        <pt x="1468" y="1389" on="0"/>
        <pt x="1399" y="1377" on="1"/>
        <pt x="1290" y="1358" on="0"/>
        <pt x="1095" y="1341" on="1"/>
        <pt x="1097" y="1297" on="0"/>
        <pt x="1097" y="1216" on="0"/>
        <pt x="1094" y="1097" on="0"/>
        <pt x="1079" y="919" on="0"/>
        <pt x="1056" y="743" on="0"/>
        <pt x="1042" y="666" on="1"/>
        <pt x="1014" y="506" on="0"/>
        <pt x="959" y="374" on="0"/>
        <pt x="885" y="252" on="0"/>
        <pt x="796" y="142" on="0"/>
        <pt x="696" y="47" on="0"/>
        <pt x="644" y="12" on="1"/>
        <pt x="534" y="-63" on="0"/>
        <pt x="445" y="-63" on="1"/>
        <pt x="357" y="-63" on="0"/>
        <pt x="265" y="38" on="1"/>
        <pt x="174" y="138" on="0"/>
      </contour>
    </TTGlyph>
    <TTGlyph name="Thorn" xMin="91" yMin="-60" xMax="1737" yMax="1628">
      <contour>
        <pt x="557" y="327" on="1"/>
        <pt x="455" y="-2" on="0"/>
        <pt x="447" y="-60" on="1"/>
        <pt x="262" y="-60" on="0"/>
        <pt x="153" y="-8" on="1"/>
        <pt x="91" y="22" on="0"/>
        <pt x="91" y="105" on="0"/>
        <pt x="142" y="260" on="0"/>
        <pt x="228" y="459" on="0"/>
        <pt x="343" y="690" on="0"/>
        <pt x="471" y="929" on="0"/>
        <pt x="605" y="1165" on="0"/>
        <pt x="668" y="1271" on="1"/>
        <pt x="791" y="1481" on="0"/>
        <pt x="876" y="1608" on="1"/>
        <pt x="889" y="1628" on="0"/>
        <pt x="933" y="1628" on="0"/>
        <pt x="946" y="1627" on="1"/>
        <pt x="986" y="1622" on="0"/>
        <pt x="1005" y="1596" on="1"/>
        <pt x="954" y="1484" on="0"/>
        <pt x="895" y="1324" on="1"/>
        <pt x="1252" y="1321" on="0"/>
        <pt x="1479" y="1220" on="1"/>
        <pt x="1737" y="1106" on="0"/>
        <pt x="1737" y="882" on="1"/>
        <pt x="1737" y="699" on="0"/>
        <pt x="1622" y="542" on="1"/>
        <pt x="1515" y="394" on="0"/>
        <pt x="1338" y="306" on="1"/>
        <pt x="1159" y="217" on="0"/>
        <pt x="967" y="217" on="1"/>
        <pt x="687" y="217" on="0"/>
        <pt x="569" y="312" on="1"/>
        <pt x="561" y="318" on="0"/>
      </contour>
      <contour>
        <pt x="850" y="1205" on="1"/>
        <pt x="782" y="1019" on="0"/>
        <pt x="671" y="682" on="1"/>
        <pt x="828" y="619" on="0"/>
        <pt x="996" y="619" on="1"/>
        <pt x="1187" y="619" on="0"/>
        <pt x="1336" y="714" on="1"/>
        <pt x="1497" y="816" on="0"/>
        <pt x="1497" y="964" on="1"/>
        <pt x="1497" y="1122" on="0"/>
        <pt x="1140" y="1181" on="1"/>
        <pt x="1010" y="1203" on="0"/>
      </contour>
    </TTGlyph>
    <TTGlyph name="U" xMin="103" yMin="-94" xMax="1689" yMax="1586">
      <contour>
        <pt x="1439" y="218" on="1"/>
        <pt x="1474" y="195" on="0"/>
        <pt x="1474" y="155" on="0"/>
        <pt x="1443" y="99" on="0"/>
        <pt x="1391" y="39" on="0"/>
        <pt x="1322" y="-19" on="0"/>
        <pt x="1283" y="-42" on="1"/>
        <pt x="1198" y="-94" on="0"/>
        <pt x="1057" y="-94" on="0"/>
        <pt x="1010" y="-71" on="1"/>
        <pt x="899" y="-16" on="0"/>
        <pt x="899" y="145" on="1"/>
        <pt x="899" y="183" on="0"/>
        <pt x="906" y="226" on="1"/>
        <pt x="845" y="142" on="0"/>
        <pt x="708" y="68" on="1"/>
        <pt x="547" y="-20" on="0"/>
        <pt x="386" y="-20" on="1"/>
        <pt x="186" y="-20" on="0"/>
        <pt x="124" y="145" on="1"/>
        <pt x="103" y="199" on="0"/>
        <pt x="103" y="356" on="0"/>
        <pt x="178" y="531" on="0"/>
        <pt x="290" y="708" on="0"/>
        <pt x="422" y="888" on="0"/>
        <pt x="478" y="980" on="1"/>
        <pt x="609" y="1194" on="0"/>
        <pt x="609" y="1483" on="0"/>
        <pt x="503" y="1498" on="1"/>
        <pt x="517" y="1556" on="0"/>
        <pt x="610" y="1556" on="0"/>
        <pt x="679" y="1516" on="0"/>
        <pt x="703" y="1480" on="1"/>
        <pt x="753" y="1405" on="0"/>
        <pt x="753" y="1283" on="1"/>
        <pt x="753" y="1131" on="0"/>
        <pt x="513" y="605" on="0"/>
        <pt x="513" y="373" on="0"/>
        <pt x="604" y="373" on="1"/>
        <pt x="758" y="373" on="0"/>
        <pt x="998" y="604" on="1"/>
        <pt x="1239" y="835" on="0"/>
        <pt x="1414" y="1150" on="1"/>
        <pt x="1539" y="1376" on="0"/>
        <pt x="1589" y="1584" on="1"/>
        <pt x="1602" y="1586" on="0"/>
        <pt x="1614" y="1586" on="1"/>
        <pt x="1689" y="1586" on="0"/>
        <pt x="1689" y="1511" on="1"/>
        <pt x="1689" y="1406" on="0"/>
        <pt x="1592" y="1180" on="1"/>
        <pt x="1550" y="1083" on="0"/>
        <pt x="1454" y="873" on="0"/>
        <pt x="1412" y="770" on="1"/>
        <pt x="1315" y="534" on="0"/>
        <pt x="1315" y="398" on="1"/>
        <pt x="1315" y="299" on="0"/>
        <pt x="1391" y="190" on="0"/>
      </contour>
    </TTGlyph>
    <TTGlyph name="Uacute" xMin="103" yMin="-94" xMax="1689" yMax="1852">
      <component glyphName=".ttfautohint" x="103" y="0" flags="0x0"/>
      <component glyphName="U" x="0" y="0" flags="0x1204"/>
      <component glyphName="acute.cap" x="133" y="0" flags="0x1004"/>
    </TTGlyph>
    <TTGlyph name="Ucircumflex" xMin="103" yMin="-94" xMax="1689" yMax="1851">
      <component glyphName=".ttfautohint" x="103" y="0" flags="0x0"/>
      <component glyphName="U" x="0" y="0" flags="0x1204"/>
      <component glyphName="circumflex.cap" x="22" y="0" flags="0x1004"/>
    </TTGlyph>
    <TTGlyph name="Udieresis" xMin="103" yMin="-94" xMax="1689" yMax="1822">
      <component glyphName=".ttfautohint" x="103" y="0" flags="0x0"/>
      <component glyphName="U" x="0" y="0" flags="0x1204"/>
      <component glyphName="dieresis.cap" x="2" y="0" flags="0x1004"/>
    </TTGlyph>
    <TTGlyph name="Ugrave" xMin="103" yMin="-94" xMax="1689" yMax="1852">
      <component glyphName=".ttfautohint" x="103" y="0" flags="0x0"/>
      <component glyphName="U" x="0" y="0" flags="0x1204"/>
      <component glyphName="grave.cap" x="57" y="0" flags="0x1004"/>
    </TTGlyph>
    <TTGlyph name="V" xMin="-31" yMin="-110" xMax="1639" yMax="1624">
      <contour>
        <pt x="1438" y="1589" on="1"/>
        <pt x="1479" y="1624" on="0"/>
        <pt x="1548" y="1624" on="0"/>
        <pt x="1595" y="1591" on="0"/>
        <pt x="1610" y="1564" on="1"/>
        <pt x="1639" y="1512" on="0"/>
        <pt x="1639" y="1353" on="0"/>
        <pt x="1587" y="1166" on="0"/>
        <pt x="1499" y="971" on="0"/>
        <pt x="1383" y="773" on="0"/>
        <pt x="1254" y="583" on="0"/>
        <pt x="1120" y="404" on="0"/>
        <pt x="996" y="248" on="0"/>
        <pt x="891" y="120" on="0"/>
        <pt x="855" y="74" on="1"/>
        <pt x="764" y="-110" on="0"/>
        <pt x="654" y="-110" on="1"/>
        <pt x="581" y="-110" on="0"/>
        <pt x="480" y="-39" on="1"/>
        <pt x="375" y="35" on="0"/>
        <pt x="375" y="98" on="1"/>
        <pt x="375" y="150" on="0"/>
        <pt x="452" y="218" on="1"/>
        <pt x="471" y="236" on="0"/>
        <pt x="486" y="245" on="1"/>
        <pt x="590" y="431" on="0"/>
        <pt x="656" y="750" on="1"/>
        <pt x="693" y="931" on="0"/>
        <pt x="693" y="1083" on="1"/>
        <pt x="693" y="1329" on="0"/>
        <pt x="590" y="1418" on="1"/>
        <pt x="542" y="1459" on="0"/>
        <pt x="422" y="1459" on="0"/>
        <pt x="324" y="1405" on="0"/>
        <pt x="282" y="1358" on="1"/>
        <pt x="187" y="1251" on="0"/>
        <pt x="187" y="1118" on="1"/>
        <pt x="187" y="1008" on="0"/>
        <pt x="290" y="910" on="1"/>
        <pt x="252" y="858" on="0"/>
        <pt x="172" y="822" on="1"/>
        <pt x="149" y="812" on="0"/>
        <pt x="103" y="812" on="0"/>
        <pt x="44" y="840" on="0"/>
        <pt x="20" y="866" on="1"/>
        <pt x="-31" y="925" on="0"/>
        <pt x="-31" y="1081" on="0"/>
        <pt x="12" y="1215" on="0"/>
        <pt x="88" y="1337" on="0"/>
        <pt x="190" y="1441" on="0"/>
        <pt x="248" y="1480" on="1"/>
        <pt x="372" y="1561" on="0"/>
        <pt x="601" y="1561" on="0"/>
        <pt x="760" y="1477" on="0"/>
        <pt x="875" y="1332" on="0"/>
        <pt x="912" y="1234" on="1"/>
        <pt x="990" y="1029" on="0"/>
        <pt x="990" y="753" on="1"/>
        <pt x="990" y="655" on="0"/>
        <pt x="980" y="559" on="1"/>
        <pt x="1208" y="774" on="0"/>
        <pt x="1328" y="952" on="1"/>
        <pt x="1489" y="1191" on="0"/>
        <pt x="1489" y="1400" on="1"/>
        <pt x="1489" y="1519" on="0"/>
      </contour>
    </TTGlyph>
    <TTGlyph name="W" xMin="73" yMin="-30" xMax="2227" yMax="1624">
      <contour>
        <pt x="1246" y="-30" on="1"/>
        <pt x="1019" y="-30" on="0"/>
        <pt x="1019" y="259" on="1"/>
        <pt x="1019" y="391" on="0"/>
        <pt x="1067" y="589" on="1"/>
        <pt x="779" y="169" on="0"/>
        <pt x="480" y="37" on="1"/>
        <pt x="374" y="-10" on="0"/>
        <pt x="266" y="-10" on="1"/>
        <pt x="138" y="-10" on="0"/>
        <pt x="96" y="102" on="1"/>
        <pt x="83" y="135" on="0"/>
        <pt x="83" y="249" on="0"/>
        <pt x="123" y="414" on="0"/>
        <pt x="188" y="583" on="0"/>
        <pt x="271" y="754" on="0"/>
        <pt x="358" y="917" on="0"/>
        <pt x="399" y="993" on="1"/>
        <pt x="541" y="1256" on="0"/>
        <pt x="541" y="1433" on="0"/>
        <pt x="433" y="1433" on="1"/>
        <pt x="312" y="1433" on="0"/>
        <pt x="182" y="1306" on="1"/>
        <pt x="150" y="1274" on="0"/>
        <pt x="132" y="1249" on="1"/>
        <pt x="73" y="1280" on="0"/>
        <pt x="73" y="1346" on="0"/>
        <pt x="110" y="1403" on="0"/>
        <pt x="173" y="1456" on="0"/>
        <pt x="254" y="1502" on="0"/>
        <pt x="298" y="1520" on="1"/>
        <pt x="391" y="1557" on="0"/>
        <pt x="465" y="1557" on="1"/>
        <pt x="468" y="1557" on="0"/>
        <pt x="470" y="1557" on="1"/>
        <pt x="653" y="1557" on="0"/>
        <pt x="712" y="1425" on="1"/>
        <pt x="741" y="1362" on="0"/>
        <pt x="741" y="1198" on="0"/>
        <pt x="712" y="1028" on="0"/>
        <pt x="663" y="849" on="0"/>
        <pt x="640" y="770" on="1"/>
        <pt x="581" y="572" on="0"/>
        <pt x="581" y="535" on="1"/>
        <pt x="581" y="456" on="0"/>
        <pt x="640" y="456" on="1"/>
        <pt x="725" y="456" on="0"/>
        <pt x="884" y="624" on="1"/>
        <pt x="1055" y="806" on="0"/>
        <pt x="1212" y="1083" on="1"/>
        <pt x="1247" y="1168" on="0"/>
        <pt x="1344" y="1421" on="0"/>
        <pt x="1372" y="1490" on="0"/>
        <pt x="1412" y="1528" on="0"/>
        <pt x="1434" y="1538" on="1"/>
        <pt x="1469" y="1556" on="0"/>
        <pt x="1543" y="1556" on="0"/>
        <pt x="1557" y="1508" on="0"/>
        <pt x="1549" y="1473" on="1"/>
        <pt x="1533" y="1404" on="0"/>
        <pt x="1485" y="1322" on="1"/>
        <pt x="1394" y="944" on="0"/>
        <pt x="1394" y="638" on="1"/>
        <pt x="1394" y="395" on="0"/>
        <pt x="1465" y="395" on="1"/>
        <pt x="1589" y="395" on="0"/>
        <pt x="1758" y="610" on="1"/>
        <pt x="1921" y="817" on="0"/>
        <pt x="2013" y="1078" on="1"/>
        <pt x="2077" y="1258" on="0"/>
        <pt x="2077" y="1519" on="0"/>
        <pt x="2026" y="1589" on="1"/>
        <pt x="2067" y="1624" on="0"/>
        <pt x="2136" y="1624" on="0"/>
        <pt x="2183" y="1591" on="0"/>
        <pt x="2198" y="1564" on="1"/>
        <pt x="2227" y="1513" on="0"/>
        <pt x="2227" y="1345" on="0"/>
        <pt x="2179" y="1117" on="0"/>
        <pt x="2092" y="875" on="0"/>
        <pt x="1973" y="628" on="0"/>
        <pt x="1830" y="400" on="0"/>
        <pt x="1669" y="202" on="0"/>
        <pt x="1584" y="128" on="1"/>
        <pt x="1402" y="-30" on="0"/>
      </contour>
    </TTGlyph>
    <TTGlyph name="X" xMin="24" yMin="-30" xMax="1856" yMax="1574">
      <contour>
        <pt x="472" y="1492" on="1"/>
        <pt x="477" y="1574" on="0"/>
        <pt x="533" y="1574" on="1"/>
        <pt x="761" y="1574" on="0"/>
        <pt x="922" y="1360" on="1"/>
        <pt x="1014" y="1238" on="0"/>
        <pt x="1120" y="983" on="0"/>
        <pt x="1151" y="901" on="1"/>
        <pt x="1384" y="1165" on="0"/>
        <pt x="1473" y="1412" on="1"/>
        <pt x="1501" y="1489" on="0"/>
        <pt x="1505" y="1553" on="1"/>
        <pt x="1562" y="1564" on="0"/>
        <pt x="1577" y="1554" on="1"/>
        <pt x="1606" y="1535" on="0"/>
        <pt x="1606" y="1425" on="0"/>
        <pt x="1579" y="1287" on="0"/>
        <pt x="1530" y="1174" on="1"/>
        <pt x="1426" y="938" on="0"/>
        <pt x="1229" y="686" on="1"/>
        <pt x="1292" y="509" on="0"/>
        <pt x="1374" y="372" on="0"/>
        <pt x="1442" y="315" on="0"/>
        <pt x="1521" y="315" on="0"/>
        <pt x="1612" y="352" on="0"/>
        <pt x="1657" y="383" on="1"/>
        <pt x="1753" y="449" on="0"/>
        <pt x="1811" y="536" on="1"/>
        <pt x="1856" y="539" on="0"/>
        <pt x="1856" y="499" on="1"/>
        <pt x="1856" y="483" on="0"/>
        <pt x="1807" y="365" on="0"/>
        <pt x="1674" y="189" on="0"/>
        <pt x="1590" y="120" on="1"/>
        <pt x="1404" y="-30" on="0"/>
        <pt x="1206" y="-30" on="1"/>
        <pt x="1013" y="-30" on="0"/>
        <pt x="924" y="180" on="1"/>
        <pt x="896" y="245" on="0"/>
        <pt x="877" y="321" on="1"/>
        <pt x="498" y="1" on="0"/>
        <pt x="154" y="1" on="1"/>
        <pt x="24" y="1" on="0"/>
        <pt x="24" y="170" on="1"/>
        <pt x="24" y="273" on="0"/>
        <pt x="73" y="417" on="1"/>
        <pt x="175" y="377" on="0"/>
        <pt x="349" y="377" on="0"/>
        <pt x="485" y="409" on="0"/>
        <pt x="554" y="438" on="1"/>
        <pt x="689" y="496" on="0"/>
        <pt x="828" y="600" on="1"/>
        <pt x="815" y="701" on="0"/>
        <pt x="793" y="907" on="0"/>
        <pt x="762" y="1100" on="0"/>
        <pt x="717" y="1270" on="0"/>
        <pt x="682" y="1336" on="1"/>
        <pt x="606" y="1477" on="0"/>
      </contour>
    </TTGlyph>
    <TTGlyph name="Y" xMin="63" yMin="-119" xMax="1795" yMax="1626">
      <contour>
        <pt x="309" y="1336" on="1"/>
        <pt x="255" y="1365" on="0"/>
        <pt x="272" y="1421" on="1"/>
        <pt x="288" y="1474" on="0"/>
        <pt x="360" y="1514" on="1"/>
        <pt x="442" y="1559" on="0"/>
        <pt x="644" y="1559" on="0"/>
        <pt x="805" y="1457" on="0"/>
        <pt x="866" y="1364" on="1"/>
        <pt x="992" y="1175" on="0"/>
        <pt x="1025" y="861" on="1"/>
        <pt x="1079" y="940" on="0"/>
        <pt x="1188" y="1102" on="0"/>
        <pt x="1300" y="1256" on="0"/>
        <pt x="1415" y="1396" on="0"/>
        <pt x="1474" y="1454" on="1"/>
        <pt x="1603" y="1579" on="0"/>
        <pt x="1724" y="1624" on="1"/>
        <pt x="1729" y="1626" on="0"/>
        <pt x="1740" y="1626" on="0"/>
        <pt x="1756" y="1621" on="0"/>
        <pt x="1766" y="1613" on="1"/>
        <pt x="1789" y="1595" on="0"/>
        <pt x="1795" y="1572" on="1"/>
        <pt x="1567" y="1419" on="0"/>
        <pt x="1380" y="1030" on="1"/>
        <pt x="1326" y="918" on="0"/>
        <pt x="1226" y="689" on="0"/>
        <pt x="1127" y="463" on="0"/>
        <pt x="1022" y="258" on="0"/>
        <pt x="904" y="83" on="0"/>
        <pt x="834" y="18" on="1"/>
        <pt x="685" y="-119" on="0"/>
        <pt x="495" y="-119" on="1"/>
        <pt x="290" y="-119" on="0"/>
        <pt x="165" y="72" on="1"/>
        <pt x="98" y="174" on="0"/>
        <pt x="63" y="335" on="0"/>
        <pt x="63" y="381" on="0"/>
        <pt x="80" y="399" on="0"/>
        <pt x="92" y="407" on="1"/>
        <pt x="113" y="421" on="0"/>
        <pt x="143" y="429" on="1"/>
        <pt x="170" y="374" on="0"/>
        <pt x="244" y="332" on="1"/>
        <pt x="323" y="286" on="0"/>
        <pt x="402" y="286" on="1"/>
        <pt x="540" y="286" on="0"/>
        <pt x="689" y="429" on="1"/>
        <pt x="784" y="650" on="0"/>
        <pt x="784" y="917" on="1"/>
        <pt x="784" y="1129" on="0"/>
        <pt x="722" y="1274" on="1"/>
        <pt x="646" y="1450" on="0"/>
        <pt x="391" y="1450" on="0"/>
      </contour>
    </TTGlyph>
    <TTGlyph name="Yacute" xMin="63" yMin="-119" xMax="1795" yMax="1852">
      <component glyphName=".ttfautohint" x="63" y="0" flags="0x0"/>
      <component glyphName="Y" x="0" y="0" flags="0x1004"/>
      <component glyphName="acute.cap" x="228" y="0" flags="0x1004"/>
    </TTGlyph>
    <TTGlyph name="Ydieresis" xMin="63" yMin="-119" xMax="1795" yMax="1840">
      <component glyphName=".ttfautohint" x="63" y="0" flags="0x0"/>
      <component glyphName="Y" x="0" y="0" flags="0x1004"/>
      <component glyphName="dieresis.cap" x="2" y="18" flags="0x1004"/>
    </TTGlyph>
    <TTGlyph name="Z" xMin="-44" yMin="-33" xMax="1704" yMax="1561">
      <contour>
        <pt x="1335" y="55" on="1"/>
        <pt x="1238" y="88" on="0"/>
        <pt x="1023" y="88" on="1"/>
        <pt x="663" y="88" on="0"/>
        <pt x="312" y="19" on="1"/>
        <pt x="206" y="-2" on="0"/>
        <pt x="106" y="-33" on="0"/>
        <pt x="69" y="-33" on="0"/>
        <pt x="21" y="-8" on="0"/>
        <pt x="0" y="24" on="1"/>
        <pt x="-44" y="93" on="0"/>
        <pt x="-44" y="198" on="1"/>
        <pt x="-44" y="289" on="0"/>
        <pt x="-8" y="329" on="1"/>
        <pt x="21" y="360" on="0"/>
        <pt x="269" y="478" on="0"/>
        <pt x="463" y="568" on="0"/>
        <pt x="675" y="668" on="0"/>
        <pt x="894" y="779" on="0"/>
        <pt x="1100" y="896" on="0"/>
        <pt x="1280" y="1018" on="0"/>
        <pt x="1348" y="1080" on="1"/>
        <pt x="1493" y="1212" on="0"/>
        <pt x="1493" y="1322" on="1"/>
        <pt x="1493" y="1392" on="0"/>
        <pt x="1434" y="1417" on="1"/>
        <pt x="1370" y="1444" on="0"/>
        <pt x="1129" y="1444" on="0"/>
        <pt x="974" y="1431" on="0"/>
        <pt x="827" y="1405" on="0"/>
        <pt x="696" y="1367" on="0"/>
        <pt x="647" y="1342" on="1"/>
        <pt x="540" y="1289" on="0"/>
        <pt x="540" y="1164" on="0"/>
        <pt x="607" y="1129" on="1"/>
        <pt x="576" y="1084" on="0"/>
        <pt x="524" y="1084" on="0"/>
        <pt x="458" y="1099" on="0"/>
        <pt x="428" y="1114" on="1"/>
        <pt x="352" y="1153" on="0"/>
        <pt x="352" y="1263" on="0"/>
        <pt x="424" y="1361" on="0"/>
        <pt x="552" y="1440" on="0"/>
        <pt x="726" y="1500" on="0"/>
        <pt x="828" y="1520" on="1"/>
        <pt x="1030" y="1561" on="0"/>
        <pt x="1380" y="1561" on="0"/>
        <pt x="1543" y="1520" on="0"/>
        <pt x="1597" y="1482" on="1"/>
        <pt x="1704" y="1408" on="0"/>
        <pt x="1704" y="1279" on="1"/>
        <pt x="1704" y="1043" on="0"/>
        <pt x="1170" y="675" on="1"/>
        <pt x="935" y="513" on="0"/>
        <pt x="637" y="354" on="1"/>
        <pt x="1078" y="389" on="0"/>
        <pt x="1290" y="322" on="1"/>
        <pt x="1483" y="256" on="0"/>
        <pt x="1366" y="96" on="1"/>
        <pt x="1349" y="74" on="0"/>
      </contour>
    </TTGlyph>
    <TTGlyph name="a" xMin="38" yMin="0" xMax="1405" yMax="904">
      <contour>
        <pt x="646" y="160" on="1"/>
        <pt x="509" y="0" on="0"/>
        <pt x="312" y="0" on="1"/>
        <pt x="187" y="0" on="0"/>
        <pt x="112" y="75" on="1"/>
        <pt x="38" y="149" on="0"/>
        <pt x="38" y="270" on="1"/>
        <pt x="38" y="423" on="0"/>
        <pt x="158" y="567" on="1"/>
        <pt x="274" y="707" on="0"/>
        <pt x="462" y="795" on="1"/>
        <pt x="657" y="886" on="0"/>
        <pt x="865" y="886" on="1"/>
        <pt x="944" y="886" on="0"/>
        <pt x="978" y="861" on="1"/>
        <pt x="1005" y="893" on="0"/>
        <pt x="1048" y="904" on="0"/>
        <pt x="1060" y="904" on="1"/>
        <pt x="1098" y="904" on="0"/>
        <pt x="1141" y="893" on="1"/>
        <pt x="1137" y="880" on="0"/>
        <pt x="1111" y="817" on="0"/>
        <pt x="1079" y="731" on="0"/>
        <pt x="1061" y="680" on="1"/>
        <pt x="996" y="498" on="0"/>
        <pt x="996" y="317" on="0"/>
        <pt x="1053" y="317" on="1"/>
        <pt x="1127" y="317" on="0"/>
        <pt x="1218" y="384" on="1"/>
        <pt x="1299" y="445" on="0"/>
        <pt x="1360" y="536" on="1"/>
        <pt x="1405" y="539" on="0"/>
        <pt x="1405" y="499" on="1"/>
        <pt x="1405" y="465" on="0"/>
        <pt x="1322" y="325" on="0"/>
        <pt x="1244" y="223" on="0"/>
        <pt x="1148" y="125" on="0"/>
        <pt x="1094" y="86" on="1"/>
        <pt x="973" y="0" on="0"/>
        <pt x="858" y="0" on="1"/>
        <pt x="712" y="0" on="0"/>
        <pt x="662" y="88" on="1"/>
        <pt x="646" y="115" on="0"/>
        <pt x="646" y="156" on="0"/>
      </contour>
      <contour>
        <pt x="360" y="433" on="1"/>
        <pt x="360" y="317" on="0"/>
        <pt x="457" y="317" on="1"/>
        <pt x="564" y="317" on="0"/>
        <pt x="709" y="490" on="1"/>
        <pt x="786" y="582" on="0"/>
        <pt x="901" y="750" on="0"/>
        <pt x="931" y="794" on="1"/>
        <pt x="681" y="792" on="0"/>
        <pt x="516" y="680" on="1"/>
        <pt x="360" y="574" on="0"/>
      </contour>
    </TTGlyph>
    <TTGlyph name="aacute" xMin="38" yMin="0" xMax="1405" yMax="1468">
      <component glyphName=".ttfautohint" x="38" y="0" flags="0x0"/>
      <component glyphName="a" x="0" y="0" flags="0x1204"/>
      <component glyphName="acute" x="193" y="0" flags="0x1004"/>
    </TTGlyph>
    <TTGlyph name="acircumflex" xMin="38" yMin="0" xMax="1405" yMax="1468">
      <component glyphName=".ttfautohint" x="38" y="0" flags="0x0"/>
      <component glyphName="a" x="0" y="0" flags="0x1204"/>
      <component glyphName="circumflex" x="-11" y="0" flags="0x1004"/>
    </TTGlyph>
    <TTGlyph name="acute" xMin="448" yMin="1040" xMax="955" yMax="1468">
      <contour>
        <pt x="628" y="1073" on="0"/>
        <pt x="548" y="1040" on="0"/>
        <pt x="522" y="1040" on="0"/>
        <pt x="498" y="1053" on="0"/>
        <pt x="485" y="1063" on="1"/>
        <pt x="454" y="1087" on="0"/>
        <pt x="448" y="1102" on="1"/>
        <pt x="514" y="1148" on="0"/>
        <pt x="681" y="1304" on="0"/>
        <pt x="716" y="1341" on="1"/>
        <pt x="796" y="1425" on="0"/>
        <pt x="810" y="1468" on="1"/>
        <pt x="869" y="1455" on="0"/>
        <pt x="938" y="1386" on="1"/>
        <pt x="955" y="1369" on="0"/>
        <pt x="955" y="1332" on="0"/>
        <pt x="903" y="1266" on="0"/>
        <pt x="822" y="1196" on="0"/>
        <pt x="723" y="1127" on="0"/>
      </contour>
    </TTGlyph>
    <TTGlyph name="acute.cap" xMin="811" yMin="1634" xMax="1303" yMax="1852">
      <contour>
        <pt x="858" y="1634" on="1"/>
        <pt x="817" y="1634" on="0"/>
        <pt x="811" y="1705" on="1"/>
        <pt x="885" y="1709" on="0"/>
        <pt x="1117" y="1792" on="1"/>
        <pt x="1208" y="1825" on="0"/>
        <pt x="1253" y="1852" on="1"/>
        <pt x="1281" y="1837" on="0"/>
        <pt x="1298" y="1776" on="1"/>
        <pt x="1303" y="1760" on="0"/>
        <pt x="1303" y="1732" on="0"/>
        <pt x="1252" y="1703" on="0"/>
        <pt x="1172" y="1677" on="0"/>
        <pt x="1072" y="1656" on="0"/>
        <pt x="1022" y="1649" on="1"/>
        <pt x="916" y="1634" on="0"/>
      </contour>
    </TTGlyph>
    <TTGlyph name="adieresis" xMin="38" yMin="0" xMax="1405" yMax="1354">
      <component glyphName=".ttfautohint" x="38" y="0" flags="0x0"/>
      <component glyphName="a" x="0" y="0" flags="0x1204"/>
      <component glyphName="dieresis" x="-63" y="0" flags="0x1004"/>
    </TTGlyph>
    <TTGlyph name="ae" xMin="38" yMin="-29" xMax="1805" yMax="891">
      <contour>
        <pt x="1096" y="810" on="1"/>
        <pt x="1279" y="891" on="0"/>
        <pt x="1431" y="891" on="1"/>
        <pt x="1556" y="891" on="0"/>
        <pt x="1602" y="804" on="1"/>
        <pt x="1617" y="776" on="0"/>
        <pt x="1617" y="683" on="0"/>
        <pt x="1568" y="593" on="0"/>
        <pt x="1484" y="521" on="0"/>
        <pt x="1373" y="466" on="0"/>
        <pt x="1312" y="446" on="1"/>
        <pt x="1198" y="409" on="0"/>
        <pt x="1063" y="393" on="1"/>
        <pt x="1106" y="307" on="0"/>
        <pt x="1238" y="283" on="1"/>
        <pt x="1277" y="276" on="0"/>
        <pt x="1383" y="276" on="0"/>
        <pt x="1513" y="317" on="0"/>
        <pt x="1570" y="352" on="1"/>
        <pt x="1688" y="425" on="0"/>
        <pt x="1760" y="536" on="1"/>
        <pt x="1805" y="539" on="0"/>
        <pt x="1805" y="499" on="1"/>
        <pt x="1805" y="483" on="0"/>
        <pt x="1758" y="371" on="0"/>
        <pt x="1630" y="197" on="0"/>
        <pt x="1543" y="127" on="1"/>
        <pt x="1349" y="-29" on="0"/>
        <pt x="1114" y="-29" on="1"/>
        <pt x="880" y="-29" on="0"/>
        <pt x="764" y="90" on="1"/>
        <pt x="724" y="131" on="0"/>
        <pt x="702" y="187" on="1"/>
        <pt x="604" y="73" on="0"/>
        <pt x="430" y="18" on="1"/>
        <pt x="371" y="0" on="0"/>
        <pt x="249" y="0" on="0"/>
        <pt x="148" y="39" on="0"/>
        <pt x="112" y="75" on="1"/>
        <pt x="38" y="149" on="0"/>
        <pt x="38" y="270" on="1"/>
        <pt x="38" y="421" on="0"/>
        <pt x="153" y="562" on="1"/>
        <pt x="325" y="775" on="0"/>
        <pt x="638" y="846" on="1"/>
        <pt x="739" y="869" on="0"/>
        <pt x="925" y="869" on="0"/>
        <pt x="959" y="844" on="1"/>
        <pt x="994" y="891" on="0"/>
        <pt x="1059" y="886" on="1"/>
        <pt x="1088" y="884" on="0"/>
        <pt x="1121" y="876" on="1"/>
        <pt x="1116" y="862" on="0"/>
      </contour>
      <contour>
        <pt x="1310" y="778" on="1"/>
        <pt x="1211" y="778" on="0"/>
        <pt x="1132" y="686" on="1"/>
        <pt x="1055" y="598" on="0"/>
        <pt x="1047" y="486" on="1"/>
        <pt x="1178" y="501" on="0"/>
        <pt x="1276" y="557" on="1"/>
        <pt x="1381" y="617" on="0"/>
        <pt x="1381" y="778" on="0"/>
      </contour>
      <contour>
        <pt x="360" y="433" on="1"/>
        <pt x="360" y="317" on="0"/>
        <pt x="457" y="317" on="1"/>
        <pt x="562" y="317" on="0"/>
        <pt x="700" y="483" on="1"/>
        <pt x="773" y="571" on="0"/>
        <pt x="883" y="734" on="0"/>
        <pt x="912" y="777" on="1"/>
        <pt x="665" y="777" on="0"/>
        <pt x="508" y="672" on="1"/>
        <pt x="360" y="575" on="0"/>
      </contour>
    </TTGlyph>
    <TTGlyph name="agrave" xMin="38" yMin="0" xMax="1405" yMax="1462">
      <component glyphName=".ttfautohint" x="38" y="0" flags="0x0"/>
      <component glyphName="a" x="0" y="0" flags="0x1204"/>
      <component glyphName="grave" x="31" y="0" flags="0x1004"/>
    </TTGlyph>
    <TTGlyph name="ampersand" xMin="98" yMin="-1" xMax="1652" yMax="1377">
      <contour>
        <pt x="883" y="104" on="1"/>
        <pt x="693" y="-1" on="0"/>
        <pt x="535" y="-1" on="1"/>
        <pt x="345" y="-1" on="0"/>
        <pt x="225" y="99" on="1"/>
        <pt x="98" y="204" on="0"/>
        <pt x="98" y="384" on="1"/>
        <pt x="98" y="568" on="0"/>
        <pt x="348" y="708" on="1"/>
        <pt x="486" y="785" on="0"/>
        <pt x="777" y="887" on="0"/>
        <pt x="866" y="917" on="1"/>
        <pt x="983" y="1237" on="0"/>
        <pt x="1173" y="1340" on="1"/>
        <pt x="1241" y="1377" on="0"/>
        <pt x="1363" y="1377" on="0"/>
        <pt x="1432" y="1353" on="0"/>
        <pt x="1456" y="1332" on="1"/>
        <pt x="1507" y="1289" on="0"/>
        <pt x="1507" y="1162" on="0"/>
        <pt x="1442" y="1064" on="0"/>
        <pt x="1386" y="1023" on="1"/>
        <pt x="1294" y="955" on="0"/>
        <pt x="1104" y="882" on="1"/>
        <pt x="1103" y="859" on="0"/>
        <pt x="1103" y="814" on="1"/>
        <pt x="1103" y="670" on="0"/>
        <pt x="1151" y="537" on="1"/>
        <pt x="1341" y="667" on="0"/>
        <pt x="1394" y="807" on="1"/>
        <pt x="1404" y="805" on="0"/>
        <pt x="1426" y="801" on="0"/>
        <pt x="1435" y="796" on="1"/>
        <pt x="1455" y="786" on="0"/>
        <pt x="1455" y="730" on="0"/>
        <pt x="1424" y="644" on="0"/>
        <pt x="1396" y="596" on="1"/>
        <pt x="1334" y="491" on="0"/>
        <pt x="1239" y="390" on="1"/>
        <pt x="1289" y="343" on="0"/>
        <pt x="1386" y="343" on="0"/>
        <pt x="1462" y="359" on="0"/>
        <pt x="1498" y="372" on="1"/>
        <pt x="1579" y="399" on="0"/>
        <pt x="1615" y="433" on="1"/>
        <pt x="1652" y="418" on="0"/>
        <pt x="1652" y="384" on="1"/>
        <pt x="1652" y="362" on="0"/>
        <pt x="1591" y="252" on="0"/>
        <pt x="1529" y="172" on="0"/>
        <pt x="1448" y="95" on="0"/>
        <pt x="1396" y="65" on="1"/>
        <pt x="1282" y="-1" on="0"/>
        <pt x="984" y="-1" on="0"/>
      </contour>
      <contour>
        <pt x="1116" y="1004" on="1"/>
        <pt x="1382" y="1105" on="0"/>
        <pt x="1382" y="1202" on="1"/>
        <pt x="1382" y="1258" on="0"/>
        <pt x="1331" y="1273" on="1"/>
        <pt x="1317" y="1277" on="0"/>
        <pt x="1266" y="1277" on="0"/>
        <pt x="1205" y="1235" on="0"/>
        <pt x="1182" y="1198" on="1"/>
        <pt x="1135" y="1124" on="0"/>
      </contour>
      <contour>
        <pt x="537" y="625" on="0"/>
        <pt x="483" y="548" on="0"/>
        <pt x="483" y="433" on="0"/>
        <pt x="570" y="357" on="0"/>
        <pt x="704" y="357" on="0"/>
        <pt x="774" y="371" on="1"/>
        <pt x="773" y="379" on="0"/>
        <pt x="773" y="388" on="1"/>
        <pt x="773" y="405" on="1"/>
        <pt x="773" y="581" on="0"/>
        <pt x="823" y="777" on="1"/>
        <pt x="663" y="715" on="0"/>
      </contour>
    </TTGlyph>
    <TTGlyph name="aring" xMin="38" yMin="0" xMax="1405" yMax="1418">
      <component glyphName=".ttfautohint" x="38" y="0" flags="0x0"/>
      <component glyphName="a" x="0" y="0" flags="0x1204"/>
      <component glyphName="ring" x="150" y="0" flags="0x1004"/>
    </TTGlyph>
    <TTGlyph name="asciicircum" xMin="161" yMin="325" xMax="1013" yMax="872">
      <contour>
        <pt x="376" y="370" on="0"/>
        <pt x="281" y="325" on="0"/>
        <pt x="250" y="325" on="0"/>
        <pt x="221" y="341" on="0"/>
        <pt x="206" y="353" on="1"/>
        <pt x="170" y="381" on="0"/>
        <pt x="161" y="400" on="1"/>
        <pt x="251" y="462" on="0"/>
        <pt x="487" y="663" on="0"/>
        <pt x="537" y="711" on="1"/>
        <pt x="651" y="821" on="0"/>
        <pt x="669" y="872" on="1"/>
        <pt x="743" y="864" on="0"/>
        <pt x="757" y="852" on="1"/>
        <pt x="811" y="695" on="0"/>
        <pt x="921" y="515" on="1"/>
        <pt x="975" y="426" on="0"/>
        <pt x="1013" y="400" on="1"/>
        <pt x="997" y="365" on="0"/>
        <pt x="943" y="327" on="0"/>
        <pt x="903" y="327" on="0"/>
        <pt x="829" y="371" on="0"/>
        <pt x="792" y="406" on="1"/>
        <pt x="722" y="471" on="0"/>
        <pt x="661" y="567" on="1"/>
        <pt x="565" y="487" on="0"/>
      </contour>
    </TTGlyph>
    <TTGlyph name="asciitilde" xMin="174" yMin="390" xMax="1089" yMax="793">
      <contour>
        <pt x="1010" y="729" on="1"/>
        <pt x="1089" y="684" on="0"/>
        <pt x="1089" y="634" on="0"/>
        <pt x="1065" y="575" on="0"/>
        <pt x="1023" y="515" on="0"/>
        <pt x="966" y="459" on="0"/>
        <pt x="933" y="438" on="1"/>
        <pt x="860" y="390" on="0"/>
        <pt x="745" y="390" on="0"/>
        <pt x="679" y="417" on="0"/>
        <pt x="628" y="459" on="0"/>
        <pt x="586" y="506" on="0"/>
        <pt x="566" y="527" on="1"/>
        <pt x="519" y="575" on="0"/>
        <pt x="476" y="575" on="1"/>
        <pt x="378" y="575" on="0"/>
        <pt x="251" y="452" on="1"/>
        <pt x="174" y="516" on="0"/>
        <pt x="174" y="540" on="1"/>
        <pt x="174" y="564" on="0"/>
        <pt x="269" y="682" on="0"/>
        <pt x="314" y="716" on="1"/>
        <pt x="414" y="793" on="0"/>
        <pt x="516" y="793" on="1"/>
        <pt x="590" y="793" on="0"/>
        <pt x="688" y="740" on="0"/>
        <pt x="739" y="704" on="0"/>
        <pt x="764" y="688" on="1"/>
        <pt x="822" y="651" on="0"/>
        <pt x="939" y="651" on="0"/>
      </contour>
    </TTGlyph>
    <TTGlyph name="asterisk" xMin="317" yMin="834" xMax="1147" yMax="1583">
      <contour>
        <pt x="853" y="1188" on="1"/>
        <pt x="950" y="1101" on="0"/>
        <pt x="1011" y="1051" on="1"/>
        <pt x="996" y="1022" on="0"/>
        <pt x="970" y="1008" on="1"/>
        <pt x="923" y="983" on="0"/>
        <pt x="901" y="995" on="1"/>
        <pt x="843" y="1027" on="0"/>
        <pt x="754" y="1086" on="1"/>
        <pt x="683" y="906" on="0"/>
        <pt x="647" y="863" on="1"/>
        <pt x="622" y="834" on="0"/>
        <pt x="579" y="834" on="1"/>
        <pt x="555" y="834" on="0"/>
        <pt x="540" y="845" on="1"/>
        <pt x="575" y="933" on="0"/>
        <pt x="616" y="1073" on="1"/>
        <pt x="416" y="984" on="0"/>
        <pt x="364" y="984" on="0"/>
        <pt x="339" y="1003" on="0"/>
        <pt x="332" y="1016" on="1"/>
        <pt x="317" y="1043" on="0"/>
        <pt x="317" y="1067" on="1"/>
        <pt x="439" y="1128" on="0"/>
        <pt x="589" y="1211" on="1"/>
        <pt x="440" y="1336" on="0"/>
        <pt x="440" y="1405" on="1"/>
        <pt x="440" y="1445" on="0"/>
        <pt x="496" y="1490" on="1"/>
        <pt x="512" y="1503" on="0"/>
        <pt x="529" y="1512" on="1"/>
        <pt x="546" y="1474" on="0"/>
        <pt x="688" y="1341" on="1"/>
        <pt x="733" y="1528" on="0"/>
        <pt x="733" y="1583" on="1"/>
        <pt x="741" y="1583" on="0"/>
        <pt x="777" y="1583" on="0"/>
        <pt x="823" y="1576" on="0"/>
        <pt x="838" y="1564" on="1"/>
        <pt x="866" y="1543" on="0"/>
        <pt x="866" y="1505" on="1"/>
        <pt x="866" y="1451" on="0"/>
        <pt x="841" y="1351" on="1"/>
        <pt x="1037" y="1463" on="0"/>
        <pt x="1095" y="1512" on="1"/>
        <pt x="1147" y="1462" on="0"/>
        <pt x="1147" y="1429" on="1"/>
        <pt x="1147" y="1363" on="0"/>
        <pt x="1005" y="1274" on="1"/>
        <pt x="937" y="1232" on="0"/>
      </contour>
    </TTGlyph>
    <TTGlyph name="at" xMin="22" yMin="-192" xMax="1447" yMax="1009">
      <contour>
        <pt x="1027" y="406" on="1"/>
        <pt x="1027" y="339" on="0"/>
        <pt x="1113" y="339" on="0"/>
        <pt x="1202" y="395" on="0"/>
        <pt x="1238" y="442" on="1"/>
        <pt x="1318" y="550" on="0"/>
        <pt x="1318" y="681" on="1"/>
        <pt x="1318" y="804" on="0"/>
        <pt x="1234" y="870" on="1"/>
        <pt x="1157" y="931" on="0"/>
        <pt x="1018" y="931" on="1"/>
        <pt x="848" y="931" on="0"/>
        <pt x="656" y="840" on="1"/>
        <pt x="460" y="746" on="0"/>
        <pt x="334" y="606" on="1"/>
        <pt x="196" y="450" on="0"/>
        <pt x="196" y="288" on="1"/>
        <pt x="196" y="182" on="0"/>
        <pt x="246" y="110" on="1"/>
        <pt x="357" y="-50" on="0"/>
        <pt x="612" y="-50" on="1"/>
        <pt x="699" y="-50" on="0"/>
        <pt x="789" y="-29" on="1"/>
        <pt x="821" y="-75" on="0"/>
        <pt x="772" y="-118" on="0"/>
        <pt x="702" y="-155" on="0"/>
        <pt x="664" y="-168" on="1"/>
        <pt x="590" y="-192" on="0"/>
        <pt x="407" y="-192" on="0"/>
        <pt x="230" y="-137" on="0"/>
        <pt x="164" y="-83" on="1"/>
        <pt x="22" y="33" on="0"/>
        <pt x="22" y="236" on="1"/>
        <pt x="22" y="415" on="0"/>
        <pt x="178" y="601" on="1"/>
        <pt x="327" y="777" on="0"/>
        <pt x="560" y="891" on="1"/>
        <pt x="801" y="1009" on="0"/>
        <pt x="1036" y="1009" on="1"/>
        <pt x="1329" y="1009" on="0"/>
        <pt x="1417" y="822" on="1"/>
        <pt x="1447" y="759" on="0"/>
        <pt x="1447" y="599" on="0"/>
        <pt x="1410" y="460" on="0"/>
        <pt x="1344" y="336" on="0"/>
        <pt x="1249" y="232" on="0"/>
        <pt x="1192" y="194" on="1"/>
        <pt x="1072" y="114" on="0"/>
        <pt x="930" y="114" on="1"/>
        <pt x="826" y="114" on="0"/>
        <pt x="790" y="176" on="1"/>
        <pt x="778" y="198" on="0"/>
        <pt x="779" y="228" on="1"/>
        <pt x="676" y="114" on="0"/>
        <pt x="541" y="114" on="1"/>
        <pt x="452" y="114" on="0"/>
        <pt x="398" y="168" on="1"/>
        <pt x="346" y="220" on="0"/>
        <pt x="346" y="361" on="0"/>
        <pt x="391" y="469" on="0"/>
        <pt x="470" y="569" on="0"/>
        <pt x="580" y="654" on="0"/>
        <pt x="645" y="685" on="1"/>
        <pt x="785" y="752" on="0"/>
        <pt x="931" y="752" on="1"/>
        <pt x="982" y="752" on="0"/>
        <pt x="1001" y="719" on="1"/>
        <pt x="1006" y="725" on="0"/>
        <pt x="1013" y="737" on="0"/>
        <pt x="1021" y="746" on="1"/>
        <pt x="1047" y="777" on="0"/>
        <pt x="1128" y="757" on="1"/>
        <pt x="1027" y="515" on="0"/>
      </contour>
      <contour>
        <pt x="584" y="412" on="1"/>
        <pt x="584" y="371" on="0"/>
        <pt x="610" y="339" on="0"/>
        <pt x="683" y="339" on="0"/>
        <pt x="767" y="401" on="0"/>
        <pt x="808" y="448" on="1"/>
        <pt x="865" y="516" on="0"/>
        <pt x="957" y="654" on="1"/>
        <pt x="786" y="650" on="0"/>
        <pt x="682" y="573" on="1"/>
        <pt x="584" y="501" on="0"/>
      </contour>
    </TTGlyph>
    <TTGlyph name="atilde" xMin="38" yMin="0" xMax="1405" yMax="1380">
      <component glyphName=".ttfautohint" x="38" y="0" flags="0x0"/>
      <component glyphName="a" x="0" y="0" flags="0x1204"/>
      <component glyphName="tilde" x="127" y="0" flags="0x1004"/>
    </TTGlyph>
    <TTGlyph name="b" xMin="44" yMin="-1" xMax="1298" yMax="1382">
      <contour>
        <pt x="499" y="806" on="1"/>
        <pt x="633" y="885" on="0"/>
        <pt x="760" y="885" on="1"/>
        <pt x="962" y="885" on="0"/>
        <pt x="1014" y="731" on="1"/>
        <pt x="1030" y="684" on="0"/>
        <pt x="1030" y="614" on="1"/>
        <pt x="1030" y="462" on="0"/>
        <pt x="918" y="301" on="1"/>
        <pt x="1012" y="314" on="0"/>
        <pt x="1188" y="437" on="0"/>
        <pt x="1253" y="536" on="1"/>
        <pt x="1298" y="539" on="0"/>
        <pt x="1298" y="499" on="1"/>
        <pt x="1298" y="483" on="0"/>
        <pt x="1288" y="460" on="1"/>
        <pt x="1098" y="-1" on="0"/>
        <pt x="365" y="-1" on="1"/>
        <pt x="363" y="-1" on="1"/>
        <pt x="228" y="-1" on="0"/>
        <pt x="140" y="78" on="1"/>
        <pt x="44" y="165" on="0"/>
        <pt x="44" y="321" on="1"/>
        <pt x="44" y="513" on="0"/>
        <pt x="394" y="1015" on="1"/>
        <pt x="542" y="1229" on="0"/>
        <pt x="647" y="1349" on="1"/>
        <pt x="676" y="1382" on="0"/>
        <pt x="725" y="1382" on="1"/>
        <pt x="779" y="1382" on="0"/>
        <pt x="804" y="1342" on="1"/>
        <pt x="598" y="1019" on="0"/>
      </contour>
      <contour>
        <pt x="396" y="529" on="1"/>
        <pt x="383" y="466" on="0"/>
        <pt x="383" y="380" on="0"/>
        <pt x="435" y="321" on="0"/>
        <pt x="518" y="321" on="0"/>
        <pt x="604" y="350" on="0"/>
        <pt x="686" y="400" on="0"/>
        <pt x="760" y="467" on="0"/>
        <pt x="788" y="506" on="1"/>
        <pt x="848" y="590" on="0"/>
        <pt x="848" y="665" on="1"/>
        <pt x="848" y="713" on="0"/>
        <pt x="824" y="738" on="1"/>
        <pt x="784" y="780" on="0"/>
        <pt x="685" y="780" on="0"/>
        <pt x="583" y="739" on="0"/>
        <pt x="538" y="704" on="1"/>
        <pt x="441" y="631" on="0"/>
      </contour>
    </TTGlyph>
    <TTGlyph name="backslash" xMin="260" yMin="-247" xMax="726" yMax="1666">
      <contour>
        <pt x="260" y="1650" on="1"/>
        <pt x="305" y="1666" on="0"/>
        <pt x="334" y="1666" on="1"/>
        <pt x="394" y="1666" on="0"/>
        <pt x="564" y="842" on="1"/>
        <pt x="679" y="282" on="0"/>
        <pt x="718" y="-46" on="1"/>
        <pt x="726" y="-117" on="0"/>
        <pt x="726" y="-174" on="0"/>
        <pt x="707" y="-209" on="0"/>
        <pt x="684" y="-221" on="1"/>
        <pt x="638" y="-245" on="0"/>
        <pt x="524" y="-247" on="1"/>
        <pt x="526" y="-221" on="0"/>
        <pt x="526" y="-143" on="0"/>
        <pt x="517" y="17" on="0"/>
        <pt x="490" y="281" on="0"/>
        <pt x="452" y="586" on="0"/>
        <pt x="407" y="894" on="0"/>
        <pt x="359" y="1189" on="0"/>
        <pt x="336" y="1312" on="1"/>
        <pt x="285" y="1581" on="0"/>
      </contour>
    </TTGlyph>
    <TTGlyph name="bar" xMin="194" yMin="-208" xMax="1108" yMax="1613">
      <contour>
        <pt x="1026" y="1613" on="1"/>
        <pt x="1108" y="1586" on="0"/>
        <pt x="1108" y="1567" on="1"/>
        <pt x="1108" y="1490" on="0"/>
        <pt x="974" y="1104" on="1"/>
        <pt x="788" y="567" on="0"/>
        <pt x="590" y="141" on="1"/>
        <pt x="427" y="-208" on="0"/>
        <pt x="373" y="-208" on="1"/>
        <pt x="343" y="-208" on="0"/>
        <pt x="297" y="-186" on="1"/>
        <pt x="213" y="-147" on="0"/>
        <pt x="194" y="-121" on="1"/>
        <pt x="310" y="-19" on="0"/>
        <pt x="656" y="724" on="1"/>
        <pt x="982" y="1422" on="0"/>
      </contour>
    </TTGlyph>
    <TTGlyph name="braceleft" xMin="130" yMin="-347" xMax="1261" yMax="1592">
      <contour>
        <pt x="493" y="251" on="0"/>
        <pt x="446" y="104" on="0"/>
        <pt x="423" y="-30" on="0"/>
        <pt x="423" y="-182" on="0"/>
        <pt x="453" y="-262" on="1"/>
        <pt x="393" y="-313" on="0"/>
        <pt x="307" y="-338" on="1"/>
        <pt x="278" y="-347" on="0"/>
        <pt x="233" y="-347" on="0"/>
        <pt x="189" y="-319" on="0"/>
        <pt x="171" y="-292" on="1"/>
        <pt x="130" y="-230" on="0"/>
        <pt x="130" y="-48" on="0"/>
        <pt x="191" y="127" on="0"/>
        <pt x="277" y="299" on="0"/>
        <pt x="322" y="382" on="1"/>
        <pt x="437" y="589" on="0"/>
        <pt x="437" y="697" on="1"/>
        <pt x="437" y="751" on="0"/>
        <pt x="406" y="795" on="1"/>
        <pt x="416" y="810" on="0"/>
        <pt x="434" y="841" on="0"/>
        <pt x="444" y="853" on="1"/>
        <pt x="468" y="879" on="0"/>
        <pt x="556" y="888" on="0"/>
        <pt x="643" y="954" on="0"/>
        <pt x="716" y="1055" on="0"/>
        <pt x="780" y="1182" on="0"/>
        <pt x="845" y="1312" on="0"/>
        <pt x="916" y="1436" on="0"/>
        <pt x="960" y="1484" on="1"/>
        <pt x="1056" y="1592" on="0"/>
        <pt x="1181" y="1592" on="1"/>
        <pt x="1227" y="1592" on="0"/>
        <pt x="1261" y="1553" on="0"/>
        <pt x="1261" y="1519" on="0"/>
        <pt x="1250" y="1499" on="1"/>
        <pt x="1222" y="1504" on="0"/>
        <pt x="1208" y="1504" on="1"/>
        <pt x="1047" y="1504" on="0"/>
        <pt x="950" y="1289" on="1"/>
        <pt x="922" y="1227" on="0"/>
        <pt x="870" y="1096" on="0"/>
        <pt x="815" y="965" on="0"/>
        <pt x="780" y="910" on="1"/>
        <pt x="701" y="788" on="0"/>
        <pt x="591" y="765" on="1"/>
        <pt x="618" y="727" on="0"/>
        <pt x="618" y="628" on="0"/>
        <pt x="592" y="520" on="0"/>
        <pt x="545" y="391" on="0"/>
      </contour>
    </TTGlyph>
    <TTGlyph name="braceright" xMin="80" yMin="-363" xMax="1121" yMax="1607">
      <contour>
        <pt x="985" y="1301" on="0"/>
        <pt x="1027" y="1421" on="0"/>
        <pt x="1027" y="1520" on="0"/>
        <pt x="995" y="1589" on="1"/>
        <pt x="1019" y="1607" on="0"/>
        <pt x="1042" y="1607" on="0"/>
        <pt x="1067" y="1605" on="0"/>
        <pt x="1084" y="1585" on="1"/>
        <pt x="1121" y="1541" on="0"/>
        <pt x="1121" y="1436" on="1"/>
        <pt x="1121" y="1360" on="0"/>
        <pt x="1044" y="1147" on="0"/>
        <pt x="1021" y="1088" on="1"/>
        <pt x="975" y="969" on="0"/>
        <pt x="975" y="903" on="1"/>
        <pt x="975" y="855" on="0"/>
        <pt x="1006" y="837" on="1"/>
        <pt x="1030" y="788" on="0"/>
        <pt x="982" y="746" on="1"/>
        <pt x="970" y="736" on="0"/>
        <pt x="961" y="732" on="1"/>
        <pt x="855" y="694" on="0"/>
        <pt x="778" y="511" on="1"/>
        <pt x="744" y="430" on="0"/>
        <pt x="686" y="237" on="0"/>
        <pt x="626" y="43" on="0"/>
        <pt x="555" y="-139" on="0"/>
        <pt x="506" y="-209" on="1"/>
        <pt x="400" y="-363" on="0"/>
        <pt x="239" y="-363" on="1"/>
        <pt x="162" y="-363" on="0"/>
        <pt x="116" y="-285" on="1"/>
        <pt x="83" y="-231" on="0"/>
        <pt x="80" y="-176" on="1"/>
        <pt x="261" y="-141" on="0"/>
        <pt x="391" y="140" on="1"/>
        <pt x="428" y="220" on="0"/>
        <pt x="498" y="388" on="0"/>
        <pt x="573" y="553" on="0"/>
        <pt x="618" y="624" on="1"/>
        <pt x="721" y="782" on="0"/>
        <pt x="854" y="826" on="1"/>
        <pt x="825" y="859" on="0"/>
        <pt x="825" y="950" on="0"/>
        <pt x="865" y="1061" on="0"/>
        <pt x="927" y="1180" on="0"/>
      </contour>
    </TTGlyph>
    <TTGlyph name="bracketleft" xMin="118" yMin="-339" xMax="1327" yMax="1580">
      <contour>
        <pt x="118" y="-234" on="1"/>
        <pt x="118" y="-24" on="0"/>
        <pt x="338" y="460" on="1"/>
        <pt x="528" y="880" on="0"/>
        <pt x="763" y="1260" on="1"/>
        <pt x="905" y="1489" on="0"/>
        <pt x="987" y="1562" on="1"/>
        <pt x="1008" y="1580" on="0"/>
        <pt x="1127" y="1580" on="0"/>
        <pt x="1190" y="1577" on="0"/>
        <pt x="1224" y="1572" on="1"/>
        <pt x="1327" y="1559" on="0"/>
        <pt x="1327" y="1541" on="1"/>
        <pt x="1327" y="1511" on="0"/>
        <pt x="1295" y="1463" on="1"/>
        <pt x="1177" y="1479" on="0"/>
        <pt x="1072" y="1474" on="1"/>
        <pt x="956" y="1363" on="0"/>
        <pt x="668" y="572" on="1"/>
        <pt x="518" y="159" on="0"/>
        <pt x="455" y="-111" on="1"/>
        <pt x="507" y="-127" on="0"/>
        <pt x="657" y="-139" on="0"/>
        <pt x="680" y="-137" on="1"/>
        <pt x="629" y="-331" on="0"/>
        <pt x="593" y="-335" on="1"/>
        <pt x="569" y="-339" on="0"/>
        <pt x="481" y="-339" on="0"/>
        <pt x="375" y="-332" on="0"/>
        <pt x="265" y="-315" on="0"/>
        <pt x="220" y="-302" on="1"/>
        <pt x="118" y="-274" on="0"/>
      </contour>
    </TTGlyph>
    <TTGlyph name="bracketright" xMin="30" yMin="-368" xMax="1122" yMax="1586">
      <contour>
        <pt x="104" y="-355" on="0"/>
        <pt x="41" y="-342" on="0"/>
        <pt x="30" y="-325" on="0"/>
        <pt x="30" y="-194" on="0"/>
        <pt x="55" y="-126" on="1"/>
        <pt x="177" y="-134" on="0"/>
        <pt x="243" y="-124" on="1"/>
        <pt x="329" y="-13" on="0"/>
        <pt x="598" y="554" on="1"/>
        <pt x="893" y="1178" on="0"/>
        <pt x="976" y="1460" on="1"/>
        <pt x="923" y="1471" on="0"/>
        <pt x="738" y="1477" on="1"/>
        <pt x="742" y="1529" on="0"/>
        <pt x="778" y="1577" on="0"/>
        <pt x="815" y="1584" on="0"/>
        <pt x="877" y="1586" on="0"/>
        <pt x="950" y="1586" on="0"/>
        <pt x="988" y="1584" on="1"/>
        <pt x="1122" y="1575" on="0"/>
        <pt x="1122" y="1525" on="0"/>
        <pt x="1066" y="1271" on="0"/>
        <pt x="1006" y="1045" on="0"/>
        <pt x="933" y="801" on="0"/>
        <pt x="854" y="554" on="0"/>
        <pt x="771" y="312" on="0"/>
        <pt x="690" y="92" on="0"/>
        <pt x="615" y="-99" on="0"/>
        <pt x="582" y="-172" on="1"/>
        <pt x="514" y="-326" on="0"/>
        <pt x="483" y="-349" on="1"/>
        <pt x="458" y="-368" on="0"/>
        <pt x="291" y="-368" on="0"/>
        <pt x="196" y="-364" on="0"/>
      </contour>
    </TTGlyph>
    <TTGlyph name="brokenbar" xMin="200" yMin="-208" xMax="1108" yMax="1613">
      <contour>
        <pt x="1026" y="1613" on="1"/>
        <pt x="1108" y="1591" on="0"/>
        <pt x="1108" y="1565" on="1"/>
        <pt x="1108" y="1496" on="0"/>
        <pt x="998" y="1174" on="1"/>
        <pt x="887" y="852" on="0"/>
        <pt x="860" y="852" on="1"/>
        <pt x="812" y="852" on="0"/>
        <pt x="739" y="901" on="1"/>
        <pt x="896" y="1219" on="0"/>
        <pt x="1008" y="1551" on="1"/>
        <pt x="1022" y="1594" on="0"/>
      </contour>
      <contour>
        <pt x="200" y="-123" on="1"/>
        <pt x="276" y="-44" on="0"/>
        <pt x="485" y="370" on="1"/>
        <pt x="548" y="494" on="0"/>
        <pt x="611" y="627" on="1"/>
        <pt x="680" y="603" on="0"/>
        <pt x="744" y="560" on="0"/>
        <pt x="744" y="534" on="0"/>
        <pt x="718" y="454" on="0"/>
        <pt x="675" y="342" on="0"/>
        <pt x="618" y="209" on="0"/>
        <pt x="555" y="74" on="0"/>
        <pt x="491" y="-52" on="0"/>
        <pt x="462" y="-100" on="1"/>
        <pt x="399" y="-208" on="0"/>
        <pt x="373" y="-208" on="1"/>
        <pt x="327" y="-208" on="0"/>
        <pt x="232" y="-146" on="1"/>
        <pt x="209" y="-132" on="0"/>
      </contour>
    </TTGlyph>
    <TTGlyph name="bullet" xMin="341" yMin="335" xMax="859" yMax="739">
      <contour>
        <pt x="341" y="498" on="1"/>
        <pt x="341" y="536" on="0"/>
        <pt x="392" y="625" on="0"/>
        <pt x="436" y="660" on="1"/>
        <pt x="534" y="739" on="0"/>
        <pt x="655" y="739" on="1"/>
        <pt x="742" y="739" on="0"/>
        <pt x="801" y="687" on="1"/>
        <pt x="859" y="635" on="0"/>
        <pt x="859" y="561" on="1"/>
        <pt x="859" y="482" on="0"/>
        <pt x="747" y="407" on="1"/>
        <pt x="639" y="335" on="0"/>
        <pt x="527" y="335" on="1"/>
        <pt x="463" y="335" on="0"/>
        <pt x="404" y="383" on="1"/>
        <pt x="341" y="434" on="0"/>
      </contour>
    </TTGlyph>
    <TTGlyph name="c" xMin="50" yMin="-15" xMax="1079" yMax="885">
      <contour>
        <pt x="820" y="726" on="1"/>
        <pt x="744" y="766" on="0"/>
        <pt x="627" y="766" on="0"/>
        <pt x="532" y="713" on="0"/>
        <pt x="496" y="670" on="1"/>
        <pt x="420" y="579" on="0"/>
        <pt x="420" y="468" on="1"/>
        <pt x="420" y="384" on="0"/>
        <pt x="480" y="336" on="1"/>
        <pt x="535" y="290" on="0"/>
        <pt x="749" y="290" on="0"/>
        <pt x="956" y="417" on="0"/>
        <pt x="1034" y="536" on="1"/>
        <pt x="1079" y="539" on="0"/>
        <pt x="1079" y="499" on="1"/>
        <pt x="1079" y="483" on="0"/>
        <pt x="1030" y="366" on="0"/>
        <pt x="902" y="194" on="0"/>
        <pt x="818" y="128" on="1"/>
        <pt x="636" y="-15" on="0"/>
        <pt x="422" y="-15" on="1"/>
        <pt x="249" y="-15" on="0"/>
        <pt x="150" y="74" on="1"/>
        <pt x="50" y="164" on="0"/>
        <pt x="50" y="333" on="1"/>
        <pt x="50" y="465" on="0"/>
        <pt x="154" y="598" on="1"/>
        <pt x="251" y="723" on="0"/>
        <pt x="399" y="803" on="1"/>
        <pt x="550" y="885" on="0"/>
        <pt x="681" y="885" on="1"/>
        <pt x="752" y="885" on="0"/>
        <pt x="791" y="861" on="1"/>
        <pt x="859" y="819" on="0"/>
        <pt x="859" y="781" on="1"/>
        <pt x="859" y="740" on="0"/>
      </contour>
    </TTGlyph>
    <TTGlyph name="caron" xMin="458" yMin="1040" xMax="1146" yMax="1468">
      <contour>
        <pt x="734" y="1040" on="1"/>
        <pt x="670" y="1049" on="0"/>
        <pt x="661" y="1058" on="1"/>
        <pt x="618" y="1186" on="0"/>
        <pt x="532" y="1318" on="1"/>
        <pt x="487" y="1386" on="0"/>
        <pt x="458" y="1406" on="1"/>
        <pt x="469" y="1436" on="0"/>
        <pt x="517" y="1467" on="0"/>
        <pt x="550" y="1467" on="0"/>
        <pt x="608" y="1438" on="0"/>
        <pt x="637" y="1414" on="1"/>
        <pt x="692" y="1368" on="0"/>
        <pt x="741" y="1293" on="1"/>
        <pt x="867" y="1397" on="0"/>
        <pt x="1009" y="1453" on="1"/>
        <pt x="1047" y="1468" on="0"/>
        <pt x="1072" y="1468" on="0"/>
        <pt x="1096" y="1455" on="0"/>
        <pt x="1109" y="1445" on="1"/>
        <pt x="1140" y="1421" on="0"/>
        <pt x="1146" y="1406" on="1"/>
        <pt x="891" y="1231" on="0"/>
        <pt x="772" y="1097" on="1"/>
        <pt x="742" y="1064" on="0"/>
      </contour>
    </TTGlyph>
    <TTGlyph name="caron.cap" xMin="765" yMin="1618" xMax="1471" yMax="1852">
      <contour>
        <pt x="1084" y="1722" on="1"/>
        <pt x="1367" y="1852" on="0"/>
        <pt x="1401" y="1852" on="0"/>
        <pt x="1427" y="1838" on="0"/>
        <pt x="1438" y="1828" on="1"/>
        <pt x="1464" y="1805" on="0"/>
        <pt x="1471" y="1788" on="1"/>
        <pt x="1422" y="1764" on="0"/>
        <pt x="1299" y="1714" on="0"/>
        <pt x="1218" y="1681" on="0"/>
        <pt x="1181" y="1666" on="1"/>
        <pt x="1089" y="1631" on="0"/>
        <pt x="1060" y="1618" on="1"/>
        <pt x="1037" y="1621" on="0"/>
        <pt x="1003" y="1649" on="0"/>
        <pt x="936" y="1689" on="0"/>
        <pt x="861" y="1731" on="0"/>
        <pt x="789" y="1769" on="0"/>
        <pt x="765" y="1783" on="1"/>
        <pt x="783" y="1819" on="0"/>
        <pt x="828" y="1844" on="1"/>
        <pt x="842" y="1852" on="0"/>
        <pt x="853" y="1852" on="1"/>
        <pt x="896" y="1852" on="0"/>
      </contour>
    </TTGlyph>
    <TTGlyph name="ccedilla" xMin="50" yMin="-491" xMax="1079" yMax="885">
      <contour>
        <pt x="820" y="726" on="1"/>
        <pt x="744" y="766" on="0"/>
        <pt x="627" y="766" on="0"/>
        <pt x="532" y="713" on="0"/>
        <pt x="496" y="670" on="1"/>
        <pt x="420" y="579" on="0"/>
        <pt x="420" y="468" on="1"/>
        <pt x="420" y="384" on="0"/>
        <pt x="480" y="336" on="1"/>
        <pt x="535" y="290" on="0"/>
        <pt x="749" y="290" on="0"/>
        <pt x="956" y="417" on="0"/>
        <pt x="1034" y="536" on="1"/>
        <pt x="1079" y="539" on="0"/>
        <pt x="1079" y="499" on="1"/>
        <pt x="1079" y="483" on="0"/>
        <pt x="1034" y="376" on="0"/>
        <pt x="924" y="220" on="0"/>
        <pt x="853" y="158" on="1"/>
        <pt x="699" y="22" on="0"/>
        <pt x="516" y="-7" on="1"/>
        <pt x="450" y="-50" on="0"/>
        <pt x="412" y="-94" on="0"/>
        <pt x="412" y="-110" on="0"/>
        <pt x="450" y="-140" on="0"/>
        <pt x="473" y="-163" on="1"/>
        <pt x="534" y="-224" on="0"/>
        <pt x="534" y="-348" on="0"/>
        <pt x="482" y="-421" on="0"/>
        <pt x="442" y="-444" on="1"/>
        <pt x="363" y="-491" on="0"/>
        <pt x="264" y="-491" on="1"/>
        <pt x="199" y="-491" on="0"/>
        <pt x="156" y="-464" on="1"/>
        <pt x="81" y="-416" on="0"/>
        <pt x="65" y="-358" on="1"/>
        <pt x="59" y="-341" on="0"/>
        <pt x="78" y="-315" on="1"/>
        <pt x="110" y="-269" on="0"/>
        <pt x="130" y="-262" on="1"/>
        <pt x="176" y="-295" on="0"/>
        <pt x="218" y="-291" on="1"/>
        <pt x="295" y="-284" on="0"/>
        <pt x="295" y="-240" on="1"/>
        <pt x="295" y="-201" on="0"/>
        <pt x="250" y="-138" on="1"/>
        <pt x="242" y="-126" on="0"/>
        <pt x="242" y="-115" on="1"/>
        <pt x="242" y="-72" on="0"/>
        <pt x="335" y="-8" on="1"/>
        <pt x="202" y="12" on="0"/>
        <pt x="50" y="184" on="0"/>
        <pt x="50" y="333" on="1"/>
        <pt x="50" y="465" on="0"/>
        <pt x="154" y="598" on="1"/>
        <pt x="251" y="723" on="0"/>
        <pt x="399" y="803" on="1"/>
        <pt x="550" y="885" on="0"/>
        <pt x="681" y="885" on="1"/>
        <pt x="752" y="885" on="0"/>
        <pt x="791" y="861" on="1"/>
        <pt x="859" y="819" on="0"/>
        <pt x="859" y="781" on="1"/>
        <pt x="859" y="740" on="0"/>
      </contour>
    </TTGlyph>
    <TTGlyph name="cedilla" xMin="333" yMin="-491" xMax="871" yMax="62">
      <contour>
        <pt x="399" y="-262" on="1"/>
        <pt x="445" y="-295" on="0"/>
        <pt x="487" y="-291" on="1"/>
        <pt x="564" y="-284" on="0"/>
        <pt x="564" y="-240" on="1"/>
        <pt x="564" y="-201" on="0"/>
        <pt x="520" y="-138" on="1"/>
        <pt x="511" y="-126" on="0"/>
        <pt x="511" y="-92" on="0"/>
        <pt x="560" y="-40" on="0"/>
        <pt x="594" y="-16" on="1"/>
        <pt x="648" y="23" on="0"/>
        <pt x="727" y="62" on="1"/>
        <pt x="871" y="44" on="1"/>
        <pt x="793" y="5" on="0"/>
        <pt x="748" y="-32" on="1"/>
        <pt x="681" y="-87" on="0"/>
        <pt x="681" y="-110" on="0"/>
        <pt x="719" y="-140" on="0"/>
        <pt x="742" y="-163" on="1"/>
        <pt x="803" y="-224" on="0"/>
        <pt x="803" y="-348" on="0"/>
        <pt x="751" y="-421" on="0"/>
        <pt x="711" y="-444" on="1"/>
        <pt x="632" y="-491" on="0"/>
        <pt x="533" y="-491" on="1"/>
        <pt x="468" y="-491" on="0"/>
        <pt x="425" y="-464" on="1"/>
        <pt x="350" y="-416" on="0"/>
        <pt x="334" y="-358" on="1"/>
        <pt x="333" y="-355" on="0"/>
        <pt x="333" y="-344" on="0"/>
        <pt x="344" y="-319" on="0"/>
        <pt x="354" y="-304" on="1"/>
        <pt x="379" y="-269" on="0"/>
      </contour>
    </TTGlyph>
    <TTGlyph name="cent" xMin="289" yMin="-255" xMax="1228" yMax="1407">
      <contour>
        <pt x="1046" y="509" on="1"/>
        <pt x="1081" y="482" on="0"/>
        <pt x="1081" y="440" on="0"/>
        <pt x="1046" y="384" on="0"/>
        <pt x="986" y="325" on="0"/>
        <pt x="908" y="269" on="0"/>
        <pt x="864" y="246" on="1"/>
        <pt x="769" y="196" on="0"/>
        <pt x="690" y="188" on="1"/>
        <pt x="478" y="-255" on="0"/>
        <pt x="415" y="-255" on="1"/>
        <pt x="356" y="-255" on="0"/>
        <pt x="291" y="-168" on="1"/>
        <pt x="364" y="-107" on="0"/>
        <pt x="525" y="207" on="1"/>
        <pt x="415" y="241" on="0"/>
        <pt x="289" y="415" on="0"/>
        <pt x="289" y="549" on="1"/>
        <pt x="289" y="673" on="0"/>
        <pt x="397" y="805" on="1"/>
        <pt x="552" y="994" on="0"/>
        <pt x="804" y="1090" on="1"/>
        <pt x="881" y="1120" on="0"/>
        <pt x="954" y="1131" on="1"/>
        <pt x="1037" y="1332" on="0"/>
        <pt x="1054" y="1407" on="1"/>
        <pt x="1136" y="1380" on="0"/>
        <pt x="1136" y="1362" on="1"/>
        <pt x="1136" y="1308" on="0"/>
        <pt x="1077" y="1133" on="1"/>
        <pt x="1180" y="1117" on="0"/>
        <pt x="1216" y="1062" on="1"/>
        <pt x="1228" y="1044" on="0"/>
        <pt x="1228" y="1026" on="1"/>
        <pt x="1228" y="991" on="0"/>
        <pt x="1189" y="963" on="1"/>
        <pt x="1135" y="1014" on="0"/>
        <pt x="1036" y="1018" on="1"/>
        <pt x="949" y="775" on="0"/>
        <pt x="813" y="461" on="1"/>
        <pt x="821" y="459" on="0"/>
        <pt x="837" y="459" on="0"/>
        <pt x="845" y="459" on="1"/>
        <pt x="939" y="459" on="0"/>
      </contour>
      <contour>
        <pt x="684" y="525" on="1"/>
        <pt x="791" y="746" on="0"/>
        <pt x="893" y="986" on="1"/>
        <pt x="788" y="939" on="0"/>
        <pt x="712" y="844" on="1"/>
        <pt x="636" y="747" on="0"/>
        <pt x="636" y="651" on="1"/>
        <pt x="636" y="577" on="0"/>
      </contour>
    </TTGlyph>
    <TTGlyph name="circumflex" xMin="458" yMin="1040" xMax="1146" yMax="1468">
      <contour>
        <pt x="595" y="1055" on="1"/>
        <pt x="557" y="1040" on="0"/>
        <pt x="532" y="1040" on="0"/>
        <pt x="508" y="1053" on="0"/>
        <pt x="495" y="1063" on="1"/>
        <pt x="464" y="1087" on="0"/>
        <pt x="458" y="1102" on="1"/>
        <pt x="713" y="1277" on="0"/>
        <pt x="832" y="1411" on="1"/>
        <pt x="862" y="1444" on="0"/>
        <pt x="870" y="1468" on="1"/>
        <pt x="931" y="1459" on="0"/>
        <pt x="943" y="1450" on="1"/>
        <pt x="986" y="1322" on="0"/>
        <pt x="1072" y="1190" on="1"/>
        <pt x="1117" y="1122" on="0"/>
        <pt x="1146" y="1102" on="1"/>
        <pt x="1135" y="1072" on="0"/>
        <pt x="1087" y="1041" on="0"/>
        <pt x="1054" y="1041" on="0"/>
        <pt x="996" y="1070" on="0"/>
        <pt x="967" y="1094" on="1"/>
        <pt x="912" y="1140" on="0"/>
        <pt x="863" y="1215" on="1"/>
        <pt x="731" y="1109" on="0"/>
      </contour>
    </TTGlyph>
    <TTGlyph name="circumflex.cap" xMin="747" yMin="1598" xMax="1487" yMax="1851">
      <contour>
        <pt x="857" y="1612" on="1"/>
        <pt x="814" y="1602" on="0"/>
        <pt x="787" y="1602" on="0"/>
        <pt x="773" y="1613" on="0"/>
        <pt x="766" y="1621" on="1"/>
        <pt x="755" y="1636" on="0"/>
        <pt x="747" y="1656" on="1"/>
        <pt x="785" y="1675" on="0"/>
        <pt x="899" y="1723" on="0"/>
        <pt x="959" y="1750" on="1"/>
        <pt x="1110" y="1816" on="0"/>
        <pt x="1163" y="1851" on="1"/>
        <pt x="1224" y="1842" on="0"/>
        <pt x="1236" y="1833" on="1"/>
        <pt x="1284" y="1778" on="0"/>
        <pt x="1463" y="1660" on="0"/>
        <pt x="1487" y="1646" on="1"/>
        <pt x="1479" y="1629" on="0"/>
        <pt x="1438" y="1598" on="0"/>
        <pt x="1401" y="1598" on="0"/>
        <pt x="1329" y="1621" on="0"/>
        <pt x="1287" y="1638" on="1"/>
        <pt x="1185" y="1679" on="0"/>
        <pt x="1137" y="1710" on="1"/>
        <pt x="1032" y="1650" on="0"/>
      </contour>
    </TTGlyph>
    <TTGlyph name="colon" xMin="180" yMin="-87" xMax="813" yMax="782">
      <contour>
        <pt x="458" y="506" on="0"/>
        <pt x="431" y="555" on="0"/>
        <pt x="431" y="619" on="0"/>
        <pt x="480" y="689" on="0"/>
        <pt x="516" y="718" on="1"/>
        <pt x="596" y="782" on="0"/>
        <pt x="654" y="782" on="1"/>
        <pt x="696" y="782" on="0"/>
        <pt x="737" y="752" on="1"/>
        <pt x="813" y="695" on="0"/>
        <pt x="813" y="644" on="1"/>
        <pt x="813" y="582" on="0"/>
        <pt x="661" y="451" on="0"/>
        <pt x="590" y="451" on="1"/>
        <pt x="527" y="451" on="0"/>
      </contour>
      <contour>
        <pt x="206" y="-38" on="0"/>
        <pt x="180" y="9" on="0"/>
        <pt x="180" y="79" on="0"/>
        <pt x="228" y="157" on="0"/>
        <pt x="268" y="188" on="1"/>
        <pt x="359" y="257" on="0"/>
        <pt x="557" y="257" on="0"/>
        <pt x="648" y="175" on="0"/>
        <pt x="648" y="109" on="1"/>
        <pt x="648" y="34" on="0"/>
        <pt x="534" y="-29" on="1"/>
        <pt x="429" y="-87" on="0"/>
        <pt x="336" y="-87" on="1"/>
        <pt x="273" y="-87" on="0"/>
      </contour>
    </TTGlyph>
    <TTGlyph name="comma" xMin="-24" yMin="-361" xMax="648" yMax="257">
      <contour>
        <pt x="268" y="-15" on="1"/>
        <pt x="240" y="16" on="0"/>
        <pt x="240" y="108" on="0"/>
        <pt x="278" y="177" on="0"/>
        <pt x="310" y="202" on="1"/>
        <pt x="380" y="257" on="0"/>
        <pt x="557" y="257" on="0"/>
        <pt x="648" y="175" on="0"/>
        <pt x="648" y="55" on="0"/>
        <pt x="591" y="-56" on="0"/>
        <pt x="496" y="-161" on="0"/>
        <pt x="375" y="-253" on="0"/>
        <pt x="310" y="-287" on="1"/>
        <pt x="170" y="-361" on="0"/>
        <pt x="68" y="-361" on="1"/>
        <pt x="31" y="-361" on="0"/>
        <pt x="-10" y="-288" on="1"/>
        <pt x="-20" y="-270" on="0"/>
        <pt x="-24" y="-256" on="1"/>
        <pt x="126" y="-166" on="0"/>
        <pt x="222" y="-73" on="1"/>
        <pt x="256" y="-40" on="0"/>
      </contour>
    </TTGlyph>
    <TTGlyph name="commaaccent" xMin="59" yMin="-500" xMax="408" yMax="-108">
      <contour>
        <pt x="257" y="-108" on="1"/>
        <pt x="408" y="-108" on="0"/>
        <pt x="408" y="-199" on="1"/>
        <pt x="408" y="-282" on="0"/>
        <pt x="302" y="-390" on="1"/>
        <pt x="196" y="-500" on="0"/>
        <pt x="116" y="-500" on="1"/>
        <pt x="94" y="-500" on="0"/>
        <pt x="61" y="-467" on="0"/>
        <pt x="59" y="-461" on="1"/>
        <pt x="106" y="-409" on="0"/>
        <pt x="184" y="-222" on="1"/>
        <pt x="215" y="-146" on="0"/>
        <pt x="219" y="-110" on="1"/>
        <pt x="239" y="-108" on="0"/>
      </contour>
    </TTGlyph>
    <TTGlyph name="copyright" xMin="31" yMin="-192" xMax="1486" yMax="1009">
      <contour>
        <pt x="31" y="230" on="1"/>
        <pt x="31" y="328" on="0"/>
        <pt x="115" y="515" on="0"/>
        <pt x="260" y="687" on="0"/>
        <pt x="456" y="836" on="0"/>
        <pt x="568" y="891" on="1"/>
        <pt x="810" y="1009" on="0"/>
        <pt x="1045" y="1009" on="1"/>
        <pt x="1362" y="1009" on="0"/>
        <pt x="1456" y="796" on="1"/>
        <pt x="1486" y="727" on="0"/>
        <pt x="1486" y="537" on="0"/>
        <pt x="1417" y="336" on="0"/>
        <pt x="1290" y="152" on="0"/>
        <pt x="1113" y="-7" on="0"/>
        <pt x="1006" y="-66" on="1"/>
        <pt x="776" y="-192" on="0"/>
        <pt x="518" y="-192" on="1"/>
        <pt x="306" y="-192" on="0"/>
        <pt x="173" y="-83" on="1"/>
        <pt x="31" y="33" on="0"/>
      </contour>
      <contour>
        <pt x="205" y="288" on="1"/>
        <pt x="205" y="126" on="0"/>
        <pt x="332" y="40" on="1"/>
        <pt x="446" y="-38" on="0"/>
        <pt x="630" y="-38" on="1"/>
        <pt x="805" y="-38" on="0"/>
        <pt x="976" y="60" on="1"/>
        <pt x="1143" y="157" on="0"/>
        <pt x="1247" y="312" on="1"/>
        <pt x="1357" y="474" on="0"/>
        <pt x="1357" y="645" on="1"/>
        <pt x="1357" y="776" on="0"/>
        <pt x="1271" y="852" on="1"/>
        <pt x="1183" y="931" on="0"/>
        <pt x="1027" y="931" on="1"/>
        <pt x="857" y="931" on="0"/>
        <pt x="664" y="840" on="1"/>
        <pt x="469" y="746" on="0"/>
        <pt x="344" y="606" on="1"/>
        <pt x="205" y="450" on="0"/>
      </contour>
      <contour>
        <pt x="1026" y="409" on="1"/>
        <pt x="1055" y="391" on="0"/>
        <pt x="1055" y="347" on="0"/>
        <pt x="1013" y="290" on="0"/>
        <pt x="944" y="230" on="0"/>
        <pt x="856" y="172" on="0"/>
        <pt x="810" y="150" on="1"/>
        <pt x="709" y="100" on="0"/>
        <pt x="592" y="100" on="0"/>
        <pt x="507" y="129" on="0"/>
        <pt x="475" y="156" on="1"/>
        <pt x="407" y="215" on="0"/>
        <pt x="407" y="312" on="1"/>
        <pt x="407" y="421" on="0"/>
        <pt x="490" y="528" on="1"/>
        <pt x="611" y="683" on="0"/>
        <pt x="812" y="738" on="1"/>
        <pt x="874" y="755" on="0"/>
        <pt x="923" y="755" on="1"/>
        <pt x="1019" y="755" on="0"/>
        <pt x="1072" y="710" on="1"/>
        <pt x="1098" y="686" on="0"/>
        <pt x="1098" y="635" on="0"/>
        <pt x="1070" y="611" on="1"/>
        <pt x="1016" y="655" on="0"/>
        <pt x="881" y="655" on="0"/>
        <pt x="790" y="613" on="0"/>
        <pt x="756" y="578" on="1"/>
        <pt x="683" y="504" on="0"/>
        <pt x="683" y="410" on="1"/>
        <pt x="683" y="370" on="0"/>
        <pt x="731" y="316" on="0"/>
        <pt x="797" y="316" on="0"/>
        <pt x="872" y="329" on="0"/>
        <pt x="908" y="342" on="1"/>
        <pt x="990" y="370" on="0"/>
      </contour>
    </TTGlyph>
    <TTGlyph name="currency" xMin="189" yMin="164" xMax="1200" yMax="998">
      <contour>
        <pt x="491" y="332" on="1"/>
        <pt x="318" y="164" on="0"/>
        <pt x="277" y="164" on="0"/>
        <pt x="242" y="187" on="0"/>
        <pt x="228" y="202" on="1"/>
        <pt x="196" y="236" on="0"/>
        <pt x="189" y="263" on="1"/>
        <pt x="329" y="362" on="0"/>
        <pt x="414" y="427" on="1"/>
        <pt x="401" y="466" on="0"/>
        <pt x="401" y="507" on="1"/>
        <pt x="401" y="597" on="0"/>
        <pt x="470" y="694" on="1"/>
        <pt x="399" y="792" on="0"/>
        <pt x="375" y="882" on="1"/>
        <pt x="368" y="909" on="0"/>
        <pt x="368" y="937" on="0"/>
        <pt x="379" y="956" on="0"/>
        <pt x="388" y="966" on="1"/>
        <pt x="408" y="986" on="0"/>
        <pt x="429" y="998" on="1"/>
        <pt x="476" y="903" on="0"/>
        <pt x="573" y="797" on="1"/>
        <pt x="694" y="887" on="0"/>
        <pt x="830" y="887" on="1"/>
        <pt x="907" y="887" on="0"/>
        <pt x="960" y="851" on="1"/>
        <pt x="1107" y="952" on="0"/>
        <pt x="1155" y="996" on="1"/>
        <pt x="1200" y="958" on="0"/>
        <pt x="1200" y="917" on="0"/>
        <pt x="1168" y="872" on="0"/>
        <pt x="1143" y="848" on="1"/>
        <pt x="1093" y="800" on="0"/>
        <pt x="1027" y="756" on="1"/>
        <pt x="1035" y="726" on="0"/>
        <pt x="1035" y="695" on="1"/>
        <pt x="1035" y="570" on="0"/>
        <pt x="943" y="458" on="1"/>
        <pt x="992" y="408" on="0"/>
        <pt x="1095" y="331" on="0"/>
        <pt x="1130" y="303" on="1"/>
        <pt x="1085" y="233" on="0"/>
        <pt x="1026" y="190" on="0"/>
        <pt x="997" y="190" on="0"/>
        <pt x="951" y="226" on="0"/>
        <pt x="904" y="279" on="0"/>
        <pt x="858" y="340" on="0"/>
        <pt x="839" y="364" on="1"/>
        <pt x="735" y="296" on="0"/>
        <pt x="549" y="296" on="0"/>
      </contour>
      <contour>
        <pt x="627" y="594" on="1"/>
        <pt x="627" y="562" on="0"/>
        <pt x="675" y="522" on="0"/>
        <pt x="750" y="522" on="0"/>
        <pt x="811" y="552" on="0"/>
        <pt x="835" y="575" on="1"/>
        <pt x="889" y="627" on="0"/>
        <pt x="889" y="672" on="1"/>
        <pt x="889" y="759" on="0"/>
        <pt x="806" y="759" on="1"/>
        <pt x="738" y="759" on="0"/>
        <pt x="682" y="708" on="1"/>
        <pt x="627" y="659" on="0"/>
      </contour>
    </TTGlyph>
    <TTGlyph name="d" xMin="38" yMin="0" xMax="1433" yMax="1383">
      <contour>
        <pt x="1073" y="317" on="1"/>
        <pt x="1147" y="317" on="0"/>
        <pt x="1238" y="384" on="1"/>
        <pt x="1319" y="445" on="0"/>
        <pt x="1380" y="536" on="1"/>
        <pt x="1426" y="540" on="0"/>
        <pt x="1424" y="497" on="1"/>
        <pt x="1423" y="463" on="0"/>
        <pt x="1342" y="325" on="0"/>
        <pt x="1264" y="223" on="0"/>
        <pt x="1168" y="125" on="0"/>
        <pt x="1114" y="86" on="1"/>
        <pt x="993" y="0" on="0"/>
        <pt x="878" y="0" on="1"/>
        <pt x="731" y="0" on="0"/>
        <pt x="682" y="88" on="1"/>
        <pt x="665" y="118" on="0"/>
        <pt x="666" y="160" on="1"/>
        <pt x="581" y="57" on="0"/>
        <pt x="424" y="16" on="1"/>
        <pt x="371" y="2" on="0"/>
        <pt x="249" y="2" on="0"/>
        <pt x="148" y="41" on="0"/>
        <pt x="112" y="76" on="1"/>
        <pt x="38" y="149" on="0"/>
        <pt x="38" y="271" on="1"/>
        <pt x="38" y="409" on="0"/>
        <pt x="155" y="554" on="1"/>
        <pt x="270" y="698" on="0"/>
        <pt x="450" y="790" on="1"/>
        <pt x="642" y="887" on="0"/>
        <pt x="842" y="887" on="1"/>
        <pt x="931" y="887" on="0"/>
        <pt x="921" y="808" on="1"/>
        <pt x="691" y="808" on="0"/>
        <pt x="520" y="684" on="1"/>
        <pt x="445" y="629" on="0"/>
        <pt x="360" y="497" on="0"/>
        <pt x="360" y="435" on="1"/>
        <pt x="360" y="319" on="0"/>
        <pt x="458" y="319" on="1"/>
        <pt x="599" y="319" on="0"/>
        <pt x="742" y="495" on="1"/>
        <pt x="792" y="557" on="0"/>
        <pt x="925" y="780" on="0"/>
        <pt x="1010" y="921" on="0"/>
        <pt x="1099" y="1068" on="0"/>
        <pt x="1140" y="1135" on="1"/>
        <pt x="1241" y="1300" on="0"/>
        <pt x="1265" y="1333" on="1"/>
        <pt x="1301" y="1383" on="0"/>
        <pt x="1350" y="1383" on="1"/>
        <pt x="1407" y="1383" on="0"/>
        <pt x="1433" y="1342" on="1"/>
        <pt x="1323" y="1169" on="0"/>
        <pt x="1133" y="781" on="0"/>
        <pt x="1096" y="692" on="1"/>
        <pt x="1012" y="490" on="0"/>
        <pt x="1012" y="317" on="0"/>
      </contour>
    </TTGlyph>
    <TTGlyph name="degree" xMin="308" yMin="954" xMax="832" yMax="1441">
      <contour>
        <pt x="680" y="1009" on="0"/>
        <pt x="558" y="954" on="0"/>
        <pt x="458" y="954" on="0"/>
        <pt x="391" y="977" on="0"/>
        <pt x="365" y="999" on="1"/>
        <pt x="308" y="1047" on="0"/>
        <pt x="308" y="1182" on="0"/>
        <pt x="367" y="1293" on="0"/>
        <pt x="416" y="1338" on="1"/>
        <pt x="528" y="1441" on="0"/>
        <pt x="664" y="1441" on="1"/>
        <pt x="786" y="1441" on="0"/>
        <pt x="822" y="1344" on="1"/>
        <pt x="832" y="1316" on="0"/>
        <pt x="832" y="1220" on="0"/>
        <pt x="774" y="1100" on="0"/>
      </contour>
      <contour>
        <pt x="693" y="1255" on="1"/>
        <pt x="693" y="1320" on="0"/>
        <pt x="624" y="1320" on="1"/>
        <pt x="561" y="1320" on="0"/>
        <pt x="515" y="1278" on="1"/>
        <pt x="469" y="1236" on="0"/>
        <pt x="469" y="1195" on="1"/>
        <pt x="469" y="1118" on="0"/>
        <pt x="549" y="1118" on="1"/>
        <pt x="602" y="1118" on="0"/>
        <pt x="648" y="1164" on="1"/>
        <pt x="693" y="1209" on="0"/>
      </contour>
    </TTGlyph>
    <TTGlyph name="dieresis" xMin="588" yMin="1074" xMax="1241" yMax="1354">
      <contour>
        <pt x="1173" y="1115" on="0"/>
        <pt x="1119" y="1074" on="0"/>
        <pt x="1067" y="1074" on="0"/>
        <pt x="1021" y="1095" on="0"/>
        <pt x="1004" y="1112" on="1"/>
        <pt x="964" y="1150" on="0"/>
        <pt x="964" y="1215" on="0"/>
        <pt x="1003" y="1272" on="0"/>
        <pt x="1030" y="1296" on="1"/>
        <pt x="1092" y="1354" on="0"/>
        <pt x="1143" y="1354" on="0"/>
        <pt x="1185" y="1329" on="0"/>
        <pt x="1202" y="1311" on="1"/>
        <pt x="1241" y="1270" on="0"/>
        <pt x="1241" y="1224" on="0"/>
        <pt x="1215" y="1169" on="0"/>
      </contour>
      <contour>
        <pt x="786" y="1108" on="0"/>
        <pt x="729" y="1074" on="0"/>
        <pt x="681" y="1074" on="0"/>
        <pt x="641" y="1088" on="0"/>
        <pt x="624" y="1100" on="1"/>
        <pt x="588" y="1128" on="0"/>
        <pt x="588" y="1189" on="0"/>
        <pt x="623" y="1255" on="0"/>
        <pt x="646" y="1284" on="1"/>
        <pt x="703" y="1354" on="0"/>
        <pt x="744" y="1354" on="0"/>
        <pt x="789" y="1331" on="0"/>
        <pt x="810" y="1314" on="1"/>
        <pt x="860" y="1274" on="0"/>
        <pt x="860" y="1218" on="0"/>
        <pt x="832" y="1159" on="0"/>
      </contour>
    </TTGlyph>
    <TTGlyph name="dieresis.cap" xMin="837" yMin="1634" xMax="1527" yMax="1822">
      <contour>
        <pt x="1452" y="1657" on="0"/>
        <pt x="1397" y="1634" on="0"/>
        <pt x="1351" y="1634" on="0"/>
        <pt x="1311" y="1650" on="0"/>
        <pt x="1295" y="1664" on="1"/>
        <pt x="1260" y="1693" on="0"/>
        <pt x="1260" y="1744" on="0"/>
        <pt x="1300" y="1777" on="0"/>
        <pt x="1327" y="1790" on="1"/>
        <pt x="1390" y="1822" on="0"/>
        <pt x="1441" y="1822" on="0"/>
        <pt x="1478" y="1806" on="0"/>
        <pt x="1493" y="1794" on="1"/>
        <pt x="1527" y="1765" on="0"/>
        <pt x="1527" y="1738" on="1"/>
        <pt x="1527" y="1711" on="0"/>
      </contour>
      <contour>
        <pt x="1014" y="1655" on="0"/>
        <pt x="958" y="1634" on="0"/>
        <pt x="923" y="1634" on="0"/>
        <pt x="889" y="1647" on="0"/>
        <pt x="874" y="1658" on="1"/>
        <pt x="837" y="1682" on="0"/>
        <pt x="837" y="1727" on="0"/>
        <pt x="875" y="1769" on="0"/>
        <pt x="900" y="1786" on="1"/>
        <pt x="954" y="1822" on="0"/>
        <pt x="997" y="1822" on="0"/>
        <pt x="1037" y="1807" on="0"/>
        <pt x="1055" y="1796" on="1"/>
        <pt x="1099" y="1767" on="0"/>
        <pt x="1099" y="1724" on="0"/>
        <pt x="1064" y="1687" on="0"/>
      </contour>
    </TTGlyph>
    <TTGlyph name="divide" xMin="303" yMin="62" xMax="1193" yMax="1031">
      <contour>
        <pt x="672" y="830" on="1"/>
        <pt x="661" y="850" on="0"/>
        <pt x="661" y="901" on="0"/>
        <pt x="701" y="957" on="0"/>
        <pt x="729" y="980" on="1"/>
        <pt x="793" y="1031" on="0"/>
        <pt x="839" y="1031" on="1"/>
        <pt x="873" y="1031" on="0"/>
        <pt x="905" y="1007" on="1"/>
        <pt x="966" y="961" on="0"/>
        <pt x="966" y="896" on="0"/>
        <pt x="932" y="842" on="0"/>
        <pt x="906" y="820" on="1"/>
        <pt x="844" y="767" on="0"/>
        <pt x="788" y="767" on="1"/>
        <pt x="708" y="767" on="0"/>
      </contour>
      <contour>
        <pt x="316" y="669" on="1"/>
        <pt x="419" y="641" on="0"/>
        <pt x="1030" y="641" on="0"/>
        <pt x="1189" y="667" on="1"/>
        <pt x="1193" y="652" on="0"/>
        <pt x="1193" y="631" on="0"/>
        <pt x="1191" y="605" on="0"/>
        <pt x="1184" y="586" on="1"/>
        <pt x="1169" y="547" on="0"/>
        <pt x="1139" y="533" on="1"/>
        <pt x="1021" y="482" on="0"/>
        <pt x="664" y="467" on="1"/>
        <pt x="568" y="463" on="0"/>
        <pt x="484" y="463" on="1"/>
        <pt x="303" y="463" on="0"/>
        <pt x="303" y="584" on="1"/>
        <pt x="303" y="622" on="0"/>
      </contour>
      <contour>
        <pt x="469" y="126" on="1"/>
        <pt x="458" y="145" on="0"/>
        <pt x="458" y="196" on="0"/>
        <pt x="498" y="252" on="0"/>
        <pt x="526" y="274" on="1"/>
        <pt x="590" y="326" on="0"/>
        <pt x="636" y="326" on="1"/>
        <pt x="670" y="326" on="0"/>
        <pt x="702" y="302" on="1"/>
        <pt x="763" y="256" on="0"/>
        <pt x="763" y="191" on="0"/>
        <pt x="729" y="137" on="0"/>
        <pt x="702" y="114" on="1"/>
        <pt x="641" y="62" on="0"/>
        <pt x="585" y="62" on="1"/>
        <pt x="505" y="62" on="0"/>
      </contour>
    </TTGlyph>
    <TTGlyph name="dollar" xMin="95" yMin="-255" xMax="1380" yMax="1613">
      <contour>
        <pt x="509" y="3" on="1"/>
        <pt x="369" y="-255" on="0"/>
        <pt x="324" y="-255" on="1"/>
        <pt x="265" y="-255" on="0"/>
        <pt x="200" y="-168" on="1"/>
        <pt x="242" y="-131" on="0"/>
        <pt x="348" y="48" on="1"/>
        <pt x="230" y="106" on="0"/>
        <pt x="95" y="342" on="0"/>
        <pt x="95" y="507" on="1"/>
        <pt x="95" y="527" on="0"/>
        <pt x="140" y="546" on="1"/>
        <pt x="151" y="551" on="0"/>
        <pt x="160" y="553" on="1"/>
        <pt x="195" y="463" on="0"/>
        <pt x="291" y="397" on="1"/>
        <pt x="381" y="336" on="0"/>
        <pt x="494" y="317" on="1"/>
        <pt x="605" y="529" on="0"/>
        <pt x="725" y="784" on="1"/>
        <pt x="652" y="852" on="0"/>
        <pt x="627" y="889" on="1"/>
        <pt x="576" y="962" on="0"/>
        <pt x="576" y="1103" on="0"/>
        <pt x="645" y="1216" on="0"/>
        <pt x="702" y="1259" on="1"/>
        <pt x="820" y="1347" on="0"/>
        <pt x="989" y="1370" on="1"/>
        <pt x="1065" y="1555" on="0"/>
        <pt x="1079" y="1613" on="1"/>
        <pt x="1161" y="1586" on="0"/>
        <pt x="1161" y="1568" on="1"/>
        <pt x="1161" y="1525" on="0"/>
        <pt x="1110" y="1376" on="1"/>
        <pt x="1215" y="1372" on="0"/>
        <pt x="1333" y="1315" on="0"/>
        <pt x="1380" y="1264" on="0"/>
        <pt x="1380" y="1216" on="0"/>
        <pt x="1357" y="1183" on="0"/>
        <pt x="1340" y="1169" on="1"/>
        <pt x="1308" y="1143" on="0"/>
        <pt x="1270" y="1130" on="1"/>
        <pt x="1233" y="1198" on="0"/>
        <pt x="1132" y="1237" on="1"/>
        <pt x="1100" y="1249" on="0"/>
        <pt x="1067" y="1255" on="1"/>
        <pt x="1006" y="1093" on="0"/>
        <pt x="918" y="881" on="1"/>
        <pt x="1047" y="788" on="0"/>
        <pt x="1094" y="732" on="1"/>
        <pt x="1192" y="619" on="0"/>
        <pt x="1192" y="502" on="1"/>
        <pt x="1192" y="361" on="0"/>
        <pt x="1100" y="241" on="1"/>
        <pt x="1016" y="131" on="0"/>
        <pt x="870" y="64" on="1"/>
        <pt x="730" y="0" on="0"/>
        <pt x="572" y="0" on="1"/>
        <pt x="539" y="0" on="0"/>
      </contour>
      <contour>
        <pt x="809" y="963" on="1"/>
        <pt x="896" y="1154" on="0"/>
        <pt x="938" y="1250" on="1"/>
        <pt x="803" y="1220" on="0"/>
        <pt x="756" y="1140" on="1"/>
        <pt x="739" y="1110" on="0"/>
        <pt x="739" y="1076" on="1"/>
        <pt x="739" y="1022" on="0"/>
      </contour>
      <contour>
        <pt x="666" y="317" on="1"/>
        <pt x="823" y="346" on="0"/>
        <pt x="870" y="462" on="1"/>
        <pt x="887" y="503" on="0"/>
        <pt x="887" y="546" on="1"/>
        <pt x="887" y="616" on="0"/>
        <pt x="831" y="681" on="1"/>
        <pt x="731" y="451" on="0"/>
      </contour>
    </TTGlyph>
    <TTGlyph name="dotlessi" xMin="49" yMin="-6" xMax="898" yMax="880">
      <contour>
        <pt x="70" y="116" on="1"/>
        <pt x="49" y="161" on="0"/>
        <pt x="49" y="292" on="0"/>
        <pt x="106" y="437" on="0"/>
        <pt x="195" y="582" on="0"/>
        <pt x="305" y="716" on="0"/>
        <pt x="359" y="768" on="1"/>
        <pt x="477" y="880" on="0"/>
        <pt x="534" y="880" on="1"/>
        <pt x="558" y="880" on="0"/>
        <pt x="617" y="839" on="0"/>
        <pt x="625" y="829" on="1"/>
        <pt x="474" y="666" on="0"/>
        <pt x="434" y="518" on="1"/>
        <pt x="421" y="473" on="0"/>
        <pt x="421" y="386" on="0"/>
        <pt x="487" y="317" on="0"/>
        <pt x="585" y="317" on="0"/>
        <pt x="670" y="354" on="0"/>
        <pt x="711" y="384" on="1"/>
        <pt x="792" y="445" on="0"/>
        <pt x="853" y="536" on="1"/>
        <pt x="898" y="539" on="0"/>
        <pt x="898" y="499" on="1"/>
        <pt x="898" y="466" on="0"/>
        <pt x="815" y="324" on="0"/>
        <pt x="733" y="221" on="0"/>
        <pt x="628" y="121" on="0"/>
        <pt x="566" y="82" on="1"/>
        <pt x="427" y="-6" on="0"/>
        <pt x="280" y="-6" on="1"/>
        <pt x="125" y="-6" on="0"/>
      </contour>
    </TTGlyph>
    <TTGlyph name="dotlessj" xMin="-325" yMin="-500" xMax="747" yMax="893">
      <contour>
        <pt x="179" y="9" on="1"/>
        <pt x="147" y="-113" on="0"/>
        <pt x="95" y="-302" on="0"/>
        <pt x="32" y="-432" on="0"/>
        <pt x="-55" y="-500" on="0"/>
        <pt x="-163" y="-500" on="0"/>
        <pt x="-229" y="-476" on="0"/>
        <pt x="-255" y="-458" on="1"/>
        <pt x="-307" y="-421" on="0"/>
        <pt x="-325" y="-375" on="1"/>
        <pt x="-247" y="-313" on="0"/>
        <pt x="74" y="326" on="1"/>
        <pt x="255" y="687" on="0"/>
        <pt x="337" y="832" on="1"/>
        <pt x="371" y="893" on="0"/>
        <pt x="425" y="893" on="1"/>
        <pt x="456" y="893" on="0"/>
        <pt x="496" y="872" on="1"/>
        <pt x="349" y="581" on="0"/>
        <pt x="250" y="258" on="1"/>
        <pt x="445" y="292" on="0"/>
        <pt x="616" y="440" on="1"/>
        <pt x="669" y="486" on="0"/>
        <pt x="702" y="536" on="1"/>
        <pt x="747" y="539" on="0"/>
        <pt x="747" y="499" on="1"/>
        <pt x="747" y="483" on="0"/>
        <pt x="698" y="365" on="0"/>
        <pt x="578" y="211" on="0"/>
        <pt x="504" y="154" on="1"/>
        <pt x="358" y="41" on="0"/>
      </contour>
    </TTGlyph>
    <TTGlyph name="e" xMin="50" yMin="-10" xMax="1179" yMax="885">
      <contour>
        <pt x="435" y="393" on="1"/>
        <pt x="493" y="289" on="0"/>
        <pt x="698" y="289" on="1"/>
        <pt x="826" y="289" on="0"/>
        <pt x="1053" y="414" on="0"/>
        <pt x="1134" y="536" on="1"/>
        <pt x="1179" y="539" on="0"/>
        <pt x="1179" y="499" on="1"/>
        <pt x="1179" y="454" on="0"/>
        <pt x="1072" y="285" on="0"/>
        <pt x="979" y="181" on="0"/>
        <pt x="864" y="92" on="0"/>
        <pt x="798" y="60" on="1"/>
        <pt x="655" y="-10" on="0"/>
        <pt x="497" y="-10" on="1"/>
        <pt x="179" y="-10" on="0"/>
        <pt x="84" y="166" on="1"/>
        <pt x="50" y="230" on="0"/>
        <pt x="50" y="395" on="0"/>
        <pt x="107" y="533" on="0"/>
        <pt x="207" y="658" on="0"/>
        <pt x="345" y="764" on="0"/>
        <pt x="426" y="802" on="1"/>
        <pt x="598" y="885" on="0"/>
        <pt x="777" y="885" on="1"/>
        <pt x="906" y="885" on="0"/>
        <pt x="954" y="804" on="1"/>
        <pt x="971" y="776" on="0"/>
        <pt x="971" y="683" on="0"/>
        <pt x="924" y="593" on="0"/>
        <pt x="844" y="520" on="0"/>
        <pt x="738" y="465" on="0"/>
        <pt x="678" y="445" on="1"/>
        <pt x="572" y="409" on="0"/>
      </contour>
      <contour>
        <pt x="421" y="486" on="1"/>
        <pt x="549" y="501" on="0"/>
        <pt x="641" y="557" on="1"/>
        <pt x="738" y="617" on="0"/>
        <pt x="738" y="778" on="0"/>
        <pt x="664" y="778" on="1"/>
        <pt x="568" y="778" on="0"/>
        <pt x="497" y="686" on="1"/>
        <pt x="429" y="598" on="0"/>
      </contour>
    </TTGlyph>
    <TTGlyph name="eacute" xMin="50" yMin="-10" xMax="1179" yMax="1468">
      <component glyphName=".ttfautohint" x="50" y="0" flags="0x0"/>
      <component glyphName="e" x="0" y="0" flags="0x1204"/>
      <component glyphName="acute" x="141" y="0" flags="0x1004"/>
    </TTGlyph>
    <TTGlyph name="ecircumflex" xMin="50" yMin="-10" xMax="1179" yMax="1468">
      <component glyphName=".ttfautohint" x="50" y="0" flags="0x0"/>
      <component glyphName="e" x="0" y="0" flags="0x1204"/>
      <component glyphName="circumflex" x="-67" y="0" flags="0x1004"/>
    </TTGlyph>
    <TTGlyph name="edieresis" xMin="50" yMin="-10" xMax="1179" yMax="1354">
      <component glyphName=".ttfautohint" x="50" y="0" flags="0x0"/>
      <component glyphName="e" x="0" y="0" flags="0x1204"/>
      <component glyphName="dieresis" x="-116" y="0" flags="0x1004"/>
    </TTGlyph>
    <TTGlyph name="egrave" xMin="50" yMin="-10" xMax="1179" yMax="1462">
      <component glyphName=".ttfautohint" x="50" y="0" flags="0x0"/>
      <component glyphName="e" x="0" y="0" flags="0x1204"/>
      <component glyphName="grave" x="-67" y="0" flags="0x1004"/>
    </TTGlyph>
    <TTGlyph name="eight" xMin="68" yMin="0" xMax="1374" yMax="1377">
      <contour>
        <pt x="1006" y="803" on="1"/>
        <pt x="1178" y="651" on="0"/>
        <pt x="1178" y="516" on="1"/>
        <pt x="1178" y="295" on="0"/>
        <pt x="984" y="148" on="1"/>
        <pt x="789" y="0" on="0"/>
        <pt x="487" y="0" on="1"/>
        <pt x="307" y="0" on="0"/>
        <pt x="190" y="90" on="1"/>
        <pt x="68" y="184" on="0"/>
        <pt x="68" y="339" on="1"/>
        <pt x="68" y="568" on="0"/>
        <pt x="436" y="732" on="1"/>
        <pt x="540" y="779" on="0"/>
        <pt x="648" y="819" on="1"/>
        <pt x="563" y="892" on="0"/>
        <pt x="532" y="935" on="1"/>
        <pt x="472" y="1017" on="0"/>
        <pt x="472" y="1155" on="0"/>
        <pt x="552" y="1263" on="0"/>
        <pt x="621" y="1300" on="1"/>
        <pt x="762" y="1377" on="0"/>
        <pt x="982" y="1377" on="1"/>
        <pt x="1144" y="1377" on="0"/>
        <pt x="1256" y="1306" on="1"/>
        <pt x="1374" y="1230" on="0"/>
        <pt x="1374" y="1112" on="1"/>
        <pt x="1374" y="976" on="0"/>
        <pt x="1146" y="866" on="1"/>
        <pt x="1079" y="833" on="0"/>
      </contour>
      <contour>
        <pt x="883" y="904" on="1"/>
        <pt x="1040" y="962" on="0"/>
        <pt x="1154" y="1032" on="0"/>
        <pt x="1203" y="1089" on="0"/>
        <pt x="1203" y="1160" on="0"/>
        <pt x="1161" y="1215" on="0"/>
        <pt x="1128" y="1232" on="1"/>
        <pt x="1063" y="1267" on="0"/>
        <pt x="930" y="1267" on="0"/>
        <pt x="836" y="1246" on="0"/>
        <pt x="796" y="1226" on="1"/>
        <pt x="706" y="1180" on="0"/>
        <pt x="706" y="1112" on="1"/>
        <pt x="706" y="1068" on="0"/>
        <pt x="744" y="1027" on="1"/>
        <pt x="798" y="970" on="0"/>
      </contour>
      <contour>
        <pt x="499" y="563" on="0"/>
        <pt x="448" y="491" on="0"/>
        <pt x="448" y="421" on="0"/>
        <pt x="471" y="373" on="0"/>
        <pt x="494" y="355" on="1"/>
        <pt x="541" y="317" on="0"/>
        <pt x="690" y="317" on="0"/>
        <pt x="790" y="355" on="0"/>
        <pt x="824" y="384" on="1"/>
        <pt x="894" y="444" on="0"/>
        <pt x="894" y="570" on="0"/>
        <pt x="824" y="664" on="0"/>
        <pt x="773" y="711" on="1"/>
        <pt x="618" y="648" on="0"/>
      </contour>
    </TTGlyph>
    <TTGlyph name="ellipsis" xMin="180" yMin="-87" xMax="2304" yMax="257">
      <contour>
        <pt x="1862" y="-38" on="0"/>
        <pt x="1836" y="9" on="0"/>
        <pt x="1836" y="79" on="0"/>
        <pt x="1884" y="157" on="0"/>
        <pt x="1924" y="188" on="1"/>
        <pt x="2015" y="257" on="0"/>
        <pt x="2213" y="257" on="0"/>
        <pt x="2304" y="175" on="0"/>
        <pt x="2304" y="109" on="1"/>
        <pt x="2304" y="34" on="0"/>
        <pt x="2190" y="-29" on="1"/>
        <pt x="2085" y="-87" on="0"/>
        <pt x="1992" y="-87" on="1"/>
        <pt x="1929" y="-87" on="0"/>
      </contour>
      <contour>
        <pt x="1034" y="-38" on="0"/>
        <pt x="1008" y="9" on="0"/>
        <pt x="1008" y="79" on="0"/>
        <pt x="1056" y="157" on="0"/>
        <pt x="1096" y="188" on="1"/>
        <pt x="1187" y="257" on="0"/>
        <pt x="1385" y="257" on="0"/>
        <pt x="1476" y="175" on="0"/>
        <pt x="1476" y="109" on="1"/>
        <pt x="1476" y="34" on="0"/>
        <pt x="1362" y="-29" on="1"/>
        <pt x="1257" y="-87" on="0"/>
        <pt x="1164" y="-87" on="1"/>
        <pt x="1101" y="-87" on="0"/>
      </contour>
      <contour>
        <pt x="206" y="-38" on="0"/>
        <pt x="180" y="9" on="0"/>
        <pt x="180" y="79" on="0"/>
        <pt x="228" y="157" on="0"/>
        <pt x="268" y="188" on="1"/>
        <pt x="359" y="257" on="0"/>
        <pt x="557" y="257" on="0"/>
        <pt x="648" y="175" on="0"/>
        <pt x="648" y="109" on="1"/>
        <pt x="648" y="34" on="0"/>
        <pt x="534" y="-29" on="1"/>
        <pt x="429" y="-87" on="0"/>
        <pt x="336" y="-87" on="1"/>
        <pt x="273" y="-87" on="0"/>
      </contour>
    </TTGlyph>
    <TTGlyph name="emdash" xMin="331" yMin="433" xMax="1707" yMax="637">
      <contour>
        <pt x="1699" y="637" on="1"/>
        <pt x="1707" y="625" on="0"/>
        <pt x="1707" y="591" on="0"/>
        <pt x="1704" y="577" on="1"/>
        <pt x="1696" y="538" on="0"/>
        <pt x="1666" y="527" on="1"/>
        <pt x="1473" y="459" on="0"/>
        <pt x="762" y="437" on="1"/>
        <pt x="630" y="433" on="0"/>
        <pt x="428" y="433" on="0"/>
        <pt x="394" y="446" on="1"/>
        <pt x="331" y="469" on="0"/>
        <pt x="331" y="538" on="1"/>
        <pt x="331" y="569" on="0"/>
        <pt x="340" y="625" on="1"/>
        <pt x="439" y="601" on="0"/>
        <pt x="905" y="601" on="0"/>
        <pt x="1126" y="605" on="0"/>
        <pt x="1341" y="612" on="0"/>
        <pt x="1432" y="616" on="1"/>
        <pt x="1620" y="626" on="0"/>
      </contour>
    </TTGlyph>
    <TTGlyph name="endash" xMin="463" yMin="433" xMax="1405" yMax="635">
      <contour>
        <pt x="1398" y="627" on="1"/>
        <pt x="1405" y="616" on="0"/>
        <pt x="1405" y="583" on="0"/>
        <pt x="1402" y="569" on="1"/>
        <pt x="1394" y="530" on="0"/>
        <pt x="1343" y="507" on="0"/>
        <pt x="1249" y="487" on="0"/>
        <pt x="1124" y="468" on="0"/>
        <pt x="977" y="452" on="0"/>
        <pt x="903" y="446" on="1"/>
        <pt x="743" y="433" on="0"/>
        <pt x="633" y="433" on="1"/>
        <pt x="463" y="433" on="0"/>
        <pt x="463" y="548" on="1"/>
        <pt x="463" y="586" on="0"/>
        <pt x="480" y="635" on="1"/>
        <pt x="597" y="606" on="0"/>
        <pt x="1268" y="606" on="0"/>
      </contour>
    </TTGlyph>
    <TTGlyph name="equal" xMin="269" yMin="255" xMax="1226" yMax="829">
      <contour>
        <pt x="349" y="829" on="1"/>
        <pt x="449" y="801" on="0"/>
        <pt x="1063" y="801" on="0"/>
        <pt x="1222" y="827" on="1"/>
        <pt x="1226" y="812" on="0"/>
        <pt x="1226" y="791" on="0"/>
        <pt x="1224" y="765" on="0"/>
        <pt x="1217" y="746" on="1"/>
        <pt x="1202" y="707" on="0"/>
        <pt x="1172" y="693" on="1"/>
        <pt x="1054" y="642" on="0"/>
        <pt x="697" y="627" on="1"/>
        <pt x="601" y="623" on="0"/>
        <pt x="517" y="623" on="1"/>
        <pt x="336" y="623" on="0"/>
        <pt x="336" y="744" on="1"/>
        <pt x="336" y="782" on="0"/>
      </contour>
      <contour>
        <pt x="282" y="461" on="1"/>
        <pt x="382" y="433" on="0"/>
        <pt x="996" y="433" on="0"/>
        <pt x="1155" y="459" on="1"/>
        <pt x="1159" y="444" on="0"/>
        <pt x="1159" y="422" on="0"/>
        <pt x="1157" y="396" on="0"/>
        <pt x="1150" y="378" on="1"/>
        <pt x="1136" y="337" on="0"/>
        <pt x="1105" y="325" on="1"/>
        <pt x="910" y="255" on="0"/>
        <pt x="450" y="255" on="1"/>
        <pt x="269" y="255" on="0"/>
        <pt x="269" y="376" on="1"/>
        <pt x="269" y="414" on="0"/>
      </contour>
    </TTGlyph>
    <TTGlyph name="eth" xMin="38" yMin="2" xMax="1101" yMax="1376">
      <contour>
        <pt x="969" y="1128" on="1"/>
        <pt x="1074" y="951" on="0"/>
        <pt x="1074" y="771" on="1"/>
        <pt x="1074" y="559" on="0"/>
        <pt x="966" y="374" on="1"/>
        <pt x="867" y="205" on="0"/>
        <pt x="706" y="102" on="1"/>
        <pt x="549" y="2" on="0"/>
        <pt x="391" y="2" on="1"/>
        <pt x="125" y="2" on="0"/>
        <pt x="58" y="162" on="1"/>
        <pt x="38" y="211" on="0"/>
        <pt x="38" y="340" on="0"/>
        <pt x="100" y="485" on="0"/>
        <pt x="209" y="622" on="0"/>
        <pt x="359" y="743" on="0"/>
        <pt x="448" y="788" on="1"/>
        <pt x="641" y="887" on="0"/>
        <pt x="838" y="887" on="1"/>
        <pt x="832" y="973" on="0"/>
        <pt x="807" y="1062" on="1"/>
        <pt x="640" y="1003" on="0"/>
        <pt x="573" y="1003" on="0"/>
        <pt x="542" y="1026" on="0"/>
        <pt x="532" y="1042" on="1"/>
        <pt x="510" y="1078" on="0"/>
        <pt x="515" y="1112" on="1"/>
        <pt x="576" y="1119" on="0"/>
        <pt x="768" y="1172" on="1"/>
        <pt x="720" y="1276" on="0"/>
        <pt x="655" y="1345" on="1"/>
        <pt x="683" y="1376" on="0"/>
        <pt x="742" y="1376" on="0"/>
        <pt x="757" y="1366" on="1"/>
        <pt x="839" y="1311" on="0"/>
        <pt x="913" y="1213" on="1"/>
        <pt x="1063" y="1260" on="0"/>
        <pt x="1089" y="1279" on="1"/>
        <pt x="1101" y="1262" on="0"/>
        <pt x="1101" y="1248" on="1"/>
        <pt x="1101" y="1202" on="0"/>
        <pt x="1068" y="1180" on="1"/>
        <pt x="1047" y="1163" on="0"/>
      </contour>
      <contour>
        <pt x="458" y="319" on="1"/>
        <pt x="601" y="319" on="0"/>
        <pt x="720" y="478" on="1"/>
        <pt x="834" y="630" on="0"/>
        <pt x="840" y="803" on="1"/>
        <pt x="638" y="780" on="0"/>
        <pt x="495" y="664" on="1"/>
        <pt x="360" y="554" on="0"/>
        <pt x="360" y="319" on="0"/>
      </contour>
    </TTGlyph>
    <TTGlyph name="exclam" xMin="180" yMin="-87" xMax="1215" yMax="1460">
      <contour>
        <pt x="333" y="408" on="1"/>
        <pt x="386" y="751" on="0"/>
        <pt x="530" y="1016" on="1"/>
        <pt x="579" y="1107" on="0"/>
        <pt x="677" y="1224" on="0"/>
        <pt x="773" y="1323" on="0"/>
        <pt x="828" y="1364" on="1"/>
        <pt x="957" y="1460" on="0"/>
        <pt x="1062" y="1460" on="1"/>
        <pt x="1115" y="1460" on="0"/>
        <pt x="1162" y="1402" on="1"/>
        <pt x="1215" y="1337" on="0"/>
        <pt x="1215" y="1257" on="1"/>
        <pt x="1215" y="1190" on="0"/>
        <pt x="1114" y="1124" on="1"/>
        <pt x="1068" y="1094" on="0"/>
        <pt x="948" y="1030" on="0"/>
        <pt x="819" y="950" on="0"/>
        <pt x="689" y="847" on="0"/>
        <pt x="634" y="778" on="1"/>
        <pt x="508" y="622" on="0"/>
        <pt x="474" y="411" on="1"/>
        <pt x="464" y="411" on="0"/>
        <pt x="418" y="404" on="0"/>
        <pt x="394" y="402" on="1"/>
        <pt x="333" y="395" on="0"/>
      </contour>
      <contour>
        <pt x="206" y="-38" on="0"/>
        <pt x="180" y="9" on="0"/>
        <pt x="180" y="79" on="0"/>
        <pt x="228" y="157" on="0"/>
        <pt x="268" y="188" on="1"/>
        <pt x="359" y="257" on="0"/>
        <pt x="557" y="257" on="0"/>
        <pt x="648" y="175" on="0"/>
        <pt x="648" y="109" on="1"/>
        <pt x="648" y="34" on="0"/>
        <pt x="532" y="-29" on="1"/>
        <pt x="426" y="-87" on="0"/>
        <pt x="336" y="-87" on="1"/>
        <pt x="273" y="-87" on="0"/>
      </contour>
    </TTGlyph>
    <TTGlyph name="exclamdown" xMin="-81" yMin="-575" xMax="954" yMax="972">
      <component glyphName=".ttfautohint" x="0" y="0" flags="0x0"/>
      <component glyphName="exclam" x="1134" y="885" scale="-0.999938964844" flags="0x1004"/>
    </TTGlyph>
    <TTGlyph name="f" xMin="-8" yMin="-501" xMax="1110" yMax="1396">
      <contour>
        <pt x="110" y="339" on="1"/>
        <pt x="46" y="419" on="0"/>
        <pt x="46" y="480" on="1"/>
        <pt x="46" y="508" on="0"/>
        <pt x="83" y="543" on="0"/>
        <pt x="112" y="560" on="1"/>
        <pt x="165" y="592" on="0"/>
        <pt x="251" y="625" on="1"/>
        <pt x="422" y="934" on="0"/>
        <pt x="625" y="1162" on="1"/>
        <pt x="833" y="1396" on="0"/>
        <pt x="950" y="1396" on="1"/>
        <pt x="1001" y="1396" on="0"/>
        <pt x="1035" y="1348" on="1"/>
        <pt x="1069" y="1301" on="0"/>
        <pt x="1069" y="1169" on="0"/>
        <pt x="1027" y="1052" on="0"/>
        <pt x="953" y="941" on="0"/>
        <pt x="850" y="838" on="0"/>
        <pt x="789" y="796" on="1"/>
        <pt x="662" y="707" on="0"/>
        <pt x="522" y="671" on="1"/>
        <pt x="634" y="631" on="0"/>
        <pt x="662" y="432" on="1"/>
        <pt x="669" y="377" on="0"/>
        <pt x="669" y="310" on="0"/>
        <pt x="669" y="303" on="1"/>
        <pt x="694" y="296" on="0"/>
        <pt x="771" y="296" on="0"/>
        <pt x="867" y="336" on="0"/>
        <pt x="912" y="369" on="1"/>
        <pt x="996" y="432" on="0"/>
        <pt x="1065" y="536" on="1"/>
        <pt x="1110" y="539" on="0"/>
        <pt x="1110" y="499" on="1"/>
        <pt x="1110" y="470" on="0"/>
        <pt x="1034" y="326" on="0"/>
        <pt x="969" y="229" on="0"/>
        <pt x="892" y="137" on="0"/>
        <pt x="850" y="101" on="1"/>
        <pt x="756" y="22" on="0"/>
        <pt x="667" y="22" on="1"/>
        <pt x="652" y="22" on="0"/>
        <pt x="633" y="25" on="1"/>
        <pt x="581" y="-196" on="0"/>
        <pt x="474" y="-340" on="1"/>
        <pt x="353" y="-501" on="0"/>
        <pt x="205" y="-501" on="1"/>
        <pt x="95" y="-501" on="0"/>
        <pt x="40" y="-384" on="1"/>
        <pt x="-8" y="-282" on="0"/>
        <pt x="-8" y="62" on="0"/>
      </contour>
      <contour>
        <pt x="930" y="1193" on="1"/>
        <pt x="930" y="1250" on="0"/>
        <pt x="863" y="1250" on="0"/>
        <pt x="783" y="1180" on="0"/>
        <pt x="740" y="1118" on="1"/>
        <pt x="650" y="990" on="0"/>
        <pt x="564" y="790" on="1"/>
        <pt x="705" y="832" on="0"/>
        <pt x="817" y="954" on="1"/>
        <pt x="930" y="1077" on="0"/>
      </contour>
      <contour>
        <pt x="481" y="570" on="1"/>
        <pt x="449" y="470" on="1"/>
        <pt x="489" y="410" on="0"/>
        <pt x="552" y="361" on="1"/>
        <pt x="547" y="538" on="0"/>
      </contour>
      <contour>
        <pt x="378" y="128" on="1"/>
        <pt x="369" y="48" on="0"/>
        <pt x="369" y="-100" on="0"/>
        <pt x="382" y="-187" on="0"/>
        <pt x="406" y="-187" on="1"/>
        <pt x="437" y="-187" on="0"/>
        <pt x="470" y="-115" on="1"/>
        <pt x="499" y="-55" on="0"/>
        <pt x="523" y="58" on="1"/>
        <pt x="453" y="86" on="0"/>
      </contour>
    </TTGlyph>
    <TTGlyph name="five" xMin="4" yMin="0" xMax="1296" yMax="1385">
      <contour>
        <pt x="685" y="1251" on="1"/>
        <pt x="628" y="1008" on="1"/>
        <pt x="920" y="877" on="0"/>
        <pt x="994" y="646" on="1"/>
        <pt x="1018" y="574" on="0"/>
        <pt x="1018" y="392" on="0"/>
        <pt x="935" y="210" on="0"/>
        <pt x="860" y="143" on="1"/>
        <pt x="698" y="0" on="0"/>
        <pt x="437" y="0" on="1"/>
        <pt x="134" y="0" on="0"/>
        <pt x="25" y="139" on="1"/>
        <pt x="4" y="165" on="0"/>
        <pt x="4" y="206" on="0"/>
        <pt x="6" y="251" on="0"/>
        <pt x="20" y="296" on="1"/>
        <pt x="47" y="375" on="0"/>
        <pt x="102" y="452" on="1"/>
        <pt x="267" y="373" on="0"/>
        <pt x="386" y="373" on="1"/>
        <pt x="533" y="373" on="0"/>
        <pt x="625" y="430" on="1"/>
        <pt x="720" y="489" on="0"/>
        <pt x="720" y="594" on="1"/>
        <pt x="720" y="693" on="0"/>
        <pt x="584" y="802" on="1"/>
        <pt x="526" y="848" on="0"/>
        <pt x="413" y="924" on="0"/>
        <pt x="397" y="938" on="1"/>
        <pt x="397" y="975" on="0"/>
        <pt x="492" y="1195" on="0"/>
        <pt x="513" y="1238" on="1"/>
        <pt x="560" y="1333" on="0"/>
        <pt x="590" y="1363" on="0"/>
        <pt x="654" y="1372" on="0"/>
        <pt x="702" y="1374" on="1"/>
        <pt x="782" y="1379" on="0"/>
        <pt x="990" y="1379" on="1"/>
        <pt x="1108" y="1378" on="1"/>
        <pt x="1266" y="1378" on="0"/>
        <pt x="1295" y="1385" on="1"/>
        <pt x="1296" y="1376" on="0"/>
        <pt x="1296" y="1354" on="0"/>
        <pt x="1292" y="1313" on="0"/>
        <pt x="1282" y="1288" on="1"/>
        <pt x="1258" y="1227" on="0"/>
        <pt x="1218" y="1227" on="1"/>
        <pt x="1128" y="1227" on="0"/>
        <pt x="801" y="1245" on="0"/>
        <pt x="710" y="1249" on="0"/>
      </contour>
    </TTGlyph>
    <TTGlyph name="four" xMin="95" yMin="-37" xMax="1510" yMax="1384">
      <contour>
        <pt x="1462" y="504" on="1"/>
        <pt x="1392" y="526" on="0"/>
        <pt x="1155" y="526" on="1"/>
        <pt x="1112" y="526" on="1"/>
        <pt x="1091" y="526" on="0"/>
        <pt x="1069" y="525" on="1"/>
        <pt x="924" y="219" on="0"/>
        <pt x="895" y="-33" on="1"/>
        <pt x="846" y="-37" on="0"/>
        <pt x="776" y="-37" on="0"/>
        <pt x="684" y="-32" on="0"/>
        <pt x="634" y="-14" on="1"/>
        <pt x="528" y="25" on="0"/>
        <pt x="528" y="137" on="1"/>
        <pt x="528" y="270" on="0"/>
        <pt x="700" y="496" on="1"/>
        <pt x="502" y="470" on="0"/>
        <pt x="368" y="427" on="1"/>
        <pt x="340" y="418" on="0"/>
        <pt x="303" y="418" on="0"/>
        <pt x="257" y="426" on="0"/>
        <pt x="200" y="464" on="0"/>
        <pt x="154" y="521" on="0"/>
        <pt x="138" y="552" on="1"/>
        <pt x="107" y="611" on="0"/>
        <pt x="95" y="673" on="1"/>
        <pt x="406" y="906" on="0"/>
        <pt x="942" y="1185" on="1"/>
        <pt x="1188" y="1312" on="0"/>
        <pt x="1360" y="1384" on="1"/>
        <pt x="1417" y="1373" on="0"/>
        <pt x="1454" y="1313" on="1"/>
        <pt x="1465" y="1296" on="0"/>
        <pt x="1465" y="1245" on="0"/>
        <pt x="1414" y="1135" on="0"/>
        <pt x="1331" y="991" on="0"/>
        <pt x="1226" y="818" on="0"/>
        <pt x="1171" y="720" on="1"/>
        <pt x="1510" y="705" on="0"/>
        <pt x="1510" y="605" on="1"/>
        <pt x="1510" y="566" on="0"/>
      </contour>
      <contour>
        <pt x="403" y="689" on="1"/>
        <pt x="421" y="690" on="0"/>
        <pt x="512" y="698" on="0"/>
        <pt x="576" y="702" on="1"/>
        <pt x="711" y="712" on="0"/>
        <pt x="886" y="718" on="1"/>
        <pt x="952" y="791" on="0"/>
        <pt x="1084" y="934" on="0"/>
        <pt x="1143" y="1000" on="1"/>
        <pt x="1280" y="1151" on="0"/>
        <pt x="1327" y="1228" on="1"/>
        <pt x="1108" y="1143" on="0"/>
        <pt x="672" y="868" on="1"/>
        <pt x="508" y="765" on="0"/>
      </contour>
    </TTGlyph>
    <TTGlyph name="fraction" xMin="-140" yMin="-335" xMax="1718" yMax="1680">
      <contour>
        <pt x="-140" y="-210" on="1"/>
        <pt x="36" y="-84" on="0"/>
        <pt x="498" y="376" on="1"/>
        <pt x="1308" y="1182" on="0"/>
        <pt x="1650" y="1680" on="1"/>
        <pt x="1686" y="1668" on="0"/>
        <pt x="1718" y="1632" on="0"/>
        <pt x="1718" y="1594" on="0"/>
        <pt x="1633" y="1445" on="0"/>
        <pt x="1486" y="1237" on="0"/>
        <pt x="1288" y="983" on="0"/>
        <pt x="1061" y="708" on="0"/>
        <pt x="817" y="426" on="0"/>
        <pt x="577" y="164" on="0"/>
        <pt x="352" y="-66" on="0"/>
        <pt x="259" y="-151" on="1"/>
        <pt x="58" y="-335" on="0"/>
        <pt x="-4" y="-335" on="1"/>
        <pt x="-35" y="-335" on="0"/>
        <pt x="-69" y="-302" on="1"/>
        <pt x="-128" y="-245" on="0"/>
      </contour>
    </TTGlyph>
</ttFont>
